<svg width="421" height="293" viewBox="0 0 421 293" fill="none" xmlns="http://www.w3.org/2000/svg">
<path d="M94.0507 239.189L386.836 239.189C394.026 239.189 399.854 233.4 399.854 226.259V13.3606C399.854 6.21968 394.026 0.430832 386.836 0.430832L94.0507 0.430832C86.8607 0.430832 81.032 6.21968 81.032 13.3606V226.259C81.032 233.4 86.8607 239.189 94.0507 239.189Z" fill="white"/>
<path d="M80.5977 226.259V13.361C80.6017 9.81821 82.0207 6.42174 84.5433 3.91687C87.0658 1.412 90.4859 0.00334109 94.0531 0L386.836 0C390.402 0.00400927 393.822 1.41297 396.344 3.91776C398.866 6.42256 400.284 9.81865 400.289 13.361V226.259C400.284 229.802 398.866 233.198 396.344 235.702C393.822 238.207 390.402 239.616 386.836 239.62H94.0531C90.486 239.617 87.0659 238.208 84.5433 235.703C82.0207 233.198 80.6017 229.802 80.5977 226.259V226.259ZM94.0531 0.861916C90.7165 0.865658 87.5176 2.18372 85.1583 4.52694C82.7989 6.87015 81.4718 10.0472 81.468 13.361V226.259C81.4718 229.573 82.7989 232.75 85.1583 235.093C87.5176 237.437 90.7165 238.755 94.0531 238.758H386.836C390.172 238.755 393.371 237.437 395.73 235.093C398.09 232.75 399.417 229.573 399.42 226.259V13.361C399.417 10.0472 398.09 6.8702 395.73 4.52697C393.371 2.18374 390.172 0.865659 386.836 0.861916H94.0531Z" fill="#292A2E"/>
<path d="M367.023 139.085H171.891C171.677 139.085 171.472 139 171.321 138.85C171.169 138.7 171.084 138.496 171.084 138.283V27.6833C171.084 27.5781 171.105 27.4739 171.146 27.3766C171.186 27.2794 171.246 27.1911 171.321 27.1167C171.396 27.0423 171.485 26.9832 171.583 26.943C171.68 26.9027 171.785 26.882 171.891 26.882C171.997 26.882 172.102 26.9027 172.2 26.943C172.298 26.9832 172.387 27.0423 172.462 27.1167C172.537 27.1911 172.596 27.2794 172.637 27.3766C172.677 27.4739 172.698 27.5781 172.698 27.6833V137.482H367.023C367.237 137.482 367.442 137.566 367.594 137.717C367.745 137.867 367.83 138.071 367.83 138.283C367.83 138.496 367.745 138.7 367.594 138.85C367.442 139 367.237 139.085 367.023 139.085V139.085Z" fill="#205198"/>
<path opacity="0.2" d="M185.454 122.532H185.893C192.222 122.532 198.428 120.789 203.819 117.497C209.21 114.204 213.577 109.491 216.433 103.882L241.459 54.7278C254.156 29.7893 290.046 29.8797 302.616 54.8793L327.172 103.725C330.012 109.375 334.382 114.127 339.79 117.449C345.198 120.77 351.431 122.53 357.789 122.53V122.53" fill="#205198"/>
<path d="M357.789 123.23C351.296 123.252 344.926 121.466 339.403 118.073C333.881 114.681 329.426 109.819 326.545 104.039L301.99 55.1939C299.27 49.6288 295.016 44.944 289.723 41.6837C284.429 38.4233 278.313 36.7211 272.085 36.7746H271.993C265.78 36.7064 259.675 38.3856 254.383 41.6183C249.091 44.8509 244.828 49.505 242.087 55.0424L217.061 104.196C214.162 109.933 209.71 114.754 204.205 118.117C198.7 121.479 192.359 123.251 185.896 123.232H185.457C185.364 123.235 185.27 123.219 185.183 123.185C185.095 123.151 185.016 123.1 184.948 123.035C184.881 122.97 184.828 122.892 184.791 122.806C184.755 122.72 184.736 122.628 184.736 122.535C184.736 122.442 184.755 122.349 184.791 122.263C184.828 122.177 184.881 122.1 184.948 122.035C185.016 121.97 185.095 121.919 185.183 121.885C185.27 121.851 185.364 121.835 185.457 121.837H185.896C192.099 121.855 198.184 120.156 203.468 116.929C208.752 113.702 213.026 109.075 215.809 103.569L240.835 54.4153C243.732 48.6773 248.184 43.8559 253.69 40.4931C259.196 37.1302 265.536 35.3593 272 35.3794H272.091C278.569 35.375 284.92 37.1697 290.426 40.5609C295.932 43.952 300.373 48.8045 303.248 54.5703L327.804 103.416C330.569 108.964 334.845 113.63 340.146 116.886C345.447 120.142 351.561 121.857 357.793 121.835C357.976 121.84 358.15 121.916 358.278 122.046C358.406 122.176 358.477 122.351 358.477 122.533C358.477 122.715 358.406 122.889 358.278 123.019C358.15 123.15 357.976 123.225 357.793 123.23H357.789Z" fill="#205198"/>
<g opacity="0.2">
<path opacity="0.2" d="M165.171 165.088C166.71 162.595 168.596 160.331 170.773 158.363C171.757 157.476 172.909 156.307 174.214 155.923C174.672 155.808 175.151 155.81 175.608 155.928C176.065 156.046 176.484 156.277 176.827 156.599C178.481 157.93 179.559 159.866 181.426 160.957C183.191 161.987 185.242 161.922 187.139 161.314C189.186 160.657 191.054 159.556 193 158.671C194.78 157.863 196.819 157.138 198.784 157.661C201.072 158.267 202.686 160.223 204.804 161.182C205.993 161.743 207.333 161.908 208.623 161.652C210.144 161.355 211.564 160.613 213.016 160.097C219.624 157.762 226.693 157.006 233.65 157.89C234.621 158.013 234.612 156.497 233.65 156.376C227.368 155.587 220.989 156.101 214.918 157.887C213.359 158.346 211.845 158.912 210.336 159.511C208.998 160.042 207.617 160.52 206.182 160.095C203.875 159.414 202.225 157.389 200.011 156.483C195.69 154.716 191.564 157.944 187.737 159.488C185.957 160.206 183.955 160.677 182.195 159.649C180.323 158.555 179.251 156.506 177.521 155.228C177.072 154.875 176.556 154.615 176.004 154.465C175.451 154.315 174.874 154.277 174.306 154.354C172.73 154.601 171.428 155.791 170.263 156.792C167.752 158.962 165.592 161.502 163.856 164.323C163.341 165.156 164.66 165.918 165.173 165.088H165.171Z" fill="#FBAF55"/>
</g>
<g opacity="0.2">
<path opacity="0.2" d="M98.8013 54.1942C111.792 53.4944 124.793 53.0294 137.804 52.7991C141.52 52.7342 145.237 52.6882 148.954 52.6613C149.157 52.6613 149.351 52.5815 149.494 52.4394C149.637 52.2974 149.717 52.1048 149.717 51.9039C149.717 51.703 149.637 51.5104 149.494 51.3683C149.351 51.2263 149.157 51.1465 148.954 51.1465C135.945 51.2411 122.94 51.571 109.939 52.1361C106.226 52.2981 102.513 52.4792 98.8013 52.6795C97.8252 52.7325 97.819 54.2473 98.8013 54.1942V54.1942Z" fill="#FBAF55"/>
<path opacity="0.2" d="M101.592 62.9683C114.406 62.2368 127.228 61.6856 140.059 61.3147C143.689 61.2097 147.319 61.1196 150.949 61.0445C151.929 61.0238 151.932 59.509 150.949 59.5298C138.117 59.799 125.29 60.2474 112.469 60.8749C108.842 61.053 105.217 61.2458 101.592 61.4535C100.616 61.5091 100.61 63.0244 101.592 62.9683V62.9683Z" fill="#FBAF55"/>
<path opacity="0.2" d="M101.618 73.215C114.744 73.7033 148.294 70.9044 151.95 70.3515C152.916 70.2051 152.506 68.7454 151.543 68.8908C138.668 70.8398 105.286 71.8371 101.618 71.7002C100.636 71.6639 100.638 73.1787 101.618 73.215Z" fill="#FBAF55"/>
<path opacity="0.2" d="M101.606 84.1744C109.663 83.2932 117.778 83.0526 125.874 83.4549C126.854 83.5054 126.852 81.9906 125.874 81.9401C117.778 81.5378 109.663 81.7784 101.606 82.6596C100.64 82.7651 100.63 84.2809 101.606 84.1744Z" fill="#FBAF55"/>
</g>
<g opacity="0.2">
<path opacity="0.2" d="M294.692 157.328C289.993 157.234 285.294 157.29 280.596 157.496C279.912 157.527 278.889 157.386 278.567 158.155C278.456 158.64 278.441 159.143 278.524 159.633C278.555 160.777 278.545 161.923 278.533 163.067C278.508 165.577 278.438 168.087 278.424 170.597C278.4 171.271 278.414 171.945 278.466 172.617C278.462 172.759 278.493 172.9 278.557 173.028C278.621 173.156 278.714 173.266 278.831 173.35C279.169 173.496 279.538 173.558 279.905 173.531C280.464 173.565 281.023 173.591 281.583 173.609C286.18 173.775 290.785 173.616 295.377 173.912C295.547 173.911 295.71 173.843 295.83 173.723C295.951 173.604 296.019 173.442 296.02 173.273L295.423 159.899L295.337 157.968C295.301 157.15 294.016 157.145 294.051 157.968L294.648 171.342L294.734 173.273L295.377 172.634C291.615 172.394 287.843 172.458 284.075 172.396C283.163 172.381 282.251 172.36 281.34 172.325C280.901 172.308 280.463 172.287 280.025 172.263C279.832 172.234 279.637 172.222 279.442 172.227C279.701 172.635 279.805 172.751 279.752 172.577C279.747 172.558 279.744 172.54 279.741 172.522C279.714 172.545 279.746 172.63 279.738 172.425C279.732 172.289 279.725 172.153 279.721 172.017C279.711 171.663 279.711 171.306 279.711 170.951C279.714 168.698 279.776 166.445 279.808 164.192C279.824 163.037 279.837 161.882 279.829 160.727C279.826 160.309 279.821 159.891 279.807 159.474C279.816 159.295 279.808 159.117 279.785 158.94C279.771 158.857 279.766 158.774 279.769 158.69L279.602 158.821L280.171 158.794C285.009 158.569 289.85 158.507 294.694 158.607C294.779 158.607 294.862 158.59 294.941 158.558C295.019 158.525 295.089 158.478 295.149 158.419C295.209 158.359 295.256 158.289 295.288 158.211C295.321 158.134 295.337 158.05 295.337 157.967C295.337 157.883 295.32 157.799 295.288 157.722C295.255 157.644 295.208 157.574 295.148 157.515C295.088 157.456 295.017 157.409 294.939 157.377C294.861 157.345 294.777 157.328 294.692 157.328V157.328Z" fill="#FBAF55"/>
<path opacity="0.2" d="M282.545 165.275C283.214 167.007 284.305 168.548 285.721 169.758C286.389 170.316 286.949 170.471 287.716 169.981C288.598 169.419 289.49 168.874 290.372 168.315C292.522 166.947 294.617 165.495 296.763 164.124C297.897 163.4 299.058 162.72 300.233 162.063C300.373 161.974 300.473 161.835 300.512 161.674C300.55 161.514 300.525 161.345 300.441 161.202C300.358 161.06 300.221 160.955 300.061 160.91C299.902 160.865 299.73 160.883 299.584 160.96C297.299 162.238 295.128 163.667 292.95 165.114C291.342 166.183 289.719 167.228 288.08 168.25C287.775 168.439 287.066 169.039 286.809 169.003C286.491 168.958 285.856 168.144 285.647 167.916C284.852 167.043 284.223 166.034 283.788 164.94C283.487 164.182 282.242 164.514 282.548 165.279L282.545 165.275Z" fill="#FBAF55"/>
<path opacity="0.2" d="M282.545 187.935C283.214 189.667 284.306 191.207 285.721 192.416C286.389 192.975 286.949 193.13 287.716 192.64C288.598 192.078 289.49 191.533 290.372 190.971C292.522 189.603 294.617 188.151 296.763 186.78C297.897 186.056 299.058 185.376 300.233 184.719C300.373 184.63 300.473 184.49 300.512 184.33C300.55 184.169 300.525 184 300.441 183.858C300.358 183.715 300.221 183.61 300.061 183.565C299.902 183.52 299.73 183.538 299.584 183.616C297.299 184.893 295.128 186.323 292.95 187.77C291.342 188.839 289.719 189.884 288.08 190.905C287.775 191.095 287.066 191.695 286.809 191.658C286.491 191.613 285.856 190.8 285.647 190.571C284.852 189.698 284.223 188.69 283.788 187.595C283.487 186.838 282.242 187.17 282.548 187.935H282.545Z" fill="#FBAF55"/>
<path opacity="0.2" d="M282.545 210.621C283.214 212.353 284.306 213.893 285.721 215.103C286.389 215.661 286.949 215.817 287.716 215.327C288.598 214.765 289.49 214.22 290.372 213.658C292.522 212.29 294.617 210.838 296.763 209.467C297.897 208.743 299.058 208.063 300.233 207.406C300.373 207.317 300.473 207.178 300.512 207.017C300.55 206.857 300.525 206.688 300.441 206.545C300.358 206.403 300.221 206.298 300.061 206.253C299.902 206.208 299.73 206.226 299.584 206.303C297.299 207.581 295.128 209.011 292.95 210.458C291.342 211.526 289.719 212.571 288.08 213.593C287.775 213.782 287.066 214.382 286.809 214.346C286.491 214.301 285.856 213.488 285.647 213.259C284.852 212.386 284.223 211.378 283.788 210.283C283.487 209.525 282.242 209.857 282.548 210.623L282.545 210.621Z" fill="#FBAF55"/>
<path opacity="0.2" d="M294.692 179.986C289.993 179.892 285.294 179.948 280.596 180.154C279.912 180.184 278.889 180.043 278.567 180.813C278.456 181.298 278.441 181.8 278.524 182.291C278.555 183.435 278.545 184.58 278.533 185.724C278.508 188.235 278.438 190.745 278.424 193.255C278.4 193.929 278.414 194.603 278.466 195.275C278.462 195.417 278.493 195.558 278.557 195.686C278.621 195.813 278.714 195.924 278.831 196.007C279.169 196.153 279.538 196.216 279.905 196.189C280.465 196.221 281.024 196.246 281.583 196.266C286.18 196.433 290.785 196.274 295.377 196.569C295.547 196.568 295.71 196.5 295.83 196.38C295.95 196.261 296.018 196.099 296.02 195.93L295.423 182.557L295.337 180.625C295.301 179.807 294.016 179.802 294.051 180.625L294.648 193.999L294.734 195.93L295.377 195.291C291.615 195.051 287.843 195.115 284.075 195.054C283.163 195.039 282.251 195.017 281.339 194.982C280.901 194.965 280.463 194.944 280.025 194.92C279.832 194.891 279.637 194.879 279.442 194.885C279.701 195.292 279.805 195.408 279.752 195.234C279.747 195.216 279.744 195.198 279.741 195.179C279.714 195.203 279.746 195.287 279.738 195.082C279.732 194.946 279.725 194.81 279.721 194.674C279.711 194.32 279.711 193.964 279.711 193.608C279.714 191.355 279.776 189.102 279.808 186.849C279.824 185.694 279.837 184.539 279.829 183.384C279.826 182.966 279.821 182.549 279.807 182.13C279.816 181.952 279.808 181.774 279.785 181.597C279.771 181.513 279.766 181.429 279.769 181.344L279.602 181.476L280.171 181.449C285.009 181.224 289.85 181.161 294.694 181.261C294.858 181.251 295.011 181.179 295.123 181.06C295.235 180.942 295.297 180.785 295.296 180.623C295.296 180.46 295.234 180.304 295.121 180.185C295.009 180.067 294.856 179.995 294.692 179.986V179.986Z" fill="#FBAF55"/>
<path opacity="0.2" d="M294.692 202.643C289.993 202.549 285.294 202.605 280.596 202.811C279.912 202.841 278.889 202.7 278.567 203.47C278.456 203.955 278.441 204.457 278.524 204.948C278.555 206.092 278.545 207.238 278.533 208.381C278.508 210.892 278.438 213.402 278.424 215.912C278.4 216.585 278.414 217.26 278.466 217.932C278.462 218.074 278.493 218.215 278.557 218.343C278.621 218.47 278.714 218.581 278.831 218.665C279.169 218.811 279.538 218.873 279.905 218.845C280.465 218.878 281.024 218.903 281.583 218.923C286.18 219.089 290.785 218.93 295.377 219.226C295.547 219.225 295.71 219.157 295.83 219.038C295.95 218.918 296.018 218.757 296.02 218.588L295.423 205.214L295.337 203.283C295.301 202.464 294.016 202.46 294.051 203.283L294.648 216.656L294.734 218.588L295.377 217.949C291.615 217.709 287.843 217.772 284.075 217.711C283.163 217.696 282.251 217.675 281.339 217.64C280.901 217.622 280.463 217.602 280.025 217.578C279.832 217.549 279.637 217.537 279.442 217.542C279.701 217.95 279.805 218.066 279.752 217.891C279.747 217.873 279.744 217.855 279.741 217.837C279.714 217.86 279.746 217.945 279.738 217.74C279.732 217.604 279.725 217.467 279.721 217.331C279.711 216.978 279.711 216.621 279.711 216.266C279.714 214.013 279.776 211.76 279.808 209.507C279.824 208.352 279.837 207.197 279.829 206.042C279.826 205.624 279.821 205.206 279.807 204.788C279.816 204.61 279.808 204.431 279.785 204.254C279.771 204.171 279.766 204.086 279.769 204.002L279.602 204.134C279.792 204.124 279.981 204.115 280.171 204.107C285.009 203.881 289.85 203.819 294.694 203.919C294.858 203.91 295.013 203.838 295.126 203.719C295.238 203.601 295.301 203.443 295.301 203.28C295.301 203.117 295.237 202.96 295.124 202.841C295.011 202.723 294.856 202.652 294.692 202.643V202.643Z" fill="#FBAF55"/>
<path opacity="0.2" d="M305.255 161.564C305.228 162.05 305.326 162.534 305.54 162.972C305.754 163.41 306.076 163.787 306.477 164.067C306.878 164.347 307.344 164.522 307.831 164.574C308.318 164.627 308.811 164.555 309.262 164.366C310.233 163.949 310.567 163.181 311.074 162.334C311.42 161.754 311.679 161.947 312.247 162.177C312.822 162.403 313.426 162.549 314.041 162.61C316.692 162.906 319.459 162.05 322.078 161.726C324.859 161.381 327.658 161.191 330.46 161.157C333.677 161.12 336.894 161.286 340.09 161.654C340.911 161.747 340.903 160.469 340.09 160.376C334.882 159.778 329.626 159.717 324.405 160.196C321.914 160.427 319.468 160.856 316.997 161.22C315.758 161.463 314.481 161.446 313.248 161.172C312.369 160.93 311.55 160.286 310.663 160.877C309.823 161.439 309.781 162.662 308.88 163.137C308.623 163.271 308.335 163.333 308.045 163.316C307.756 163.3 307.476 163.206 307.237 163.045C306.997 162.883 306.805 162.66 306.683 162.4C306.56 162.139 306.511 161.85 306.541 161.564C306.578 160.742 305.292 160.744 305.255 161.564V161.564Z" fill="#FBAF55"/>
<path opacity="0.2" d="M303.921 184.223C304.098 185.924 306.158 186.058 307.343 185.269C308.169 184.718 308.883 183.863 309.97 184.259C310.979 184.627 311.778 185.336 312.86 185.551C315.118 186.001 317.563 185.263 319.806 184.992C322.342 184.687 324.888 184.503 327.446 184.44C330.325 184.373 333.206 184.457 336.076 184.693C336.901 184.76 336.897 183.481 336.076 183.415C331.445 183.034 326.789 183.051 322.161 183.466C319.869 183.673 317.61 184.099 315.325 184.341C314.286 184.516 313.218 184.401 312.241 184.008C311.433 183.625 310.706 183.044 309.8 182.897C308.788 182.734 307.991 183.191 307.214 183.782C306.888 184.09 306.495 184.32 306.065 184.454C305.868 184.491 305.238 184.525 305.206 184.221C305.123 183.413 303.834 183.402 303.921 184.221L303.921 184.223Z" fill="#FBAF55"/>
<path opacity="0.2" d="M305.708 206.403C305.834 208.309 308.123 208.804 309.655 208.223C310.723 207.819 311.746 206.869 312.934 206.856C313.61 206.926 314.265 207.133 314.859 207.462C315.512 207.736 316.186 207.958 316.875 208.126C319.476 208.76 322.186 208.682 324.836 208.48C327.716 208.262 330.585 208.002 333.473 207.92C336.87 207.825 340.266 207.894 343.66 208.125C344.486 208.18 344.483 206.903 343.66 206.848C338.153 206.482 332.625 206.537 327.126 207.011C324.598 207.314 322.049 207.398 319.506 207.264C318.277 207.164 317.066 206.908 315.902 206.503C314.791 206.107 313.776 205.451 312.547 205.61C311.276 205.774 310.335 206.637 309.162 207.044C308.557 207.254 307.053 207.317 306.993 206.4C306.939 205.584 305.653 205.578 305.707 206.4L305.708 206.403Z" fill="#FBAF55"/>
</g>
<g opacity="0.2">
<path opacity="0.2" d="M331.419 29.6459C332.143 27.9326 333.042 26.2975 334.102 24.7662C334.458 24.2527 334.944 23.3383 335.692 23.6316C336.382 23.9028 337.006 24.6965 337.522 25.207C338.577 26.2507 339.634 27.3671 340.954 28.0851C342.26 28.8046 343.794 29.0022 345.242 28.6375C346.763 28.2618 348.113 27.409 349.485 26.69C350.998 25.8522 352.706 25.4216 354.438 25.4408C356.31 25.5466 358.166 25.8479 359.974 26.3396C361.852 26.7743 363.737 27.155 365.648 27.4232C369.969 28.0319 374.345 28.1591 378.695 27.8024C379.666 27.7216 379.675 26.2063 378.695 26.2876C374.656 26.6256 370.593 26.5398 366.573 26.0316C364.567 25.7649 362.576 25.3979 360.607 24.9318C358.736 24.4355 356.824 24.1043 354.894 23.9422C353.074 23.8356 351.256 24.1796 349.602 24.9434C348.179 25.5998 346.871 26.5269 345.377 27.0222C344.671 27.2733 343.914 27.3487 343.172 27.242C342.431 27.1352 341.726 26.8495 341.121 26.4098C339.85 25.5458 338.855 24.332 337.729 23.3014C337.045 22.6753 336.265 21.9987 335.274 22.0391C334.377 22.0759 333.725 22.7293 333.221 23.3968C331.961 25.0926 330.913 26.9345 330.102 28.8819C330.007 29.0569 329.982 29.2612 330.033 29.4535C330.084 29.6459 330.206 29.8119 330.376 29.918C330.551 30.0181 330.758 30.0457 330.954 29.9948C331.149 29.944 331.316 29.8188 331.419 29.6464V29.6459Z" fill="#FBAF55"/>
</g>
<g opacity="0.2">
<path opacity="0.2" d="M336.489 41.19L337.792 39.6651L338.526 38.8067C338.707 38.5366 338.922 38.2904 339.166 38.074C339.586 37.8024 340.19 38.3957 340.574 38.6012C341.101 38.8828 341.658 39.1031 342.235 39.2576C344.504 39.8635 346.901 39.4752 349.156 39.0102C351.635 38.4186 354.158 38.0287 356.7 37.8443C359.357 37.7297 362.016 37.8706 364.673 37.9069C367.697 38.0239 370.722 37.7598 373.679 37.1207C374.632 36.89 374.228 35.4287 373.272 35.66C367.876 36.9667 362.299 36.1058 356.817 36.3245C354.24 36.4861 351.682 36.8679 349.171 37.4656C346.878 37.9529 344.35 38.4548 342.075 37.6247C340.956 37.2157 339.767 35.9367 338.509 36.6749C337.939 37.1063 337.442 37.6259 337.039 38.2139L335.412 40.12C334.78 40.8592 335.853 41.9378 336.49 41.191L336.489 41.19Z" fill="#FBAF55"/>
</g>
<path d="M420.492 293H0.508404C0.373567 293 0.244252 292.947 0.148908 292.852C0.0535638 292.757 0 292.629 0 292.495C0 292.361 0.0535638 292.233 0.148908 292.138C0.244252 292.043 0.373567 291.99 0.508404 291.99H420.492C420.626 291.99 420.756 292.043 420.851 292.138C420.946 292.233 421 292.361 421 292.495C421 292.629 420.946 292.757 420.851 292.852C420.756 292.947 420.626 293 420.492 293Z" fill="#292A2E"/>
<path d="M287.346 292.235H344.039V276.077H287.346V292.235Z" fill="#FBAF55"/>
<path opacity="0.69" d="M287.346 292.235H344.039V276.077H287.346V292.235Z" fill="white"/>
<path opacity="0.65" d="M294.957 292.235H302.386V276.077H294.957V292.235Z" fill="white"/>
<path opacity="0.65" d="M305.906 288.724H336.794V279.149H305.906V288.724Z" fill="white"/>
<path d="M273.83 276.093H329.743V259.935H273.83V276.093Z" fill="#FBAF55"/>
<path opacity="0.6" d="M273.83 276.093H329.743V259.935H273.83V276.093Z" fill="white"/>
<path opacity="0.42" d="M280.972 272.581H311.435V263.006H280.972V272.581Z" fill="white"/>
<path opacity="0.42" d="M314.907 276.094H322.233V259.936H314.907V276.094Z" fill="white"/>
<path d="M246.529 292.235L283.36 249.431L270.993 238.934L234.161 281.738L246.529 292.235Z" fill="#FBAF55"/>
<path opacity="0.78" d="M246.529 292.235L283.36 249.431L270.993 238.934L234.161 281.738L246.529 292.235Z" fill="white"/>
<path opacity="0.2" d="M251.474 286.486L256.301 280.878L243.933 270.38L239.107 275.989L251.474 286.486Z" fill="#FBAF55"/>
<path opacity="0.2" d="M255.899 275.94L275.966 252.619L268.637 246.398L248.57 269.719L255.899 275.94Z" fill="#FBAF55"/>
<path d="M403.969 209.793L351.157 272.575L352.328 273.547L405.14 210.765L403.969 209.793Z" fill="#292A2E"/>
<path d="M380.529 266.943H374.301V288.724H380.529V266.943Z" fill="#FBAF55"/>
<path d="M374.301 278.249L380.529 281.761V277.019L374.301 278.249Z" fill="#292A2E"/>
<path d="M386.619 288.724H369.019C368.111 288.724 367.375 289.455 367.375 290.357V290.357C367.375 291.259 368.111 291.99 369.019 291.99H386.619C387.527 291.99 388.263 291.259 388.263 290.357V290.357C388.263 289.455 387.527 288.724 386.619 288.724Z" fill="#FBAF55"/>
<path d="M377.417 283.781C371.649 283.772 365.945 282.587 360.658 280.298C355.37 278.009 350.613 274.665 346.681 270.475C346.543 270.327 346.47 270.132 346.477 269.931C346.485 269.73 346.572 269.54 346.72 269.403C346.869 269.267 347.066 269.194 347.268 269.201C347.47 269.209 347.661 269.296 347.799 269.443C351.65 273.561 356.328 276.83 361.531 279.04C366.734 281.249 372.346 282.35 378.004 282.27C383.663 282.19 389.241 280.931 394.378 278.575C399.516 276.219 404.099 272.819 407.83 268.593C411.561 264.368 414.357 259.412 416.039 254.046C417.72 248.679 418.248 243.022 417.59 237.441C416.932 231.859 415.101 226.476 412.216 221.641C409.332 216.806 405.457 212.626 400.844 209.372C400.76 209.315 400.688 209.242 400.633 209.158C400.578 209.073 400.54 208.978 400.522 208.879C400.504 208.78 400.506 208.678 400.529 208.58C400.551 208.481 400.593 208.388 400.652 208.306C400.711 208.224 400.785 208.155 400.872 208.101C400.958 208.048 401.054 208.013 401.154 207.997C401.255 207.982 401.357 207.986 401.456 208.01C401.554 208.035 401.647 208.078 401.728 208.138C408.981 213.259 414.407 220.537 417.222 228.92C420.037 237.304 420.096 246.359 417.39 254.778C414.685 263.198 409.354 270.544 402.169 275.758C394.983 280.971 386.315 283.781 377.417 283.781Z" fill="#292A2E"/>
<path d="M377.419 278.249C397.516 278.249 413.809 262.068 413.809 242.108C413.809 222.148 397.516 205.967 377.419 205.967C357.321 205.967 341.029 222.148 341.029 242.108C341.029 262.068 357.321 278.249 377.419 278.249Z" fill="#FBAF55"/>
<path opacity="0.5" d="M377.419 278.249C397.516 278.249 413.809 262.068 413.809 242.108C413.809 222.148 397.516 205.967 377.419 205.967C357.321 205.967 341.029 222.148 341.029 242.108C341.029 262.068 357.321 278.249 377.419 278.249Z" fill="white"/>
<g opacity="0.4">
<path opacity="0.4" d="M411.333 255.242C409.007 261.152 405.158 266.35 400.172 270.316C395.186 274.283 389.238 276.879 382.923 277.843C382.446 276.333 381.968 274.818 381.495 273.309C380.687 270.749 379.929 267.78 381.403 265.533C382.115 264.447 383.249 263.72 384.266 262.912C386.42 261.187 388.141 258.988 389.294 256.489C389.873 255.222 390.372 253.798 391.536 253.021C392.265 252.598 393.079 252.343 393.92 252.273C396.951 251.885 400.018 251.879 403.051 252.253C405.197 252.49 407.368 252.869 409.279 253.864C410.011 254.249 410.7 254.712 411.333 255.242V255.242Z" fill="white"/>
</g>
<g opacity="0.4">
<path opacity="0.4" d="M413.777 240.679C410.185 240.295 406.704 239.214 403.532 237.498C402.243 236.86 401.096 235.97 400.162 234.882C399.431 233.893 398.909 232.768 398.626 231.575C398.215 230 398.067 228.37 398.189 226.748C398.367 224.41 399.079 221.9 397.955 219.84C397.127 218.315 395.469 217.427 393.812 216.871C392.154 216.316 390.41 216.013 388.855 215.235C388 214.865 387.297 214.217 386.862 213.397C386.568 212.569 386.507 211.677 386.684 210.817C386.88 209.652 387.177 208.507 387.574 207.394C394.904 209.513 401.377 213.866 406.08 219.839C410.782 225.813 413.474 233.103 413.777 240.679V240.679Z" fill="white"/>
</g>
<g opacity="0.4">
<path opacity="0.4" d="M378.382 236.311C378.616 242.198 369.043 242.441 367.705 247.546C366.643 250.626 367.929 253.973 368.554 257.17C370.308 266.152 362.835 269.505 355.874 271.237C348.792 266.07 343.831 258.533 341.907 250.017C339.983 241.501 341.226 232.581 345.407 224.905C346.712 224.709 348.033 224.633 349.352 224.677C353.129 223.794 355.59 220.254 358.854 218.164C364.055 214.766 372.022 213.831 373.307 220.219C374.304 225.157 369.764 225.925 371.096 230.04C372.184 233.16 377.68 233.079 378.382 236.311Z" fill="white"/>
</g>
<path d="M219.609 121.436C219.747 121.059 219.961 120.713 220.238 120.42C220.515 120.128 220.848 119.894 221.219 119.734C221.59 119.574 221.99 119.491 222.394 119.489C222.798 119.487 223.198 119.567 223.57 119.724C224.28 120.053 224.837 120.637 225.13 121.358C225.422 122.079 225.428 122.884 225.146 123.609L223.774 127.361L232.384 118.642C233.451 117.526 235.485 116.837 236.666 118.111C237.689 119.078 240.055 119.377 240.439 121.191C240.452 121.201 240.428 137.8 239.436 138.835C235.225 143.228 225.045 144.076 219.366 141.846L210.429 138.336L219.609 121.436Z" fill="#E98862"/>
<g opacity="0.1">
<path opacity="0.1" d="M219.609 121.436C219.747 121.059 219.961 120.713 220.238 120.42C220.515 120.128 220.848 119.894 221.219 119.734C221.59 119.574 221.99 119.491 222.394 119.489C222.798 119.487 223.198 119.567 223.57 119.724C224.28 120.053 224.837 120.637 225.13 121.358C225.422 122.079 225.428 122.884 225.146 123.609L223.774 127.361L232.384 118.642C233.451 117.526 235.485 116.837 236.666 118.111C237.689 119.078 240.055 119.377 240.439 121.191C240.452 121.201 240.428 137.8 239.436 138.835C235.225 143.228 225.045 144.076 219.366 141.846L210.429 138.336L219.609 121.436Z" fill="#0C0C0C"/>
</g>
<path d="M228.412 139.408C228.087 139.408 227.768 139.331 227.479 139.184C227.191 139.036 226.942 138.822 226.754 138.559C226.566 138.297 226.444 137.993 226.398 137.674C226.352 137.355 226.384 137.03 226.491 136.726L261.729 35.9103C261.813 35.6552 261.947 35.4193 262.124 35.2164C262.301 35.0134 262.517 34.8475 262.759 34.7283C263.001 34.6091 263.264 34.539 263.534 34.5221C263.804 34.5052 264.074 34.5418 264.329 34.6298C264.584 34.7179 264.819 34.8555 265.02 35.0348C265.222 35.2141 265.385 35.4313 265.5 35.6739C265.616 35.9164 265.682 36.1794 265.694 36.4475C265.706 36.7156 265.664 36.9834 265.571 37.2352L230.333 138.048C230.195 138.445 229.935 138.789 229.591 139.033C229.247 139.277 228.835 139.408 228.412 139.408V139.408Z" fill="#0A0A0A"/>
<path d="M228.041 131.818C228.185 131.31 228.492 130.863 228.916 130.545C229.34 130.227 229.857 130.055 230.388 130.055C230.381 130.014 230.337 129.916 230.409 129.909L228.579 129.026C228.034 128.778 227.599 128.343 227.352 127.8C227.106 127.258 227.066 126.645 227.239 126.075C227.429 125.518 227.82 125.051 228.337 124.764C228.853 124.478 229.459 124.391 230.036 124.522C230.027 124.5 230.039 124.475 230.039 124.452L229.287 124.089C228.775 123.853 228.361 123.448 228.115 122.944C227.869 122.439 227.805 121.866 227.936 121.32C228.025 120.98 228.189 120.663 228.416 120.393C228.643 120.124 228.927 119.907 229.249 119.76C229.57 119.612 229.92 119.538 230.275 119.541C230.629 119.544 230.977 119.626 231.296 119.779L233.031 120.616C233.034 120.606 233.027 120.596 233.031 120.586C233.034 120.577 233.051 120.571 233.059 120.56C232.636 120.225 232.34 119.756 232.22 119.232C232.1 118.707 232.163 118.157 232.398 117.673C232.926 116.384 234.65 116.335 235.771 116.876L239.171 118.853C239.695 119.158 240.136 119.587 240.453 120.102C240.77 120.617 240.954 121.202 240.989 121.804C241.294 127.02 241.755 140.661 238.176 138.935L229.365 134.685C228.855 134.421 228.448 133.996 228.208 133.477C227.968 132.958 227.909 132.374 228.041 131.818Z" fill="#E98862"/>
<path d="M39.2771 117.812C39.2771 117.812 38.186 134.079 34.5011 139.979C23.8938 156.971 20.8195 176.084 31.4431 186.069C42.0667 196.055 109.824 196.194 114.957 173.226C119.278 153.89 110.004 151.811 107.748 135.861C106.726 128.642 103.917 113.508 103.917 113.508" fill="#0A0A0A"/>
<path d="M97.4173 169.859C97.3003 169.843 96.0024 191.232 70.9838 189.368C53.6635 188.079 47.488 169.827 47.0889 169.827C48.9562 169.433 52.1012 168.859 52.9304 168.42C55.6575 166.964 59.0313 165.45 59.9113 160.19C60.4197 157.16 59.5585 141.648 59.8229 138.579L86.4124 144.472C86.0407 150.95 83.4408 165.97 92.5539 168.628C94.0694 169.07 95.7029 169.475 97.4173 169.859Z" fill="#E98862"/>
<path opacity="0.5" d="M86.7844 162.493C86.3677 161.16 86.0995 159.786 85.9846 158.395C85.692 155.221 85.7503 152.024 86.1585 148.863C80.7552 148.138 75.6648 145.923 71.4656 142.469C70.972 144.28 68.2571 152.192 69.0085 153.913C70.43 157.166 77.1074 162.493 86.7844 162.493Z" fill="#0C0C0C"/>
<path d="M83.3459 155.829C72.8641 156.838 59.3019 152.672 56.492 138.808L53.9571 126.299C51.1477 112.436 56.2017 99.7318 69.345 97.1047C82.4877 94.479 94.5893 103.753 97.3987 117.616L98.5207 123.154C99.5991 128.473 102.048 154.032 83.3459 155.829Z" fill="#E98862"/>
<path opacity="0.1" d="M76.6842 137.662C78.4091 137.458 79.6851 136.273 79.5342 135.017C79.3832 133.76 77.8625 132.907 76.1375 133.111C74.4125 133.316 73.1365 134.5 73.2875 135.757C73.4385 137.013 74.9592 137.866 76.6842 137.662Z" fill="#0C0C0C"/>
<path opacity="0.1" d="M94.9109 132.638C95.0634 133.893 96.5856 134.745 98.3111 134.543C98.6092 134.507 98.9028 134.441 99.1871 134.345C99.2669 132.849 99.272 131.41 99.2278 130.077C98.7488 129.958 98.2517 129.93 97.762 129.992C96.0355 130.194 94.7609 131.378 94.9109 132.638Z" fill="#0C0C0C"/>
<path opacity="0.5" d="M87.2934 136.517L87.3193 136.513C87.852 136.402 88.3781 136.263 88.8953 136.095C89.6671 135.839 90.6773 135.417 90.5365 134.724C90.3768 133.934 86.4692 125.847 86.0259 124.929C85.9855 124.851 85.9162 124.791 85.8325 124.764C85.7489 124.736 85.6576 124.741 85.5781 124.779C85.4986 124.817 85.4371 124.885 85.4068 124.967C85.3765 125.049 85.3798 125.14 85.4158 125.22C87.0819 128.664 89.7657 134.326 89.873 134.858C89.7891 135.106 88.5084 135.591 87.1871 135.855C87.1433 135.862 87.1013 135.878 87.0635 135.901C87.0257 135.924 86.9929 135.954 86.9669 135.99C86.9409 136.026 86.9222 136.066 86.912 136.109C86.9018 136.152 86.9002 136.197 86.9072 136.24C86.9143 136.284 86.9299 136.325 86.9533 136.363C86.9766 136.401 87.0071 136.433 87.0431 136.459C87.0791 136.485 87.1199 136.503 87.1631 136.513C87.2063 136.524 87.2511 136.525 87.2949 136.518L87.2934 136.517Z" fill="#0C0C0C"/>
<path d="M43.4714 130.79L55.2542 128.504C64.1543 124.807 66.6796 109.401 66.6796 109.401C66.6796 109.401 77.6641 119.791 103.918 113.508C103.918 113.508 98.2148 77.11 59.4501 88.1584C46.9505 91.7207 38.0971 104.374 39.4139 121.134C40.3366 132.879 43.4714 130.79 43.4714 130.79Z" fill="#0A0A0A"/>
<path d="M58.1654 142.869C54.1709 143.667 50.0732 140.071 49.2684 136.103C48.4636 132.135 51.2593 129.301 55.2533 128.503L57.8497 130.749L61.5982 142.181L58.1654 142.869Z" fill="#E98862"/>
<path d="M88.8523 118.478C89.8516 117.776 91.0205 117.35 92.2398 117.243C92.8515 117.185 93.4686 117.219 94.0701 117.344C94.6774 117.467 95.2668 117.665 95.8246 117.934L95.8423 117.942C95.9042 117.969 95.9742 117.971 96.0375 117.948C96.1007 117.924 96.1523 117.877 96.181 117.816C96.2097 117.756 96.2134 117.686 96.1913 117.623C96.1691 117.559 96.1229 117.507 96.0625 117.477C95.4716 117.167 94.8437 116.932 94.1936 116.778C93.5391 116.62 92.8643 116.561 92.192 116.602C90.8303 116.677 89.5137 117.113 88.379 117.864C88.3368 117.893 88.3007 117.929 88.2727 117.972C88.2447 118.014 88.2254 118.062 88.2158 118.111C88.2063 118.161 88.2067 118.212 88.2171 118.262C88.2275 118.312 88.2476 118.359 88.2763 118.401C88.305 118.443 88.3417 118.478 88.3844 118.506C88.4271 118.534 88.4749 118.553 88.525 118.563C88.5751 118.572 88.6267 118.572 88.6766 118.561C88.7266 118.551 88.774 118.531 88.8162 118.503L88.8254 118.496L88.8523 118.478Z" fill="#0C0C0C"/>
<path d="M78.0897 119.956C76.7516 119.692 75.3667 119.789 74.0794 120.238C73.4431 120.455 72.8433 120.767 72.3 121.161C71.7588 121.551 71.2691 122.006 70.8424 122.517C70.7973 122.567 70.7741 122.634 70.7777 122.701C70.7813 122.768 70.8115 122.832 70.8617 122.877C70.9119 122.923 70.9782 122.947 71.0461 122.944C71.114 122.942 71.1782 122.912 71.2247 122.863L71.2384 122.849C71.6498 122.389 72.1179 121.982 72.6315 121.637C73.1398 121.293 73.6977 121.026 74.2863 120.848C75.4542 120.484 76.6982 120.433 77.8919 120.702L77.9214 120.709C78.0215 120.733 78.1272 120.716 78.2151 120.663C78.3031 120.61 78.3662 120.524 78.3904 120.425C78.4147 120.325 78.3982 120.22 78.3446 120.133C78.2909 120.046 78.2046 119.983 78.1044 119.959L78.0897 119.956Z" fill="#0C0C0C"/>
<path d="M55.2623 128.312C63.1832 125.384 65.8112 119.951 66.6211 115.909C67.1446 113.213 67.0956 110.438 66.4772 107.762L66.2321 107.829C66.8409 110.47 66.8879 113.209 66.3699 115.869C65.5712 119.845 62.9799 125.191 55.1738 128.076L55.2623 128.312Z" fill="#0C0C0C"/>
<path d="M117.796 172.403L193.003 197.37L170.922 207.118L208.421 130.712L239.069 144.898L204.276 222.555C202.516 226.482 199.392 229.649 195.475 231.478C191.558 233.306 187.11 233.674 182.942 232.514L182.195 232.303L105.849 211.015L117.796 172.403Z" fill="#FBAF55"/>
<path d="M70.5172 184.021C53.1852 183.21 52.4556 168.599 52.4556 168.599C52.4556 168.599 43.8677 169.152 38.1583 169.917C28.8118 171.171 22.6459 174.321 17.7418 179.194C13.1773 183.727 10.3984 188.632 13.339 219.947C15.4682 242.621 13.9694 292.495 13.9694 292.495H119.59C119.59 292.495 126.966 220.442 127.84 210.236C129.509 190.752 134.223 186.45 124.672 176.413C117.745 169.134 99.8617 168.599 92.6638 168.6C92.5438 168.6 94.1213 185.126 70.5172 184.021Z" fill="#FBAF55"/>
<path d="M106.596 244.114L122.495 237.062C122.844 236.907 123.222 236.826 123.605 236.824C123.988 236.822 124.366 236.9 124.717 237.051C125.068 237.203 125.383 237.425 125.643 237.704C125.903 237.983 126.101 238.313 126.225 238.673C126.434 239.343 126.384 240.067 126.086 240.703C125.788 241.339 125.263 241.843 124.612 242.117L121.203 243.632L134.122 243.763C135.558 243.753 137.328 244.654 137.233 246.255C137.236 246.873 137.029 247.474 136.645 247.96C136.26 248.445 135.721 248.788 135.116 248.931C135.119 248.944 135.121 248.958 135.122 248.972C135.121 248.982 135.119 248.993 135.116 249.003L137.331 248.987C137.741 248.985 138.146 249.073 138.518 249.245C138.889 249.418 139.217 249.671 139.478 249.985C139.739 250.299 139.926 250.668 140.025 251.063C140.124 251.458 140.134 251.87 140.052 252.269C139.911 252.896 139.558 253.456 139.051 253.855C138.545 254.254 137.915 254.468 137.269 254.461L136.326 254.468C136.313 254.495 136.296 254.52 136.275 254.541C136.913 254.683 137.479 255.046 137.872 255.565C138.265 256.083 138.459 256.724 138.421 257.372C138.358 258.081 138.028 258.739 137.498 259.217C136.967 259.694 136.274 259.955 135.558 259.947L133.217 259.964C133.25 259.987 133.277 260.017 133.296 260.052C133.315 260.087 133.326 260.126 133.326 260.166C133.325 260.214 133.309 260.26 133.281 260.299C133.814 260.583 134.238 261.032 134.489 261.578C134.739 262.124 134.802 262.737 134.668 263.322C134.514 263.934 134.157 264.476 133.654 264.861C133.151 265.246 132.532 265.451 131.897 265.443L112.141 265.583C109.377 265.603 106.671 264.802 104.368 263.284C102.065 261.766 100.271 259.599 99.2167 257.062V257.062C98.307 254.874 98.2921 252.42 99.1749 250.222C100.058 248.024 101.769 246.254 103.945 245.288L106.596 244.114Z" fill="#E98862"/>
<g opacity="0.2">
<path opacity="0.2" d="M122.327 248.864C122.328 248.93 122.355 248.994 122.403 249.04C122.45 249.087 122.514 249.113 122.581 249.113L134.867 249.223C134.934 249.223 134.999 249.197 135.047 249.15C135.095 249.103 135.123 249.039 135.123 248.972C135.124 248.906 135.098 248.841 135.051 248.793C135.003 248.746 134.939 248.718 134.872 248.718L122.585 248.608C122.518 248.608 122.453 248.634 122.406 248.682C122.358 248.729 122.331 248.793 122.331 248.86L122.327 248.864Z" fill="#0C0C0C"/>
</g>
<g opacity="0.2">
<path opacity="0.2" d="M122.13 254.244C122.131 254.311 122.158 254.374 122.206 254.42C122.254 254.467 122.318 254.493 122.385 254.493L136.096 254.616C136.164 254.616 136.228 254.589 136.276 254.542C136.324 254.494 136.35 254.43 136.35 254.363C136.348 254.297 136.321 254.234 136.273 254.187C136.226 254.14 136.163 254.113 136.096 254.111L122.385 253.988C122.318 253.988 122.253 254.015 122.205 254.062C122.158 254.109 122.131 254.174 122.131 254.241L122.13 254.244Z" fill="#0C0C0C"/>
</g>
<g opacity="0.2">
<path opacity="0.2" d="M121.881 260.07C121.882 260.136 121.909 260.2 121.957 260.246C122.004 260.293 122.068 260.319 122.135 260.319L133.072 260.417C133.106 260.417 133.139 260.411 133.17 260.399C133.201 260.386 133.229 260.368 133.253 260.345C133.277 260.321 133.296 260.294 133.309 260.263C133.322 260.233 133.329 260.2 133.329 260.167C133.329 260.134 133.323 260.101 133.31 260.07C133.298 260.039 133.279 260.011 133.256 259.988C133.233 259.964 133.205 259.945 133.174 259.932C133.143 259.919 133.11 259.912 133.077 259.912L122.14 259.814C122.072 259.814 122.008 259.841 121.96 259.888C121.912 259.935 121.885 260 121.885 260.067L121.881 260.07Z" fill="#0C0C0C"/>
</g>
<path d="M111.146 272.23L22.9952 292.132C20.0668 292.448 17.1043 292.087 14.3403 291.075C11.5763 290.063 9.08591 288.43 7.06451 286.302C5.04311 284.174 3.5457 281.609 2.68977 278.81C1.83385 276.011 1.64268 273.052 2.13129 270.167L12.219 189.58C12.6344 187.128 13.532 184.781 14.8606 182.673C16.1892 180.566 17.9228 178.739 19.9624 177.296C22.002 175.854 24.3076 174.825 26.7477 174.267C29.1878 173.71 31.7145 173.636 34.1836 174.048C36.6527 174.461 39.0158 175.352 41.138 176.672C43.2602 177.991 45.0999 179.713 46.5521 181.739C48.0043 183.764 49.0406 186.054 49.6018 188.478C50.1629 190.901 50.238 193.41 49.8226 195.863L44.9628 253.542L106.207 239.777L111.146 272.23Z" fill="#FBAF55"/>
<path d="M32.57 255.81C32.5061 255.81 32.4447 255.785 32.3981 255.742C32.3514 255.699 32.3228 255.64 32.3181 255.576C32.3133 255.513 32.3328 255.45 32.3725 255.401C32.4122 255.351 32.4692 255.318 32.5324 255.308L44.8159 252.703C44.849 252.698 44.8828 252.699 44.9154 252.707C44.9479 252.715 44.9786 252.729 45.0055 252.749C45.0325 252.768 45.0552 252.793 45.0723 252.822C45.0894 252.851 45.1006 252.882 45.1052 252.915C45.1151 252.981 45.0982 253.049 45.0581 253.103C45.0181 253.156 44.9582 253.192 44.8917 253.202L32.6081 255.807C32.5955 255.809 32.5827 255.81 32.57 255.81V255.81Z" fill="#0C0C0C"/>
<path d="M25.6401 292.495C25.5727 292.499 25.5063 292.477 25.4556 292.433C25.4049 292.388 25.374 292.326 25.3697 292.259C25.3653 292.192 25.388 292.126 25.4326 292.076C25.4772 292.025 25.5402 291.994 25.6076 291.99L110.593 272.113L105.778 240.15L44.899 253.203C44.8596 253.208 44.8196 253.204 44.7821 253.191C44.7447 253.178 44.7107 253.156 44.6829 253.128C44.6552 253.1 44.6345 253.065 44.6227 253.027C44.6109 252.99 44.6082 252.95 44.6148 252.911L48.0292 219.954C48.0344 219.921 48.0461 219.889 48.0638 219.861C48.0814 219.833 48.1046 219.808 48.1319 219.789C48.1592 219.769 48.1902 219.756 48.223 219.749C48.2557 219.741 48.2896 219.741 48.3226 219.747C48.389 219.758 48.4483 219.795 48.4874 219.849C48.5265 219.904 48.5422 219.972 48.531 220.038L45.1755 252.656L105.896 239.594C105.928 239.584 105.963 239.582 105.996 239.586C106.03 239.591 106.062 239.602 106.091 239.619C106.121 239.636 106.146 239.659 106.167 239.686C106.187 239.712 106.202 239.743 106.21 239.776L111.149 272.229C111.164 272.293 111.154 272.36 111.121 272.417C111.087 272.473 111.033 272.515 110.969 272.532L25.6742 292.493C25.6629 292.495 25.6515 292.495 25.6401 292.495Z" fill="#0C0C0C"/>
<path d="M90.8027 139.249C87.3969 140.969 83.5113 141.513 79.7596 140.795C79.6297 140.771 79.4955 140.783 79.3726 140.832C79.2498 140.88 79.1434 140.963 79.066 141.069C78.9885 141.176 78.9432 141.302 78.9353 141.433C78.9274 141.564 78.9573 141.695 79.0214 141.809C80.1399 143.767 82.7933 147.111 87.344 145.748C90.2826 144.867 91.3939 141.864 91.8057 140.007C91.8338 139.879 91.8243 139.745 91.7785 139.622C91.7327 139.499 91.6525 139.391 91.5471 139.311C91.4418 139.232 91.3158 139.184 91.184 139.173C91.0521 139.162 90.9198 139.188 90.8027 139.249V139.249Z" fill="white"/>
<path d="M91.0168 124.206C91.9257 124.206 92.6625 123.474 92.6625 122.571C92.6625 121.669 91.9257 120.937 91.0168 120.937C90.1079 120.937 89.3711 121.669 89.3711 122.571C89.3711 123.474 90.1079 124.206 91.0168 124.206Z" fill="#0C0C0C"/>
<path d="M75.2028 126.956C76.1117 126.956 76.8485 126.224 76.8485 125.321C76.8485 124.419 76.1117 123.687 75.2028 123.687C74.2939 123.687 73.5571 124.419 73.5571 125.321C73.5571 126.224 74.2939 126.956 75.2028 126.956Z" fill="#0C0C0C"/>
<path d="M127.602 217.334C127.592 217.334 127.581 217.334 127.571 217.334C127.538 217.33 127.506 217.319 127.477 217.303C127.447 217.286 127.422 217.264 127.401 217.238C127.381 217.212 127.366 217.182 127.357 217.15C127.348 217.118 127.345 217.085 127.35 217.052L128.985 203.885C128.989 203.852 128.999 203.82 129.015 203.79C129.031 203.761 129.053 203.736 129.08 203.715C129.106 203.695 129.137 203.68 129.169 203.671C129.202 203.663 129.236 203.661 129.269 203.666C129.336 203.674 129.396 203.708 129.438 203.761C129.479 203.814 129.498 203.881 129.489 203.947L127.854 217.114C127.846 217.175 127.816 217.23 127.77 217.271C127.723 217.311 127.664 217.334 127.602 217.334V217.334Z" fill="#0C0C0C"/>
</svg>
