<svg width="412" height="277" viewBox="0 0 412 277" fill="none" xmlns="http://www.w3.org/2000/svg">
<path opacity="0.1" d="M378.583 130.424C365.565 80.7414 296.562 82.5177 258.181 68.8436C204.774 46.8505 156.118 -5.00944 96.3359 0.391777C-17.3405 10.6643 -17.7034 158.063 30.0479 209.536C111.993 297.869 234.933 268.817 330.664 217.405C382.47 189.581 381.444 149.184 378.583 130.424Z" fill="white"/>
<path opacity="0.1" d="M378.583 130.424C365.565 80.7414 296.562 82.5177 258.181 68.8436C204.774 46.8505 156.118 -5.00944 96.3359 0.391777C-17.3405 10.6643 -17.7034 158.063 30.0479 209.536C111.993 297.869 234.933 268.817 330.664 217.405C382.47 189.581 381.444 149.184 378.583 130.424Z" fill="#FBAF55"/>
<path d="M70.5291 238.481L302.769 238.481C308.472 238.481 313.096 233.498 313.096 227.35V44.0606C313.096 37.9128 308.472 32.9291 302.769 32.9291L70.5291 32.9291C64.8259 32.9291 60.2026 37.9128 60.2026 44.0606L60.2026 227.35C60.2026 233.498 64.8259 238.481 70.5291 238.481Z" fill="white"/>
<path d="M59.8574 227.352V44.0602C59.8612 41.011 60.9867 38.0878 62.9871 35.9319C64.9876 33.776 67.6996 32.5634 70.5284 32.5601H302.768C305.597 32.5634 308.31 33.7763 310.31 35.9327C312.311 38.089 313.436 41.0127 313.439 44.0624V227.352C313.436 230.401 312.311 233.325 310.31 235.481C308.31 237.638 305.598 238.851 302.768 238.854H70.5284C67.6992 238.851 64.9869 237.638 62.9864 235.481C60.9859 233.325 59.8606 230.401 59.8574 227.352V227.352ZM70.5284 33.2991C67.8819 33.3023 65.3446 34.437 63.4732 36.4542C61.6018 38.4715 60.5492 41.2065 60.5462 44.0593V227.352C60.5491 230.204 61.6017 232.94 63.4731 234.957C65.3445 236.974 67.8818 238.109 70.5284 238.112H302.768C305.415 238.109 307.952 236.974 309.824 234.957C311.695 232.94 312.748 230.205 312.751 227.352V44.0602C312.748 41.2072 311.696 38.4718 309.824 36.4544C307.953 34.4369 305.415 33.3022 302.768 33.2991H70.5284Z" fill="#292A2E"/>
<path d="M60.2021 44.0598V55.2609H313.093V44.0598C313.093 41.1077 312.005 38.2764 310.069 36.1888C308.132 34.1013 305.506 32.9285 302.767 32.9283H70.5287C67.7899 32.9283 65.1633 34.1011 63.2267 36.1887C61.2901 38.2762 60.2021 41.1076 60.2021 44.0598Z" fill="#292A2E"/>
<path d="M198.738 124.953C193.806 126.113 189.442 121.642 187.221 117.371C184.606 112.345 183.53 106.484 180.256 101.84C177.318 97.7494 173.041 95.0233 168.3 94.2199C166.147 93.8126 163.941 93.8635 161.807 94.3699C160.815 94.6361 159.845 94.994 158.91 95.4397C154.862 97.3433 151.591 100.78 149.049 104.609C146.044 109.137 143.968 114.362 142.545 119.696C140.938 125.825 140.118 132.163 140.108 138.532C140.063 145.289 140.903 152.019 142.601 158.524C144.356 165.296 147.156 171.701 150.884 177.471C154.871 183.568 159.909 188.781 165.724 192.825C168.945 195.056 172.361 196.941 175.923 198.453C180.187 200.199 184.692 201.167 189.251 201.317C199.212 201.782 209.324 199.278 218.336 194.763C220.559 193.651 222.717 192.396 224.801 191.005C225.461 190.564 224.854 189.435 224.19 189.879C215.653 195.556 205.993 198.979 195.996 199.867C191.315 200.323 186.598 200.047 181.99 199.046C178.047 198.076 174.247 196.526 170.696 194.441C164.512 190.963 159.02 186.214 154.528 180.461C150.428 175.128 147.226 169.061 145.068 162.537C142.975 156.229 141.746 149.626 141.418 142.936C141.081 136.605 141.537 130.254 142.773 124.054C143.834 118.501 145.702 113.165 148.307 108.24C150.52 104.179 153.425 100.397 157.131 97.9214C158.771 96.7837 160.589 95.9757 162.497 95.5367C167.06 94.5368 172.063 96.0431 175.79 98.9369C177.711 100.451 179.319 102.378 180.513 104.597C181.868 107.068 182.808 109.761 183.799 112.415C184.761 114.989 185.755 117.601 187.261 119.871C188.645 122.046 190.475 123.849 192.609 125.139C194.572 126.316 196.861 126.697 199.061 126.211C199.822 126.033 199.5 124.777 198.739 124.954L198.738 124.953Z" fill="#FBAF55"/>
<path d="M318.642 171.013C318.734 171 319.761 189.354 339.54 187.753C353.233 186.648 358.115 170.987 358.43 170.987C356.953 170.649 354.467 170.157 353.811 169.78C351.655 168.531 348.987 167.232 348.292 162.718C347.892 160.117 348.571 146.808 348.362 144.176L327.343 149.235C327.637 154.794 329.692 167.681 322.488 169.962C321.289 170.337 319.997 170.684 318.642 171.013Z" fill="#E98862"/>
<path opacity="0.52" d="M327.048 164.694C327.378 163.55 327.59 162.371 327.681 161.177C327.912 158.454 327.866 155.711 327.543 152.998C331.815 152.377 335.84 150.476 339.16 147.512C339.551 149.066 341.697 155.855 341.103 157.332C339.979 160.123 334.7 164.694 327.048 164.694Z" fill="#0C0C0C"/>
<path d="M319.847 124.729C319.847 124.729 314.873 118.657 315.496 107.329C315.978 98.5587 322.229 105.681 322.229 105.681C322.229 105.681 322.632 99.3698 326.669 100.891C330.707 102.412 331.814 109.378 331.814 109.378" fill="#0C0C0C"/>
<path d="M348.003 106.323C348.003 106.323 368.163 113.228 355.027 141.696L353.179 141.428L349.428 140.883" fill="#0C0C0C"/>
<path d="M330.016 158.792C338.29 159.792 349.061 156.39 351.447 144.531L353.599 133.831C355.985 121.972 352.141 111.009 341.783 108.586C331.425 106.165 321.749 113.968 319.362 125.827L318.409 130.565C318.108 132.198 317.91 133.851 317.818 135.512C317.544 139.903 317.142 146.579 319.003 151.564C320.762 156.269 324.73 158.155 330.016 158.792Z" fill="#E98862"/>
<path d="M322.268 131.294C322.992 131.294 323.578 130.662 323.578 129.882C323.578 129.102 322.992 128.47 322.268 128.47C321.545 128.47 320.958 129.102 320.958 129.882C320.958 130.662 321.545 131.294 322.268 131.294Z" fill="#0C0C0C"/>
<path d="M334.753 133.456C335.476 133.456 336.063 132.824 336.063 132.044C336.063 131.264 335.476 130.632 334.753 130.632C334.029 130.632 333.443 131.264 333.443 132.044C333.443 132.824 334.029 133.456 334.753 133.456Z" fill="#0C0C0C"/>
<path opacity="0.5" d="M329.61 147.818C327.897 147.664 326.242 147.079 324.778 146.11C324.746 146.091 324.718 146.066 324.696 146.036C324.673 146.005 324.657 145.97 324.647 145.933C324.637 145.895 324.635 145.856 324.639 145.818C324.644 145.779 324.656 145.742 324.674 145.709C324.692 145.675 324.717 145.646 324.746 145.623C324.775 145.6 324.808 145.583 324.843 145.574C324.878 145.565 324.914 145.563 324.95 145.57C324.985 145.576 325.019 145.59 325.05 145.611C328.215 147.616 331.283 147.813 333.921 146.18C333.975 146.146 334.03 146.114 334.086 146.085C334.152 146.059 334.224 146.061 334.287 146.091C334.351 146.121 334.402 146.177 334.428 146.246C334.455 146.315 334.456 146.393 334.43 146.463C334.405 146.533 334.355 146.589 334.292 146.62C334.271 146.631 334.236 146.653 334.189 146.682C332.801 147.544 331.207 147.939 329.61 147.818V147.818Z" fill="#0C0C0C"/>
<path opacity="0.52" d="M329.364 150.549C329.054 150.527 328.746 150.476 328.444 150.397C328.375 150.379 328.315 150.332 328.277 150.267C328.24 150.202 328.229 150.123 328.245 150.049C328.262 149.974 328.305 149.909 328.366 149.869C328.426 149.829 328.499 149.817 328.568 149.834C330.386 150.301 331.375 149.513 331.416 149.479C331.473 149.432 331.544 149.411 331.614 149.421C331.685 149.431 331.749 149.47 331.793 149.531C331.836 149.592 331.856 149.669 331.847 149.745C331.838 149.821 331.801 149.89 331.745 149.937C331.04 150.431 330.199 150.647 329.364 150.549V150.549Z" fill="#0C0C0C"/>
<path d="M350.076 147.992C353.224 148.728 356.506 145.695 357.189 142.302C357.872 138.908 355.697 136.441 352.548 135.705L350.469 137.599L347.37 147.36L350.076 147.992Z" fill="#E98862"/>
<path d="M347.97 141.838C347.97 141.838 350.081 124.78 345.545 122.702C342.524 121.319 333.971 124.461 327.165 121.451C324.188 120.135 321.092 120.316 320.495 121.827C320.258 122.426 320.024 113.029 326.16 107.283C331.046 102.708 343.973 103.951 349.386 106.99C364.377 115.408 353.06 136.589 353.06 136.589L351.254 142.234L347.97 141.838Z" fill="#0C0C0C"/>
<g opacity="0.52">
<path opacity="0.52" d="M326.895 142.965C326.888 142.965 326.882 142.965 326.875 142.961C325.86 142.727 324.182 142.212 324.343 141.393C324.479 140.715 327.655 133.792 328.017 133.003C328.031 132.968 328.052 132.937 328.079 132.911C328.105 132.885 328.135 132.865 328.169 132.853C328.202 132.84 328.238 132.834 328.273 132.836C328.309 132.839 328.343 132.849 328.375 132.866C328.407 132.883 328.435 132.906 328.458 132.935C328.482 132.964 328.499 132.998 328.51 133.035C328.521 133.071 328.524 133.109 328.521 133.148C328.518 133.186 328.507 133.223 328.491 133.256C327.082 136.322 324.953 141.05 324.861 141.51C324.923 141.728 325.936 142.159 326.986 142.402C327.052 142.418 327.11 142.461 327.147 142.522C327.185 142.582 327.199 142.656 327.188 142.728C327.176 142.8 327.14 142.865 327.085 142.908C327.031 142.952 326.963 142.971 326.896 142.963L326.895 142.965Z" fill="#0C0C0C"/>
</g>
<path d="M326.73 125.623C325.734 125.076 324.619 124.828 323.504 124.907C322.955 124.941 322.415 125.064 321.901 125.272C321.392 125.475 320.909 125.746 320.463 126.08C320.39 126.131 320.339 126.211 320.319 126.303C320.3 126.394 320.315 126.491 320.36 126.571C320.406 126.651 320.478 126.709 320.563 126.733C320.647 126.756 320.737 126.743 320.812 126.697L320.836 126.683C321.245 126.412 321.683 126.198 322.141 126.045C322.593 125.892 323.064 125.813 323.537 125.812C324.473 125.801 325.395 126.058 326.209 126.555L326.24 126.574C326.355 126.648 326.493 126.669 326.622 126.633C326.752 126.597 326.863 126.508 326.931 126.383C327 126.259 327.019 126.111 326.986 125.971C326.953 125.832 326.869 125.712 326.754 125.638L326.73 125.623Z" fill="#0C0C0C"/>
<path d="M334.184 127.832C335.092 127.585 336.044 127.601 336.944 127.878C337.4 128.015 337.834 128.225 338.232 128.502C338.636 128.78 339.007 129.112 339.334 129.49L339.352 129.509C339.414 129.575 339.497 129.612 339.584 129.613C339.671 129.614 339.754 129.579 339.818 129.515C339.881 129.451 339.919 129.363 339.923 129.27C339.928 129.176 339.899 129.085 339.842 129.014C339.494 128.565 339.095 128.166 338.654 127.825C338.209 127.478 337.718 127.205 337.198 127.015C336.141 126.622 335.006 126.542 333.911 126.785C333.782 126.818 333.671 126.904 333.6 127.024C333.53 127.144 333.506 127.29 333.533 127.429C333.561 127.568 333.638 127.69 333.748 127.768C333.858 127.847 333.993 127.876 334.122 127.849L334.148 127.842L334.184 127.832Z" fill="#0C0C0C"/>
<path d="M337.093 109.762C338.512 106.213 337.848 102.494 335.612 101.455C333.375 100.417 330.412 102.451 328.994 106C327.575 109.549 328.238 113.268 330.475 114.307C332.712 115.345 335.675 113.311 337.093 109.762Z" fill="#0C0C0C"/>
<path d="M339.932 183.178C353.681 182.479 354.259 169.9 354.259 169.9C354.259 169.9 361.071 170.375 365.6 171.035C373.014 172.117 377.905 174.826 381.797 179.022C385.417 182.925 387.621 187.147 385.289 214.107C383.6 233.626 384.789 276.565 384.789 276.565H301.816C301.816 276.565 296.84 220.286 296.146 211.499C294.823 194.724 293.748 180.11 296.979 176.628C303.621 169.468 316.658 169.9 322.368 169.901C322.461 169.901 321.21 184.129 339.932 183.178Z" fill="#FBAF55"/>
<path d="M317.201 243.792L305.132 236.553C304.867 236.394 304.574 236.296 304.271 236.266C303.969 236.236 303.664 236.273 303.377 236.377C303.089 236.481 302.824 236.648 302.599 236.868C302.375 237.088 302.195 237.356 302.072 237.655C301.86 238.214 301.848 238.839 302.039 239.407C302.23 239.975 302.61 240.446 303.105 240.73L305.694 242.281L295.476 241.427C294.342 241.311 292.881 241.949 292.844 243.33C292.797 243.861 292.919 244.392 293.189 244.838C293.458 245.284 293.86 245.619 294.329 245.787C294.325 245.798 294.323 245.81 294.321 245.822C294.322 245.831 294.323 245.84 294.324 245.849L292.575 245.669C292.251 245.636 291.924 245.682 291.618 245.802C291.313 245.923 291.036 246.115 290.808 246.365C290.58 246.616 290.407 246.918 290.301 247.249C290.195 247.581 290.159 247.934 290.196 248.283C290.263 248.831 290.504 249.337 290.876 249.717C291.249 250.096 291.731 250.327 292.243 250.369L292.987 250.446C292.995 250.47 293.007 250.492 293.022 250.512C292.507 250.586 292.034 250.855 291.687 251.27C291.34 251.686 291.141 252.221 291.126 252.78C291.127 253.392 291.341 253.981 291.727 254.43C292.113 254.879 292.642 255.154 293.208 255.201L295.057 255.391C295.029 255.408 295.005 255.432 294.988 255.461C294.97 255.49 294.959 255.523 294.956 255.558C294.954 255.599 294.963 255.64 294.982 255.675C294.542 255.878 294.175 256.232 293.939 256.682C293.703 257.132 293.61 257.652 293.675 258.164C293.754 258.701 293.998 259.192 294.369 259.56C294.739 259.928 295.214 260.15 295.716 260.191L311.317 261.791C313.499 262.015 315.694 261.531 317.619 260.401C319.545 259.271 321.114 257.548 322.124 255.451V255.451C322.996 253.643 323.179 251.539 322.635 249.588C322.091 247.636 320.863 245.99 319.211 245L317.201 243.792Z" fill="#E98862"/>
<g opacity="0.2">
<path opacity="0.2" d="M304.442 246.688C304.436 246.744 304.411 246.796 304.37 246.833C304.33 246.869 304.278 246.887 304.225 246.883L294.51 246.057C294.483 246.054 294.457 246.046 294.434 246.033C294.41 246.02 294.389 246.002 294.372 245.981C294.354 245.959 294.341 245.934 294.333 245.906C294.325 245.879 294.322 245.851 294.324 245.822C294.326 245.793 294.333 245.766 294.345 245.74C294.357 245.715 294.374 245.692 294.394 245.673C294.414 245.655 294.438 245.641 294.463 245.632C294.488 245.623 294.515 245.62 294.541 245.622L304.257 246.448C304.283 246.45 304.309 246.458 304.333 246.471C304.356 246.484 304.377 246.502 304.395 246.523C304.412 246.545 304.425 246.57 304.433 246.597C304.441 246.625 304.444 246.653 304.442 246.682L304.442 246.688Z" fill="#0C0C0C"/>
<path opacity="0.2" d="M304.221 251.316C304.216 251.373 304.19 251.425 304.15 251.461C304.109 251.497 304.057 251.515 304.005 251.511L293.162 250.589C293.135 250.587 293.11 250.579 293.086 250.566C293.062 250.553 293.041 250.535 293.024 250.513C293.007 250.492 292.994 250.466 292.986 250.439C292.978 250.412 292.975 250.384 292.977 250.355C292.982 250.298 293.008 250.246 293.048 250.209C293.089 250.172 293.141 250.153 293.194 250.156L304.036 251.077C304.063 251.079 304.089 251.087 304.112 251.1C304.136 251.113 304.157 251.131 304.174 251.153C304.191 251.175 304.204 251.2 304.212 251.227C304.22 251.254 304.224 251.283 304.222 251.311L304.221 251.316Z" fill="#0C0C0C"/>
<path opacity="0.2" d="M304.01 256.331C304.005 256.387 303.979 256.439 303.939 256.476C303.898 256.512 303.846 256.53 303.794 256.525L295.145 255.79C295.091 255.786 295.042 255.758 295.007 255.714C294.972 255.67 294.955 255.613 294.959 255.556C294.963 255.498 294.989 255.444 295.029 255.407C295.07 255.369 295.123 255.351 295.177 255.355L303.826 256.091C303.852 256.093 303.878 256.101 303.901 256.114C303.925 256.127 303.946 256.144 303.963 256.166C303.98 256.188 303.993 256.213 304.002 256.24C304.01 256.267 304.013 256.296 304.011 256.324L304.01 256.331Z" fill="#0C0C0C"/>
</g>
<path d="M310.347 267.135L385.693 276.252C388.016 276.525 390.366 276.214 392.558 275.343C394.751 274.472 396.726 273.065 398.329 271.233C399.933 269.401 401.121 267.193 401.799 264.783C402.478 262.373 402.63 259.827 402.242 257.343L386.175 187.964C385.846 185.853 385.134 183.832 384.08 182.018C383.026 180.203 381.651 178.63 380.033 177.389C376.766 174.881 372.708 173.875 368.753 174.593C364.798 175.31 361.269 177.692 358.943 181.214C356.617 184.735 355.684 189.109 356.349 193.373L368.671 243.901L313.922 238.011L310.347 267.135Z" fill="#FBAF55"/>
<path d="M378.493 245.417C378.546 245.422 378.599 245.403 378.64 245.365C378.68 245.327 378.705 245.274 378.709 245.216C378.713 245.158 378.696 245.101 378.661 245.058C378.626 245.014 378.576 244.987 378.522 244.983L369.131 243.467C369.105 243.462 369.078 243.463 369.052 243.47C369.026 243.476 369.002 243.489 368.981 243.506C368.959 243.523 368.941 243.544 368.928 243.569C368.914 243.593 368.905 243.621 368.902 243.649C368.894 243.706 368.907 243.764 368.939 243.81C368.971 243.857 369.018 243.888 369.071 243.896L378.463 245.412C378.473 245.415 378.483 245.417 378.493 245.417V245.417Z" fill="#0C0C0C"/>
<path d="M383.595 276.565C383.649 276.569 383.702 276.55 383.742 276.512C383.782 276.474 383.807 276.42 383.81 276.362C383.813 276.304 383.795 276.248 383.76 276.204C383.725 276.161 383.675 276.134 383.621 276.131L310.769 266.97L314.3 238.279L368.671 243.899C368.702 243.903 368.734 243.9 368.764 243.889C368.794 243.877 368.821 243.859 368.843 243.835C368.865 243.81 368.881 243.781 368.89 243.748C368.9 243.715 368.902 243.681 368.897 243.647L363.013 214.113C363.009 214.085 363 214.058 362.986 214.033C362.972 214.009 362.953 213.988 362.932 213.971C362.91 213.954 362.886 213.943 362.86 213.936C362.834 213.93 362.807 213.93 362.781 213.935C362.728 213.944 362.681 213.976 362.65 214.023C362.619 214.07 362.606 214.128 362.615 214.185L368.453 243.429L314.147 237.818C314.12 237.815 314.093 237.817 314.067 237.824C314.041 237.832 314.017 237.845 313.996 237.863C313.975 237.881 313.957 237.903 313.944 237.929C313.931 237.954 313.923 237.982 313.92 238.011L310.345 267.136C310.339 267.193 310.354 267.249 310.387 267.294C310.419 267.339 310.467 267.368 310.519 267.375L383.567 276.565C383.577 276.566 383.586 276.566 383.595 276.565Z" fill="#0C0C0C"/>
<path d="M228.72 126.747C228.626 126.443 228.475 126.164 228.277 125.925C228.08 125.686 227.839 125.493 227.57 125.358C227.301 125.223 227.009 125.148 226.712 125.139C226.415 125.129 226.12 125.185 225.844 125.303C225.317 125.55 224.896 126.004 224.668 126.573C224.44 127.142 224.42 127.783 224.613 128.366L225.549 131.384L218.542 123.323C217.776 122.41 216.299 121.821 215.407 122.813C215.042 123.17 214.799 123.651 214.719 124.176C214.64 124.701 214.727 125.24 214.968 125.704C214.958 125.71 214.948 125.717 214.939 125.726C214.934 125.733 214.929 125.74 214.924 125.748L214.886 125.7C214.669 125.442 214.401 125.238 214.102 125.105C213.803 124.971 213.48 124.911 213.157 124.928C212.833 124.945 212.518 125.039 212.232 125.204C211.947 125.369 211.699 125.599 211.506 125.88C211.208 126.334 211.064 126.885 211.099 127.44C211.134 127.995 211.346 128.52 211.699 128.926L212.085 129.399C212.075 129.423 212.069 129.449 212.068 129.475C211.653 129.179 211.152 129.056 210.659 129.129C210.166 129.202 209.714 129.467 209.388 129.873C208.997 130.327 208.781 130.925 208.784 131.545C208.786 132.165 209.007 132.76 209.402 133.211C209.34 133.198 209.366 133.324 209.315 133.373C209.288 133.402 209.269 133.439 209.261 133.479C208.821 133.313 208.343 133.303 207.897 133.451C207.451 133.599 207.061 133.896 206.783 134.3C206.485 134.754 206.341 135.305 206.376 135.86C206.411 136.415 206.623 136.94 206.976 137.346L217.49 149.873C218.961 151.626 220.884 152.865 223.012 153.431C225.14 153.998 227.377 153.867 229.436 153.054L236.065 150.438L228.72 126.747Z" fill="#E98862"/>
<path opacity="0.2" d="M210.065 141.139C210.453 141.586 210.98 141.865 211.547 141.922C211.62 141.929 211.693 141.933 211.768 141.933C212.128 141.938 212.484 141.852 212.807 141.682C213.131 141.511 213.413 141.261 213.63 140.951C213.847 140.642 213.994 140.282 214.059 139.9C214.123 139.518 214.104 139.125 214.002 138.753C214.331 138.993 214.71 139.142 215.105 139.184C215.181 139.192 215.257 139.195 215.334 139.196C215.709 139.201 216.079 139.11 216.415 138.93C216.751 138.751 217.043 138.487 217.266 138.163C217.49 137.838 217.638 137.46 217.7 137.062C217.761 136.663 217.734 136.254 217.62 135.869C217.933 136.082 218.287 136.215 218.656 136.255C218.731 136.263 218.807 136.267 218.884 136.267C219.213 136.269 219.54 136.198 219.843 136.059C220.146 135.919 220.419 135.714 220.645 135.456C221.065 134.944 221.291 134.279 221.277 133.595C221.262 132.912 221.009 132.259 220.567 131.768L215.906 126.359C215.888 126.338 215.866 126.32 215.842 126.308C215.818 126.295 215.792 126.288 215.765 126.287C215.738 126.285 215.711 126.29 215.686 126.3C215.661 126.31 215.638 126.325 215.618 126.345C215.599 126.364 215.583 126.388 215.572 126.414C215.561 126.441 215.555 126.469 215.554 126.498C215.553 126.527 215.558 126.556 215.568 126.583C215.577 126.61 215.592 126.634 215.611 126.655L220.273 132.065C220.645 132.475 220.86 133.021 220.875 133.594C220.89 134.167 220.703 134.725 220.353 135.157C220.164 135.371 219.937 135.541 219.684 135.657C219.432 135.774 219.161 135.833 218.887 135.833C218.612 135.832 218.341 135.771 218.089 135.654C217.838 135.536 217.611 135.365 217.423 135.15C217.388 135.111 217.125 134.821 217.019 134.701L212.477 129.347C212.441 129.304 212.391 129.278 212.338 129.275C212.285 129.271 212.232 129.291 212.192 129.329C212.152 129.368 212.128 129.422 212.125 129.479C212.122 129.537 212.14 129.593 212.176 129.636L216.722 134.995C217.094 135.404 217.309 135.95 217.324 136.523C217.339 137.096 217.153 137.654 216.803 138.086C216.614 138.3 216.387 138.47 216.135 138.586C215.883 138.702 215.611 138.762 215.337 138.762C215.063 138.761 214.792 138.701 214.541 138.584C214.289 138.467 214.062 138.296 213.874 138.081L209.656 133.259C209.62 133.218 209.57 133.194 209.518 133.192C209.465 133.19 209.414 133.21 209.375 133.248C209.336 133.287 209.313 133.339 209.309 133.396C209.306 133.452 209.323 133.508 209.358 133.551L213.108 137.864C213.467 138.259 213.675 138.786 213.689 139.339C213.704 139.892 213.524 140.431 213.186 140.847C213.004 141.053 212.784 141.218 212.541 141.33C212.298 141.442 212.037 141.499 211.772 141.499C211.508 141.499 211.246 141.44 211.004 141.328C210.761 141.215 210.542 141.05 210.36 140.843L210.065 141.139Z" fill="#0C0C0C"/>
<path d="M218.867 128.299C218.395 128.3 217.942 128.103 217.604 127.749C216.343 126.432 214.857 125.09 214.425 124.876C212.607 124 209.854 123.567 208.946 123.474C208.706 123.453 208.473 123.38 208.26 123.261C208.046 123.142 207.857 122.979 207.702 122.78C207.548 122.582 207.432 122.352 207.361 122.105C207.289 121.857 207.264 121.597 207.287 121.339C207.31 121.081 207.38 120.831 207.493 120.602C207.606 120.374 207.76 120.172 207.946 120.008C208.133 119.844 208.347 119.722 208.578 119.648C208.808 119.575 209.05 119.551 209.289 119.579C209.446 119.595 213.178 119.988 215.908 121.305C217.19 121.923 219.463 124.242 220.13 124.938C220.389 125.21 220.568 125.558 220.642 125.939C220.717 126.32 220.684 126.717 220.548 127.078C220.413 127.439 220.18 127.748 219.881 127.966C219.581 128.183 219.228 128.299 218.867 128.299Z" fill="#E98862"/>
<path d="M198.369 128.036L198.937 122.327L238.853 126.374L238.284 132.082L198.369 128.036Z" fill="#FBAF55"/>
<path opacity="0.5" d="M198.369 128.036L198.937 122.327L238.853 126.374L238.284 132.082L198.369 128.036Z" fill="white"/>
<path d="M242.675 132.577L243.244 126.869L238.853 126.375L238.285 132.083L242.675 132.577Z" fill="#262626"/>
<path d="M198.371 128.036C198.371 128.036 197.051 127.033 195.871 126.13C194.935 125.415 194.089 124.762 194.059 124.724C194.724 124.327 195.411 123.973 196.116 123.665C197.447 123.023 198.939 122.328 198.939 122.328L198.371 128.036Z" fill="#FBAF55"/>
<path opacity="0.9" d="M198.371 128.036C198.371 128.036 197.051 127.033 195.871 126.13C194.935 125.415 194.089 124.762 194.059 124.724C194.724 124.327 195.411 123.973 196.116 123.665C197.447 123.023 198.939 122.328 198.939 122.328L198.371 128.036Z" fill="white"/>
<path d="M195.87 126.13C194.935 125.414 194.088 124.762 194.059 124.724C194.724 124.326 195.411 123.973 196.115 123.665L195.87 126.13Z" fill="#262626"/>
<path d="M198.558 126.26L238.465 130.204L238.44 130.464L198.533 126.521L198.558 126.26Z" fill="white"/>
<path d="M198.78 124.026L238.686 127.97L238.661 128.231L198.755 124.287L198.78 124.026Z" fill="white"/>
<path d="M225.856 132.507L224.614 128.367C224.421 127.783 224.441 127.142 224.669 126.573C224.898 126.004 225.318 125.55 225.845 125.303C226.121 125.185 226.416 125.129 226.713 125.139C227.01 125.148 227.302 125.223 227.571 125.358C227.84 125.493 228.081 125.686 228.279 125.925C228.476 126.164 228.627 126.443 228.721 126.747L230.89 133.746" fill="#E98862"/>
<path d="M254.082 220.975C251.356 220.975 248.681 220.18 246.34 218.675C243.999 217.171 242.078 215.012 240.781 212.428L210.697 150.433L235.687 135.79L261.606 185.402L305.99 171.475L313.095 203.566L258.236 220.345C256.886 220.763 255.487 220.975 254.082 220.975Z" fill="#FBAF55"/>
<path d="M295.93 208.957C295.88 208.958 295.832 208.939 295.795 208.903C295.758 208.868 295.734 208.819 295.728 208.766L294.521 197.674C294.518 197.646 294.52 197.617 294.527 197.59C294.534 197.562 294.546 197.536 294.563 197.514C294.579 197.491 294.6 197.473 294.623 197.459C294.646 197.445 294.671 197.436 294.698 197.433C294.751 197.427 294.804 197.443 294.845 197.479C294.887 197.515 294.915 197.566 294.921 197.623L296.128 208.714C296.132 208.743 296.129 208.772 296.122 208.799C296.115 208.827 296.103 208.852 296.086 208.875C296.07 208.897 296.05 208.916 296.026 208.93C296.003 208.944 295.978 208.953 295.951 208.956C295.944 208.957 295.937 208.957 295.93 208.957V208.957Z" fill="#0C0C0C"/>
<path d="M109.257 66.5442H75.7463C73.2345 66.5442 71.1982 68.7392 71.1982 71.4468V219.59C71.1982 222.298 73.2345 224.493 75.7463 224.493H109.257C111.768 224.493 113.805 222.298 113.805 219.59V71.4468C113.805 68.7392 111.768 66.5442 109.257 66.5442Z" fill="#292A2E"/>
<path d="M70.4343 268.214C70.502 268.214 70.5684 268.194 70.626 268.155C70.6836 268.117 70.7301 268.062 70.7602 267.997L80.3116 246.879C80.3461 246.788 80.3469 246.685 80.314 246.593C80.2811 246.5 80.2168 246.425 80.1342 246.381C80.0516 246.338 79.9568 246.33 79.8689 246.359C79.7811 246.388 79.7067 246.452 79.6608 246.537L70.1093 267.654C70.0827 267.714 70.0705 267.78 70.0738 267.846C70.0771 267.912 70.0959 267.976 70.1283 268.032C70.1608 268.088 70.2058 268.134 70.2593 268.166C70.3129 268.198 70.373 268.215 70.4343 268.216V268.214Z" fill="#292A2E"/>
<path d="M54.2897 266.989C54.3697 266.989 54.4475 266.961 54.5109 266.908C54.5742 266.855 54.6197 266.781 54.6401 266.698L65.693 221.213C65.71 221.116 65.6921 221.015 65.643 220.931C65.5939 220.848 65.5172 220.787 65.4283 220.762C65.3394 220.737 65.245 220.749 65.1642 220.796C65.0833 220.843 65.0219 220.921 64.9925 221.015L53.9393 266.5C53.9254 266.558 53.924 266.618 53.9352 266.677C53.9463 266.735 53.9696 266.79 54.0034 266.837C54.0373 266.884 54.0806 266.923 54.1302 266.949C54.1798 266.975 54.2344 266.989 54.2897 266.989V266.989Z" fill="#292A2E"/>
<path d="M33.2045 269.002C33.2531 269.002 33.3011 268.992 33.3457 268.971C33.4339 268.931 33.5036 268.854 33.5396 268.758C33.5756 268.662 33.5749 268.555 33.5376 268.46L22.1126 239.455C22.0707 239.367 21.9996 239.3 21.9135 239.266C21.8273 239.232 21.7325 239.235 21.6482 239.274C21.5638 239.312 21.4961 239.384 21.4586 239.474C21.421 239.564 21.4166 239.666 21.446 239.759L32.871 268.764C32.8989 268.835 32.9453 268.895 33.0046 268.937C33.0639 268.98 33.1334 269.002 33.2045 269.002V269.002Z" fill="#292A2E"/>
<path d="M53.8782 275.723C53.908 275.723 53.9377 275.719 53.9665 275.711C54.0596 275.686 54.1395 275.622 54.1888 275.533C54.2382 275.444 54.2529 275.338 54.2299 275.238L40.9542 217.987C40.9264 217.892 40.8659 217.812 40.7853 217.763C40.7046 217.715 40.6097 217.701 40.52 217.725C40.4303 217.749 40.3525 217.809 40.3026 217.893C40.2527 217.977 40.2343 218.078 40.2513 218.176L53.5274 275.427C53.5471 275.511 53.5923 275.586 53.6558 275.64C53.7193 275.693 53.7976 275.722 53.8782 275.723V275.723Z" fill="#292A2E"/>
<path d="M49.1709 229.718C52.7729 221.556 50.4225 212.236 43.9212 208.903C37.4198 205.569 29.2294 209.483 25.6275 217.646C22.0255 225.808 24.3758 235.128 30.8772 238.461C37.3785 241.795 45.5689 237.881 49.1709 229.718Z" fill="#205198"/>
<path opacity="0.4" d="M49.1709 229.718C52.7729 221.556 50.4225 212.236 43.9212 208.903C37.4198 205.569 29.2294 209.483 25.6275 217.646C22.0255 225.808 24.3758 235.128 30.8772 238.461C37.3785 241.795 45.5689 237.881 49.1709 229.718Z" fill="white"/>
<path d="M26.8333 248.557C28.7145 243.53 27.0697 238.08 23.1597 236.385C19.2496 234.69 14.5549 237.391 12.6737 242.419C10.7926 247.447 12.4373 252.896 16.3474 254.591C20.2575 256.286 24.9522 253.585 26.8333 248.557Z" fill="#205198"/>
<path d="M72.8898 242.111C78.6966 240.212 81.6516 232.445 79.49 224.763C77.3284 217.081 70.8688 212.392 65.062 214.291C59.2552 216.189 56.3002 223.956 58.4618 231.638C60.6234 239.321 67.083 244.009 72.8898 242.111Z" fill="#205198"/>
<path d="M82.8767 258.459C86.1182 257.874 88.1266 253.413 87.3624 248.495C86.5983 243.577 83.3511 240.065 80.1096 240.65C76.868 241.235 74.8597 245.696 75.6238 250.614C76.3879 255.532 79.6352 259.045 82.8767 258.459Z" fill="#205198"/>
<path d="M22.5496 276.26H78.9434V261.111H22.5496V276.26Z" fill="#292A2E"/>
<path opacity="0.3" d="M22.5496 276.26H78.9434V261.111H22.5496V276.26Z" fill="white"/>
<path d="M49.2778 257.304C51.5697 251.169 49.5439 244.51 44.753 242.43C39.9621 240.35 34.2203 243.637 31.9283 249.772C29.6363 255.906 31.6621 262.565 36.4531 264.645C41.244 266.725 46.9858 263.438 49.2778 257.304Z" fill="#205198"/>
<path d="M61.794 263.125C66.5655 263.125 70.4336 258.955 70.4336 253.812C70.4336 248.668 66.5655 244.499 61.794 244.499C57.0224 244.499 53.1543 248.668 53.1543 253.812C53.1543 258.955 57.0224 263.125 61.794 263.125Z" fill="#205198"/>
<path opacity="0.68" d="M26.8333 248.557C28.7145 243.53 27.0697 238.08 23.1597 236.385C19.2496 234.69 14.5549 237.391 12.6737 242.419C10.7926 247.447 12.4373 252.896 16.3474 254.591C20.2575 256.286 24.9522 253.585 26.8333 248.557Z" fill="white"/>
<path opacity="0.68" d="M72.8898 242.111C78.6966 240.212 81.6516 232.445 79.49 224.763C77.3284 217.081 70.8688 212.392 65.062 214.291C59.2552 216.189 56.3002 223.956 58.4618 231.638C60.6234 239.321 67.083 244.009 72.8898 242.111Z" fill="white"/>
<path opacity="0.68" d="M82.8767 258.459C86.1182 257.874 88.1266 253.413 87.3624 248.495C86.5983 243.577 83.3511 240.065 80.1096 240.65C76.868 241.235 74.8597 245.696 75.6238 250.614C76.3879 255.532 79.6352 259.045 82.8767 258.459Z" fill="white"/>
<path opacity="0.68" d="M49.2778 257.304C51.5697 251.169 49.5439 244.51 44.753 242.43C39.9621 240.35 34.2203 243.637 31.9283 249.772C29.6363 255.906 31.6621 262.565 36.4531 264.645C41.244 266.725 46.9858 263.438 49.2778 257.304Z" fill="white"/>
<path opacity="0.4" d="M61.794 263.125C66.5655 263.125 70.4336 258.955 70.4336 253.812C70.4336 248.668 66.5655 244.499 61.794 244.499C57.0224 244.499 53.1543 248.668 53.1543 253.812C53.1543 258.955 57.0224 263.125 61.794 263.125Z" fill="white"/>
<path d="M34.0439 245.972C40.6015 247.947 44.0527 242.17 44.0527 242.17L44.0491 242.162C40.5511 241.038 36.6729 242.619 34.0439 245.972Z" fill="#292A2E"/>
<path d="M75.4648 248.338C78.6932 247.005 81.3683 244.464 83.0004 241.178C82.1158 240.669 81.1016 240.484 80.1109 240.651C77.3804 241.143 75.5265 244.387 75.4648 248.338Z" fill="#292A2E"/>
<path d="M60.2529 244.649C62.7677 247.091 65.91 248.655 69.2656 249.134C68.372 247.479 67.0277 246.161 65.4154 245.359C63.803 244.557 62.0006 244.308 60.2529 244.649V244.649Z" fill="#292A2E"/>
<path d="M0.403271 277H411.597C411.704 277 411.806 276.954 411.882 276.873C411.958 276.791 412 276.681 412 276.565C412 276.45 411.958 276.339 411.882 276.258C411.806 276.176 411.704 276.131 411.597 276.131H0.403271C0.296317 276.131 0.193743 276.176 0.118115 276.258C0.0424873 276.339 0 276.45 0 276.565C0 276.681 0.0424873 276.791 0.118115 276.873C0.193743 276.954 0.296317 277 0.403271 277V277Z" fill="#292A2E"/>
<path d="M86.3467 101.233H79.1273C78.1304 101.233 77.3223 102.104 77.3223 103.178V110.96C77.3223 112.035 78.1304 112.906 79.1273 112.906H86.3467C87.3436 112.906 88.1517 112.035 88.1517 110.96V103.178C88.1517 102.104 87.3436 101.233 86.3467 101.233Z" fill="#292A2E"/>
<path d="M86.3463 113.123H79.1278C78.5958 113.122 78.0858 112.894 77.7096 112.489C77.3334 112.084 77.1217 111.534 77.1211 110.96V103.179C77.1216 102.606 77.3332 102.056 77.7094 101.65C78.0856 101.245 78.5957 101.017 79.1278 101.016H86.3463C86.8784 101.017 87.3885 101.245 87.7647 101.65C88.1409 102.056 88.3525 102.606 88.353 103.179V110.96C88.3524 111.534 88.1407 112.084 87.7645 112.489C87.3883 112.894 86.8783 113.122 86.3463 113.123V113.123ZM79.1278 101.449C78.7027 101.45 78.2951 101.632 77.9945 101.956C77.6939 102.28 77.5248 102.72 77.5244 103.178V110.959C77.5248 111.417 77.6939 111.857 77.9945 112.181C78.2951 112.504 78.7027 112.687 79.1278 112.687H86.3463C86.7714 112.687 87.179 112.504 87.4796 112.181C87.7802 111.857 87.9493 111.417 87.9497 110.959V103.178C87.9493 102.72 87.7802 102.28 87.4796 101.956C87.179 101.632 86.7714 101.45 86.3463 101.449H79.1278Z" fill="white"/>
<path d="M106.096 106.857C106.096 103.634 103.671 101.021 100.681 101.021C97.6904 101.021 95.2661 103.634 95.2661 106.857C95.2661 110.081 97.6904 112.694 100.681 112.694C103.671 112.694 106.096 110.081 106.096 106.857Z" fill="#292A2E"/>
<path d="M100.682 112.911C99.571 112.911 98.4851 112.556 97.5615 111.891C96.6379 111.225 95.918 110.28 95.493 109.174C95.0679 108.067 94.9566 106.85 95.1733 105.676C95.3901 104.501 95.925 103.423 96.7104 102.576C97.4959 101.729 98.4966 101.153 99.5861 100.919C100.676 100.685 101.805 100.805 102.831 101.264C103.857 101.722 104.734 102.498 105.352 103.493C105.969 104.489 106.298 105.659 106.298 106.857C106.296 108.462 105.704 110.001 104.651 111.136C103.598 112.271 102.171 112.909 100.682 112.911V112.911ZM100.682 101.237C99.6507 101.237 98.6428 101.567 97.7856 102.184C96.9283 102.802 96.2601 103.68 95.8655 104.706C95.471 105.733 95.3677 106.863 95.5689 107.953C95.77 109.043 96.2665 110.045 96.9956 110.83C97.7246 111.616 98.6535 112.152 99.6648 112.368C100.676 112.585 101.724 112.474 102.677 112.049C103.629 111.623 104.443 110.903 105.016 109.979C105.589 109.055 105.895 107.968 105.895 106.857C105.893 105.367 105.344 103.939 104.366 102.885C103.389 101.832 102.064 101.239 100.682 101.237V101.237Z" fill="white"/>
<path d="M78.6895 74.4393L78.5273 90.1135L82.9674 85.7178L88.6813 85.8277L78.6895 74.4393Z" fill="#292A2E"/>
<path d="M78.5268 90.3323C78.499 90.3322 78.4715 90.3256 78.4462 90.3132C78.41 90.2962 78.3792 90.2681 78.3577 90.2324C78.3362 90.1967 78.3249 90.155 78.3252 90.1124L78.4865 74.4386C78.4869 74.3953 78.4993 74.3531 78.5221 74.3175C78.5449 74.2818 78.577 74.2543 78.6144 74.2384C78.6518 74.2226 78.6927 74.2192 78.732 74.2286C78.7712 74.238 78.8069 74.2598 78.8345 74.2913L88.8264 85.6806C88.8537 85.7116 88.8719 85.7506 88.8787 85.7928C88.8855 85.8349 88.8806 85.8783 88.8647 85.9175C88.85 85.9578 88.824 85.9922 88.7901 86.0156C88.7563 86.039 88.7165 86.0503 88.6764 86.0479L83.0431 85.9397L78.6623 90.2763C78.6252 90.3124 78.5769 90.3324 78.5268 90.3323ZM78.8849 74.9807L78.7333 89.6151L82.8305 85.5593C82.8692 85.5227 82.919 85.5024 82.9705 85.5023L88.2045 85.6028L78.8849 74.9807Z" fill="white"/>
<path d="M96.7598 74.4393L96.5977 90.1135L101.038 85.7178L106.752 85.8277L96.7598 74.4393Z" fill="white"/>
<path d="M96.5976 90.3323C96.5698 90.3323 96.5423 90.3257 96.517 90.3132C96.4808 90.2962 96.45 90.2681 96.4285 90.2324C96.407 90.1967 96.3957 90.155 96.396 90.1124L96.5573 74.4386C96.5577 74.3953 96.5701 74.3531 96.5929 74.3175C96.6157 74.2818 96.6478 74.2543 96.6852 74.2384C96.7226 74.2226 96.7635 74.2192 96.8028 74.2286C96.842 74.238 96.8777 74.2598 96.9053 74.2913L106.898 85.6806C106.925 85.7117 106.943 85.7507 106.95 85.7929C106.956 85.835 106.951 85.8783 106.935 85.9175C106.921 85.958 106.895 85.9926 106.861 86.0161C106.828 86.0395 106.788 86.0507 106.748 86.0479L101.114 85.9397L96.7335 90.2763C96.6962 90.3124 96.6478 90.3323 96.5976 90.3323V90.3323ZM96.9557 74.9807L96.8045 89.6151L100.901 85.5593C100.94 85.5232 100.99 85.503 101.041 85.5023L106.275 85.6028L96.9557 74.9807Z" fill="#292A2E"/>
<path d="M78.9122 123.985L78.0972 135.398L80.6483 136.948L86.2283 134.565L86.5013 131.359L78.9122 123.985Z" fill="#292A2E"/>
<path d="M80.6474 137.167C80.6127 137.167 80.5785 137.157 80.5482 137.139L77.9972 135.589C77.9637 135.568 77.9364 135.538 77.9183 135.502C77.9002 135.465 77.8922 135.424 77.8951 135.383L78.7105 123.969C78.7134 123.929 78.7268 123.89 78.7491 123.857C78.7714 123.824 78.8018 123.799 78.8367 123.784C78.8717 123.769 78.9099 123.765 78.9469 123.772C78.984 123.779 79.0185 123.797 79.0465 123.824L86.6356 131.199C86.6589 131.221 86.677 131.249 86.6885 131.281C86.6999 131.313 86.7043 131.347 86.7013 131.38L86.4287 134.586C86.4253 134.626 86.4117 134.664 86.3893 134.697C86.367 134.729 86.3368 134.754 86.3021 134.768L80.7216 137.152C80.698 137.162 80.6728 137.167 80.6474 137.167V137.167ZM78.3085 135.278L80.6636 136.709L86.0396 134.413L86.2916 131.449L79.0832 124.443L78.3085 135.278Z" fill="white"/>
<path d="M81.3484 130.84C81.308 130.84 81.2685 130.827 81.2351 130.802C81.2016 130.778 81.1758 130.743 81.1609 130.703L78.7248 124.066C78.7138 124.039 78.7079 124.01 78.7075 123.981C78.7072 123.952 78.7123 123.922 78.7226 123.895C78.7328 123.868 78.7481 123.844 78.7674 123.823C78.7867 123.803 78.8097 123.786 78.8349 123.776C78.8601 123.765 78.8871 123.76 78.9143 123.76C78.9414 123.761 78.9681 123.768 78.9928 123.78C79.0175 123.792 79.0397 123.81 79.058 123.831C79.0763 123.853 79.0904 123.878 79.0994 123.906L81.5359 130.544C81.5481 130.577 81.5525 130.613 81.5489 130.648C81.5453 130.683 81.5337 130.717 81.5152 130.746C81.4967 130.775 81.4719 130.799 81.4428 130.816C81.4137 130.833 81.3813 130.841 81.3484 130.841V130.84Z" fill="white"/>
<path d="M81.7201 133.088C82.4688 133.088 83.0759 132.433 83.0759 131.626C83.0759 130.819 82.4688 130.165 81.7201 130.165C80.9713 130.165 80.3643 130.819 80.3643 131.626C80.3643 132.433 80.9713 133.088 81.7201 133.088Z" fill="#292A2E"/>
<path d="M81.7185 133.305C81.4104 133.305 81.1093 133.206 80.8531 133.022C80.5969 132.837 80.3973 132.575 80.2793 132.268C80.1614 131.962 80.1305 131.624 80.1905 131.298C80.2506 130.973 80.3989 130.673 80.6167 130.438C80.8345 130.204 81.112 130.044 81.4141 129.979C81.7162 129.914 82.0294 129.947 82.314 130.074C82.5986 130.201 82.8419 130.417 83.013 130.693C83.1842 130.969 83.2755 131.293 83.2755 131.626C83.2751 132.071 83.1109 132.497 82.819 132.812C82.5271 133.127 82.1313 133.304 81.7185 133.305V133.305ZM81.7185 130.382C81.4902 130.382 81.267 130.455 81.0771 130.591C80.8873 130.728 80.7393 130.922 80.6518 131.15C80.5644 131.377 80.5416 131.627 80.5861 131.869C80.6306 132.11 80.7405 132.332 80.902 132.506C81.0634 132.68 81.2691 132.798 81.493 132.846C81.7169 132.894 81.949 132.87 82.1599 132.775C82.3709 132.681 82.5511 132.522 82.6779 132.317C82.8047 132.112 82.8723 131.872 82.8722 131.626C82.8718 131.296 82.7501 130.98 82.5338 130.747C82.3176 130.513 82.0243 130.382 81.7185 130.382V130.382Z" fill="white"/>
<path d="M79.3275 137.35L87.3122 133.939C87.452 133.88 87.6079 133.881 87.7467 133.943C87.8855 134.006 87.9963 134.124 88.0555 134.273L88.6358 135.732C88.6663 135.809 88.6821 135.892 88.6824 135.976C88.6826 136.059 88.6672 136.142 88.6371 136.219C88.607 136.296 88.5628 136.366 88.5071 136.424C88.4515 136.482 88.3855 136.528 88.3132 136.558L80.301 139.917C80.1611 139.976 80.0054 139.973 79.8671 139.91C79.7288 139.847 79.6187 139.729 79.5602 139.58L79.0077 138.172C78.9776 138.096 78.9621 138.013 78.9619 137.93C78.9618 137.847 78.977 137.765 79.0069 137.688C79.0367 137.612 79.0804 137.543 79.1355 137.484C79.1905 137.426 79.2558 137.381 79.3275 137.35V137.35Z" fill="white"/>
<path d="M98.0815 125.696L97.3125 136.461L99.7188 137.924L104.982 135.676L105.24 132.652L98.0815 125.696Z" fill="#292A2E"/>
<path d="M99.7191 138.141C99.6843 138.141 99.6501 138.131 99.6199 138.112L97.2139 136.65C97.1805 136.63 97.1532 136.6 97.1351 136.563C97.117 136.527 97.109 136.486 97.1119 136.444L97.8806 125.679C97.8834 125.638 97.8968 125.6 97.9191 125.567C97.9414 125.534 97.9718 125.509 98.0068 125.494C98.0419 125.478 98.0801 125.474 98.1173 125.481C98.1544 125.489 98.1889 125.507 98.2169 125.534L105.375 132.489C105.398 132.512 105.416 132.54 105.428 132.572C105.439 132.603 105.444 132.637 105.441 132.671L105.183 135.695C105.18 135.735 105.166 135.773 105.144 135.805C105.122 135.837 105.091 135.862 105.057 135.877L99.7933 138.125C99.7697 138.135 99.7445 138.14 99.7191 138.141V138.141ZM97.5237 136.34L99.7344 137.683L104.793 135.522L105.03 132.74L98.2512 126.153L97.5237 136.34Z" fill="white"/>
<path d="M100.378 132.174C100.338 132.174 100.298 132.161 100.265 132.137C100.231 132.112 100.206 132.078 100.191 132.037L97.8921 125.777C97.8724 125.723 97.8733 125.663 97.8945 125.61C97.9158 125.557 97.9557 125.516 98.0054 125.495C98.0551 125.473 98.1106 125.474 98.1597 125.497C98.2088 125.52 98.2474 125.563 98.2671 125.617L100.566 131.877C100.576 131.904 100.58 131.932 100.58 131.961C100.579 131.989 100.574 132.017 100.563 132.043C100.553 132.07 100.538 132.093 100.519 132.113C100.5 132.133 100.477 132.149 100.452 132.159C100.429 132.169 100.404 132.175 100.378 132.174Z" fill="white"/>
<path d="M100.731 134.282C101.437 134.282 102.01 133.665 102.01 132.904C102.01 132.142 101.437 131.525 100.731 131.525C100.025 131.525 99.4521 132.142 99.4521 132.904C99.4521 133.665 100.025 134.282 100.731 134.282Z" fill="#292A2E"/>
<path d="M100.731 134.5C100.439 134.5 100.152 134.407 99.9089 134.231C99.6655 134.056 99.4757 133.807 99.3637 133.515C99.2516 133.223 99.2223 132.902 99.2794 132.593C99.3365 132.283 99.4775 131.999 99.6846 131.776C99.8916 131.552 100.155 131.4 100.443 131.339C100.73 131.277 101.027 131.309 101.298 131.43C101.568 131.551 101.8 131.755 101.962 132.018C102.125 132.28 102.212 132.589 102.212 132.904C102.211 133.327 102.055 133.733 101.778 134.032C101.5 134.331 101.124 134.5 100.731 134.5V134.5ZM100.731 131.743C100.518 131.743 100.31 131.811 100.133 131.939C99.9558 132.066 99.8178 132.248 99.7362 132.46C99.6547 132.672 99.6334 132.905 99.6749 133.131C99.7165 133.356 99.8191 133.563 99.9697 133.725C100.12 133.888 100.312 133.998 100.521 134.043C100.73 134.088 100.947 134.065 101.144 133.977C101.34 133.889 101.509 133.74 101.627 133.549C101.745 133.358 101.809 133.134 101.809 132.904C101.808 132.596 101.695 132.301 101.493 132.083C101.291 131.865 101.017 131.742 100.731 131.742V131.743Z" fill="white"/>
<path d="M98.4739 138.303L106.005 135.086C106.136 135.029 106.284 135.031 106.414 135.09C106.545 135.148 106.65 135.26 106.706 135.4L107.253 136.777C107.282 136.85 107.297 136.928 107.297 137.006C107.297 137.085 107.283 137.163 107.255 137.236C107.226 137.308 107.185 137.374 107.132 137.429C107.08 137.484 107.018 137.527 106.95 137.555L99.3929 140.723C99.2609 140.779 99.1141 140.777 98.9836 140.717C98.8531 140.658 98.7493 140.546 98.6941 140.405L98.173 139.078C98.1447 139.005 98.13 138.928 98.1299 138.85C98.1297 138.772 98.1441 138.694 98.1721 138.622C98.2001 138.55 98.2413 138.484 98.2931 138.429C98.3449 138.375 98.4064 138.332 98.4739 138.303V138.303Z" fill="white"/>
<path d="M103.288 126.743C103.235 126.743 103.183 126.72 103.146 126.679C103.108 126.639 103.086 126.583 103.086 126.526V122.331C103.086 122.274 103.108 122.218 103.146 122.178C103.183 122.137 103.235 122.114 103.288 122.114C103.342 122.114 103.393 122.137 103.431 122.178C103.469 122.218 103.49 122.274 103.49 122.331V126.526C103.49 126.583 103.469 126.639 103.431 126.679C103.393 126.72 103.342 126.743 103.288 126.743Z" fill="white"/>
<path d="M105.232 124.647H101.341C101.287 124.647 101.236 124.624 101.198 124.583C101.16 124.542 101.139 124.487 101.139 124.429C101.139 124.371 101.16 124.316 101.198 124.275C101.236 124.234 101.287 124.211 101.341 124.211H105.232C105.285 124.211 105.336 124.234 105.374 124.275C105.412 124.316 105.433 124.371 105.433 124.429C105.433 124.487 105.412 124.542 105.374 124.583C105.336 124.624 105.285 124.647 105.232 124.647H105.232Z" fill="white"/>
<path d="M79.0568 163.422C78.7914 163.422 78.5305 163.348 78.3006 163.205V163.205C77.9509 162.988 77.6954 162.63 77.5905 162.21C77.4855 161.79 77.5396 161.342 77.7409 160.965L81.824 153.319C81.8506 153.269 81.8945 153.232 81.9461 153.217C81.9976 153.202 82.0527 153.21 82.099 153.239L84.3868 154.658C84.4326 154.687 84.4663 154.733 84.4808 154.788C84.4945 154.844 84.4873 154.903 84.4606 154.953L80.3783 162.599C80.2448 162.849 80.0523 163.057 79.8202 163.202C79.5882 163.346 79.3248 163.422 79.0568 163.422ZM78.5019 162.827C78.7589 162.986 79.0639 163.028 79.3501 162.945C79.6363 162.862 79.8801 162.66 80.0282 162.383L84.0101 154.927L82.0724 153.724L78.0905 161.181C77.9426 161.458 77.9029 161.787 77.98 162.096C78.0572 162.405 78.2449 162.668 78.5019 162.827V162.827Z" fill="white"/>
<path d="M85.6107 153.569L82.3581 151.551C81.872 151.249 81.2512 151.43 80.9715 151.954L80.9713 151.954C80.6915 152.478 80.8588 153.147 81.3448 153.449L84.5974 155.467C85.0835 155.769 85.7043 155.588 85.984 155.064L85.9842 155.064C86.264 154.54 86.0967 153.871 85.6107 153.569Z" fill="white"/>
<path d="M85.3219 150.052C85.5788 150.212 85.7666 150.475 85.8439 150.784C85.9211 151.094 85.8815 151.423 85.7337 151.7L84.4484 154.113L82.5101 152.908L83.7954 150.495C83.8686 150.358 83.9662 150.237 84.0825 150.141C84.1988 150.044 84.3316 149.973 84.4734 149.932C84.6151 149.891 84.763 149.88 84.9086 149.901C85.0542 149.922 85.1946 149.973 85.3219 150.052Z" fill="white"/>
<path d="M101.218 162.606C100.453 162.608 99.6952 162.447 98.9883 162.132C98.2815 161.817 97.6394 161.355 97.0991 160.771C97.0623 160.73 97.0419 160.676 97.0423 160.619C97.0427 160.562 97.0638 160.507 97.1011 160.467C97.1385 160.426 97.189 160.403 97.2419 160.403C97.2948 160.402 97.3457 160.424 97.3838 160.464C98.145 161.281 99.1141 161.837 100.169 162.061C101.223 162.285 102.315 162.167 103.307 161.722C104.299 161.276 105.147 160.524 105.742 159.559C106.337 158.595 106.654 157.462 106.652 156.304C106.65 155.145 106.329 154.014 105.731 153.052C105.132 152.09 104.282 151.341 103.288 150.899C102.295 150.458 101.202 150.345 100.148 150.573C99.0948 150.801 98.1277 151.361 97.3693 152.182C97.3313 152.221 97.2804 152.243 97.2275 152.243C97.1746 152.242 97.124 152.22 97.0866 152.179C97.0492 152.139 97.0279 152.085 97.0274 152.028C97.0268 151.971 97.0471 151.916 97.0838 151.875C97.7611 151.142 98.5957 150.6 99.5136 150.298C100.432 149.996 101.404 149.942 102.346 150.142C103.288 150.342 104.169 150.789 104.912 151.444C105.655 152.099 106.237 152.941 106.606 153.896C106.975 154.851 107.12 155.89 107.027 156.92C106.935 157.949 106.609 158.939 106.077 159.8C105.545 160.661 104.825 161.368 103.979 161.857C103.134 162.347 102.189 162.604 101.229 162.606H101.218Z" fill="white"/>
<path d="M99.4387 152.8C99.4267 152.8 99.4147 152.799 99.4028 152.796L96.9731 152.326C96.9467 152.321 96.9214 152.31 96.899 152.294C96.8765 152.279 96.8571 152.258 96.8421 152.234C96.8271 152.21 96.8166 152.183 96.8114 152.155C96.8062 152.126 96.8063 152.097 96.8118 152.068L97.2808 149.606C97.2861 149.578 97.2964 149.552 97.3113 149.528C97.3261 149.504 97.3451 149.484 97.3672 149.468C97.3893 149.452 97.414 149.442 97.44 149.436C97.466 149.431 97.4928 149.431 97.5187 149.437C97.5447 149.442 97.5693 149.453 97.5913 149.469C97.6132 149.485 97.632 149.506 97.6466 149.53C97.6612 149.553 97.6713 149.58 97.6764 149.608C97.6814 149.636 97.6813 149.665 97.676 149.693L97.2485 151.937L99.4746 152.368C99.5241 152.378 99.5685 152.407 99.599 152.45C99.6295 152.493 99.644 152.547 99.6395 152.601C99.6351 152.655 99.612 152.705 99.575 152.742C99.5379 152.779 99.4894 152.799 99.4391 152.799L99.4387 152.8Z" fill="white"/>
<path d="M104.93 184.205H95.2212C95.1677 184.205 95.1164 184.182 95.0786 184.141C95.0408 184.1 95.0195 184.045 95.0195 183.988V173.522C95.0195 173.465 95.0408 173.409 95.0786 173.369C95.1164 173.328 95.1677 173.305 95.2212 173.305H104.93C104.983 173.305 105.035 173.328 105.072 173.369C105.11 173.409 105.132 173.465 105.132 173.522V183.988C105.132 184.045 105.11 184.1 105.072 184.141C105.035 184.182 104.983 184.205 104.93 184.205ZM95.4228 183.77H104.728V173.74H95.4228V183.77Z" fill="white"/>
<path d="M105.587 177.288H100.358C99.1398 177.288 98.1523 178.352 98.1523 179.665V185.302C98.1523 186.615 99.1398 187.679 100.358 187.679H105.587C106.805 187.679 107.792 186.615 107.792 185.302V179.665C107.792 178.352 106.805 177.288 105.587 177.288Z" fill="#292A2E"/>
<path d="M105.587 187.895H100.357C99.7192 187.895 99.1073 187.621 98.6561 187.135C98.2048 186.648 97.9509 185.989 97.9502 185.301V179.665C97.9509 178.977 98.2048 178.317 98.656 177.831C99.1073 177.344 99.7191 177.071 100.357 177.07H105.587C106.225 177.071 106.836 177.344 107.288 177.831C107.739 178.317 107.993 178.977 107.993 179.665V185.301C107.993 185.989 107.739 186.648 107.288 187.135C106.836 187.621 106.225 187.895 105.587 187.895V187.895ZM100.357 177.506C99.826 177.506 99.3167 177.734 98.941 178.139C98.5653 178.544 98.354 179.093 98.3535 179.666V185.302C98.3541 185.875 98.5654 186.424 98.9411 186.829C99.3168 187.234 99.8261 187.461 100.357 187.462H105.587C106.118 187.461 106.627 187.234 107.003 186.829C107.378 186.424 107.589 185.875 107.59 185.302V179.665C107.59 179.092 107.378 178.543 107.003 178.138C106.627 177.733 106.118 177.505 105.587 177.505L100.357 177.506Z" fill="white"/>
<path d="M85.2291 179.238C85.2291 176.772 83.3751 174.773 81.088 174.773C78.8008 174.773 76.9468 176.772 76.9468 179.238C76.9468 181.703 78.8008 183.702 81.088 183.702C83.3751 183.702 85.2291 181.703 85.2291 179.238Z" fill="#292A2E"/>
<path d="M81.087 183.919C80.228 183.919 79.3884 183.645 78.6742 183.13C77.96 182.616 77.4034 181.885 77.0747 181.029C76.746 180.174 76.66 179.232 76.8276 178.324C76.9952 177.416 77.4088 176.582 78.0161 175.927C78.6235 175.272 79.3973 174.826 80.2397 174.646C81.0821 174.465 81.9553 174.558 82.7489 174.912C83.5424 175.266 84.2207 175.866 84.6979 176.636C85.1751 177.406 85.4298 178.312 85.4298 179.237C85.4284 180.479 84.9704 181.669 84.1563 182.546C83.3421 183.424 82.2383 183.918 81.087 183.919ZM81.087 174.99C80.3078 174.99 79.5461 175.24 78.8983 175.706C78.2504 176.173 77.7455 176.836 77.4473 177.612C77.1491 178.388 77.0711 179.242 77.2231 180.066C77.3751 180.89 77.7503 181.647 78.3013 182.241C78.8522 182.835 79.5542 183.239 80.3184 183.403C81.0826 183.567 81.8747 183.483 82.5946 183.161C83.3144 182.84 83.9297 182.295 84.3626 181.597C84.7955 180.899 85.0265 180.077 85.0265 179.237C85.0253 178.111 84.6099 177.032 83.8714 176.236C83.1328 175.44 82.1314 174.992 81.087 174.99V174.99Z" fill="white"/>
<path d="M83.2486 183.045L82.9009 183.265L85.6697 188.345L86.0174 188.124L83.2486 183.045Z" fill="white"/>
<path d="M107.451 212.714H96.6318V201.052H107.451V212.714ZM97.0351 212.279H107.048V201.487H97.0351V212.279Z" fill="white"/>
<path d="M96.8328 201.487C96.7792 201.487 96.7279 201.464 96.69 201.423C96.6521 201.382 96.6309 201.327 96.6309 201.27V197.867C96.6309 197.81 96.6521 197.754 96.69 197.713C96.7279 197.673 96.7792 197.65 96.8328 197.65C96.8863 197.65 96.9377 197.673 96.9756 197.713C97.0134 197.754 97.0347 197.81 97.0347 197.867V201.27C97.0347 201.327 97.0134 201.382 96.9756 201.423C96.9377 201.464 96.8863 201.487 96.8328 201.487Z" fill="white"/>
<path d="M96.7981 201.488H93.6421C93.5886 201.488 93.5373 201.465 93.4995 201.424C93.4617 201.383 93.4404 201.328 93.4404 201.27C93.4404 201.212 93.4617 201.157 93.4995 201.116C93.5373 201.075 93.5886 201.052 93.6421 201.052H96.7981C96.8515 201.052 96.9028 201.075 96.9406 201.116C96.9785 201.157 96.9997 201.212 96.9997 201.27C96.9997 201.328 96.9785 201.383 96.9406 201.424C96.9028 201.465 96.8515 201.488 96.7981 201.488Z" fill="white"/>
<path d="M80.8036 213.488H81.6561L84.3749 199.715H88.3468L88.479 198.998H79.695L79.5498 199.715H83.5019L80.8036 213.488Z" fill="white"/>
<path d="M270.849 269.575L254.187 214.368C253.895 213.397 253.324 212.552 252.559 211.953C251.793 211.353 250.871 211.03 249.924 211.03H182.045C181.338 211.03 180.64 211.211 180.01 211.557C179.379 211.904 178.834 212.406 178.418 213.023C178.002 213.64 177.728 214.355 177.617 215.108C177.507 215.861 177.564 216.632 177.782 217.358L194.444 272.565C194.737 273.535 195.307 274.381 196.073 274.98C196.838 275.58 197.761 275.902 198.707 275.902H266.586C267.293 275.902 267.991 275.722 268.621 275.375C269.252 275.029 269.797 274.527 270.213 273.91C270.629 273.292 270.903 272.578 271.014 271.825C271.124 271.071 271.068 270.301 270.849 269.575V269.575Z" fill="#292A2E"/>
<path d="M302.695 271.426H257.257C256.125 271.426 255.207 272.416 255.207 273.636V273.693C255.207 274.914 256.125 275.903 257.257 275.903H302.695C303.827 275.903 304.745 274.914 304.745 273.693V273.636C304.745 272.416 303.827 271.426 302.695 271.426Z" fill="#292A2E"/>
<path d="M224.317 253.834C228.249 253.834 231.436 250.398 231.436 246.159C231.436 241.921 228.249 238.485 224.317 238.485C220.385 238.485 217.197 241.921 217.197 246.159C217.197 250.398 220.385 253.834 224.317 253.834Z" fill="white"/>
</svg>
