<svg width="400" height="280" viewBox="0 0 400 280" fill="none" xmlns="http://www.w3.org/2000/svg">
<path d="M162.528 15.8298H21.7456V152.956H162.528V15.8298Z" fill="#F4F4F4"/>
<path d="M21.7457 15.8298H20.1323V152.956H21.7457V15.8298Z" fill="#F4F4F4"/>
<path opacity="0.05" d="M21.7457 15.8298H20.1323V152.956H21.7457V15.8298Z" fill="#292A2E"/>
<path opacity="0.05" d="M55.8519 110.321V74.4448H86.0239V95.2884H132.761V132.194H152.624V152.956H132.761H128.934H28.519V110.321H55.8519Z" fill="#292A2E"/>
<path opacity="0.34" d="M82.1507 78.3396H60.1792V82.2351H82.1507V78.3396Z" fill="#FFFFFA"/>
<path opacity="0.34" d="M82.1502 86.4116H60.1787V90.3072H82.1502V86.4116Z" fill="#FFFFFA"/>
<path opacity="0.34" d="M82.1502 94.4839H60.1787V98.3794H82.1502V94.4839Z" fill="#FFFFFA"/>
<path opacity="0.34" d="M36.4663 114.103H32.4165V117.998H36.4663V114.103Z" fill="#FFFFFA"/>
<path opacity="0.34" d="M36.4663 122.175H32.4165V126.07H36.4663V122.175Z" fill="#FFFFFA"/>
<path opacity="0.34" d="M36.4663 130.247H32.4165V134.142H36.4663V130.247Z" fill="#FFFFFA"/>
<path opacity="0.34" d="M43.9575 114.103H39.9077V117.998H43.9575V114.103Z" fill="#FFFFFA"/>
<path opacity="0.34" d="M43.9575 122.175H39.9077V126.07H43.9575V122.175Z" fill="#FFFFFA"/>
<path opacity="0.34" d="M43.9575 130.247H39.9077V134.142H43.9575V130.247Z" fill="#FFFFFA"/>
<path opacity="0.34" d="M51.2485 114.103H47.1987V117.998H51.2485V114.103Z" fill="#FFFFFA"/>
<path opacity="0.34" d="M51.2485 122.175H47.1987V126.07H51.2485V122.175Z" fill="#FFFFFA"/>
<path opacity="0.34" d="M51.2485 130.247H47.1987V134.142H51.2485V130.247Z" fill="#FFFFFA"/>
<path d="M21.7456 83.6236H50.0732V15.8298H52.416V83.6236H128.933V15.8298H131.275V83.6236H162.528V85.9056H131.275V152.956H128.933V85.9056H52.416V152.956H50.0732V85.9056H21.7456V83.6236Z" fill="white"/>
<path d="M168.137 152.791H16.1372V157.351H168.137V152.791Z" fill="#F4F4F4"/>
<path opacity="0.1" d="M168.137 152.791H16.1372V157.351H168.137V152.791Z" fill="#292A2E"/>
<path opacity="0.1" d="M16.1373 152.791H13.9429V157.351H16.1373V152.791Z" fill="#292A2E"/>
<path opacity="0.1" d="M16.1373 152.791H13.9429V157.351H16.1373V152.791Z" fill="#292A2E"/>
<path d="M20.1335 21.6687L162.53 21.6687V18.2781L20.1335 18.2781V21.6687Z" fill="white"/>
<path d="M20.1335 28.0017L162.53 28.0017V24.6111L20.1335 24.6111V28.0017Z" fill="white"/>
<path d="M20.1335 34.3337L162.53 34.3337V30.9432L20.1335 30.9432V34.3337Z" fill="white"/>
<path d="M20.1335 40.6665L162.53 40.6665V37.2759L20.1335 37.2759V40.6665Z" fill="white"/>
<path d="M20.1335 47.0002L162.53 47.0002V43.6097L20.1335 43.6097V47.0002Z" fill="white"/>
<path d="M35.2547 50.8242H37.3887L37.3887 15.8298H35.2547L35.2547 50.8242Z" fill="white"/>
<path d="M36.142 55.8498C37.7611 55.8498 39.0736 54.5713 39.0736 52.9943C39.0736 51.4173 37.7611 50.1389 36.142 50.1389C34.523 50.1389 33.2104 51.4173 33.2104 52.9943C33.2104 54.5713 34.523 55.8498 36.142 55.8498Z" fill="white"/>
<path d="M343.709 15.0642H284.474V90.1636H343.709V15.0642Z" fill="#F4F4F4"/>
<path d="M343.709 90.1628H345.63V15.0635H343.709V90.1628Z" fill="#F4F4F4"/>
<path opacity="0.05" d="M343.709 90.1628H345.63V15.0635H343.709V90.1628Z" fill="#292A2E"/>
<path opacity="0.05" d="M332.92 28.7437H295.266V76.4826H332.92V28.7437Z" fill="#292A2E"/>
<path opacity="0.03" d="M332.919 28.7437H330.957V76.4826H332.919V28.7437Z" fill="#292A2E"/>
<path d="M392.154 108.631H343.709V156.251H392.154V108.631Z" fill="#F4F4F4"/>
<path opacity="0.05" d="M383.329 117.306H352.534V147.577H383.329V117.306Z" fill="#292A2E"/>
<path d="M392.155 156.251H394.077V108.631H392.155V156.251Z" fill="#F4F4F4"/>
<path opacity="0.05" d="M392.155 156.251H394.077V108.631H392.155V156.251Z" fill="#292A2E"/>
<path opacity="0.03" d="M383.33 117.306H381.367V147.577H383.33V117.306Z" fill="#292A2E"/>
<path d="M231.5 189.294C231.436 189.294 231.372 189.279 231.315 189.252L135.935 143.333C135.872 143.304 135.819 143.259 135.779 143.204C135.739 143.148 135.714 143.084 135.706 143.017C135.698 142.95 135.707 142.882 135.734 142.819C135.76 142.756 135.802 142.701 135.856 142.658L231.206 66.456C231.28 66.3965 231.373 66.364 231.469 66.364C231.565 66.364 231.659 66.3965 231.733 66.456L327.144 142.658C327.197 142.701 327.239 142.756 327.265 142.819C327.291 142.882 327.3 142.95 327.292 143.017C327.284 143.084 327.259 143.148 327.22 143.203C327.18 143.259 327.126 143.303 327.064 143.333L231.683 189.254C231.626 189.281 231.563 189.294 231.5 189.294V189.294ZM136.88 142.886L231.5 188.44L326.119 142.886L231.469 67.2906L136.88 142.886Z" fill="#292A2E"/>
<path d="M334.28 0.506836L315.295 25.2896V236.175C315.295 238.168 314.482 240.08 313.035 241.489C311.588 242.899 309.626 243.691 307.579 243.691H155.358C154.345 243.691 153.342 243.496 152.406 243.118C151.47 242.741 150.619 242.187 149.903 241.489C149.186 240.791 148.618 239.963 148.23 239.051C147.842 238.139 147.643 237.162 147.643 236.175V20.8115C147.643 15.4264 149.839 10.262 153.749 6.45412C157.658 2.64627 162.96 0.506979 168.489 0.506836H334.28Z" fill="white"/>
<path d="M307.578 244.091H155.357C153.202 244.089 151.136 243.254 149.612 241.77C148.087 240.285 147.23 238.273 147.226 236.174V20.8103C147.233 15.3198 149.475 10.056 153.461 6.17361C157.446 2.29123 162.851 0.107357 168.488 0.101074L334.279 0.101074C334.356 0.101274 334.431 0.122319 334.497 0.161864C334.562 0.201408 334.615 0.257897 334.65 0.325031C334.684 0.392164 334.699 0.467302 334.692 0.542064C334.685 0.616827 334.657 0.688275 334.611 0.74844L315.71 25.4228V236.174C315.706 238.273 314.848 240.285 313.324 241.77C311.8 243.254 309.734 244.089 307.578 244.091V244.091ZM168.488 0.910282C163.071 0.916279 157.878 3.01481 154.048 6.74549C150.218 10.4762 148.063 15.5343 148.057 20.8103V236.174C148.06 238.059 148.83 239.866 150.198 241.199C151.567 242.532 153.422 243.282 155.357 243.285H307.578C309.514 243.282 311.369 242.532 312.737 241.199C314.106 239.866 314.876 238.059 314.879 236.174V25.2885C314.879 25.2012 314.908 25.1162 314.961 25.0463L333.45 0.910282H168.488Z" fill="#292A2E"/>
<path opacity="0.3" d="M284.288 27.4092H178.715C178.373 27.4092 178.096 27.679 178.096 28.0118V28.9968C178.096 29.3296 178.373 29.5994 178.715 29.5994H284.288C284.63 29.5994 284.907 29.3296 284.907 28.9968V28.0118C284.907 27.679 284.63 27.4092 284.288 27.4092Z" fill="#262626"/>
<path d="M315.297 18.9983C315.297 14.0941 317.297 9.39069 320.857 5.92286C324.418 2.45504 329.246 0.506836 334.281 0.506836C339.316 0.506836 344.145 2.45504 347.706 5.92286C351.266 9.39069 353.266 14.0941 353.266 18.9983V34.6101H315.297V18.9983Z" fill="white"/>
<path d="M353.265 35.0134H315.297C315.186 35.0134 315.081 34.9708 315.003 34.8949C314.925 34.819 314.881 34.7161 314.881 34.6088V18.997C314.867 16.5071 315.359 14.0391 316.328 11.7349C317.297 9.43065 318.724 7.33565 320.526 5.57028C322.329 3.80491 324.472 2.40399 326.833 1.44805C329.193 0.492113 331.724 0 334.281 0C336.837 0 339.368 0.492113 341.729 1.44805C344.089 2.40399 346.232 3.80491 348.035 5.57028C349.838 7.33565 351.265 9.43065 352.234 11.7349C353.202 14.0391 353.694 16.5071 353.681 18.997V34.6088C353.681 34.7161 353.637 34.819 353.559 34.8949C353.481 34.9708 353.375 35.0134 353.265 35.0134V35.0134ZM315.714 34.2042H352.851V18.997C352.865 16.6136 352.394 14.251 351.467 12.0452C350.54 9.83943 349.174 7.83388 347.449 6.14389C345.723 4.45389 343.672 3.11278 341.412 2.19764C339.153 1.2825 336.73 0.811393 334.283 0.811393C331.835 0.811393 329.412 1.2825 327.153 2.19764C324.893 3.11278 322.842 4.45389 321.116 6.14389C319.391 7.83388 318.025 9.83943 317.098 12.0452C316.171 14.251 315.7 16.6136 315.714 18.997V34.2042Z" fill="#292A2E"/>
<path opacity="0.3" d="M301.183 73.3904H229.586C229.3 73.3904 229.069 73.6155 229.069 73.8932V73.8937C229.069 74.1714 229.3 74.3965 229.586 74.3965H301.183C301.468 74.3965 301.699 74.1714 301.699 73.8937V73.8932C301.699 73.6155 301.468 73.3904 301.183 73.3904Z" fill="#262626"/>
<path opacity="0.3" d="M301.183 66.2466H229.586C229.3 66.2466 229.069 66.4717 229.069 66.7494V66.7499C229.069 67.0276 229.3 67.2527 229.586 67.2527H301.183C301.468 67.2527 301.699 67.0276 301.699 66.7499V66.7494C301.699 66.4717 301.468 66.2466 301.183 66.2466Z" fill="#262626"/>
<path opacity="0.3" d="M301.183 59.1025H229.586C229.3 59.1025 229.069 59.3276 229.069 59.6053V59.6059C229.069 59.8835 229.3 60.1087 229.586 60.1087H301.183C301.468 60.1087 301.699 59.8835 301.699 59.6059V59.6053C301.699 59.3276 301.468 59.1025 301.183 59.1025Z" fill="#262626"/>
<path opacity="0.3" d="M301.183 51.9587H229.586C229.3 51.9587 229.069 52.1838 229.069 52.4615V52.4621C229.069 52.7397 229.3 52.9649 229.586 52.9649H301.183C301.468 52.9649 301.699 52.7397 301.699 52.4621V52.4615C301.699 52.1838 301.468 51.9587 301.183 51.9587Z" fill="#262626"/>
<path opacity="0.3" d="M301.183 44.7834H229.586C229.3 44.7834 229.069 45.0086 229.069 45.2862V45.2868C229.069 45.5645 229.3 45.7896 229.586 45.7896H301.183C301.468 45.7896 301.699 45.5645 301.699 45.2868V45.2862C301.699 45.0086 301.468 44.7834 301.183 44.7834Z" fill="#262626"/>
<path opacity="0.3" d="M271.581 80.5342H229.586C229.3 80.5342 229.069 80.7593 229.069 81.037V81.0375C229.069 81.3152 229.3 81.5403 229.586 81.5403H271.581C271.866 81.5403 272.097 81.3152 272.097 81.0375V81.037C272.097 80.7593 271.866 80.5342 271.581 80.5342Z" fill="#262626"/>
<path opacity="0.9" d="M217.936 39.0415H162.996C162.06 39.0415 161.301 39.7803 161.301 40.6917V84.5573C161.301 85.4687 162.06 86.2075 162.996 86.2075H217.936C218.872 86.2075 219.63 85.4687 219.63 84.5573V40.6917C219.63 39.7803 218.872 39.0415 217.936 39.0415Z" fill="#205198"/>
<path opacity="0.8" d="M181.643 57.7628C183.974 57.7628 185.864 55.9224 185.864 53.652C185.864 51.3817 183.974 49.5413 181.643 49.5413C179.312 49.5413 177.423 51.3817 177.423 53.652C177.423 55.9224 179.312 57.7628 181.643 57.7628Z" fill="white"/>
<path opacity="0.5" d="M187.457 72.8724L199.692 59.5777C200.456 58.7479 201.525 58.2449 202.667 58.1776C203.81 58.1104 204.933 58.4843 205.794 59.2184L219.631 71.0188V86.2071H202.905" fill="white"/>
<path opacity="0.8" d="M202.904 86.2068L176.374 63.3062C175.59 62.6296 174.581 62.2516 173.534 62.2417C172.486 62.2317 171.47 62.5906 170.673 63.2523L161.301 71.0207V86.2089" fill="white"/>
<path opacity="0.3" d="M301.132 120.59H161.866C161.581 120.59 161.35 120.815 161.35 121.093V121.094C161.35 121.371 161.581 121.596 161.866 121.596H301.132C301.417 121.596 301.648 121.371 301.648 121.094V121.093C301.648 120.815 301.417 120.59 301.132 120.59Z" fill="#262626"/>
<path opacity="0.3" d="M301.132 113.447H161.866C161.581 113.447 161.35 113.672 161.35 113.95V113.95C161.35 114.228 161.581 114.453 161.866 114.453H301.132C301.417 114.453 301.648 114.228 301.648 113.95V113.95C301.648 113.672 301.417 113.447 301.132 113.447Z" fill="#262626"/>
<path opacity="0.3" d="M301.132 106.303H161.866C161.581 106.303 161.35 106.528 161.35 106.806V106.806C161.35 107.084 161.581 107.309 161.866 107.309H301.132C301.417 107.309 301.648 107.084 301.648 106.806V106.806C301.648 106.528 301.417 106.303 301.132 106.303Z" fill="#262626"/>
<path opacity="0.3" d="M301.132 99.1587H161.866C161.581 99.1587 161.35 99.3838 161.35 99.6615V99.662C161.35 99.9397 161.581 100.165 161.866 100.165H301.132C301.417 100.165 301.648 99.9397 301.648 99.662V99.6615C301.648 99.3838 301.417 99.1587 301.132 99.1587Z" fill="#262626"/>
<path opacity="0.3" d="M203.861 127.735H161.866C161.581 127.735 161.35 127.96 161.35 128.237V128.238C161.35 128.516 161.581 128.741 161.866 128.741H203.861C204.147 128.741 204.378 128.516 204.378 128.238V128.237C204.378 127.96 204.147 127.735 203.861 127.735Z" fill="#262626"/>
<path opacity="0.3" d="M301.132 161.787H161.866C161.581 161.787 161.35 162.012 161.35 162.29V162.29C161.35 162.568 161.581 162.793 161.866 162.793H301.132C301.417 162.793 301.648 162.568 301.648 162.29V162.29C301.648 162.012 301.417 161.787 301.132 161.787Z" fill="#262626"/>
<path opacity="0.3" d="M301.132 154.644H161.866C161.581 154.644 161.35 154.869 161.35 155.146V155.147C161.35 155.425 161.581 155.65 161.866 155.65H301.132C301.417 155.65 301.648 155.425 301.648 155.147V155.146C301.648 154.869 301.417 154.644 301.132 154.644Z" fill="#262626"/>
<path opacity="0.3" d="M301.132 147.499H161.866C161.581 147.499 161.35 147.724 161.35 148.002V148.003C161.35 148.28 161.581 148.505 161.866 148.505H301.132C301.417 148.505 301.648 148.28 301.648 148.003V148.002C301.648 147.724 301.417 147.499 301.132 147.499Z" fill="#262626"/>
<path opacity="0.3" d="M301.132 140.355H161.866C161.581 140.355 161.35 140.581 161.35 140.858V140.859C161.35 141.136 161.581 141.362 161.866 141.362H301.132C301.417 141.362 301.648 141.136 301.648 140.859V140.858C301.648 140.581 301.417 140.355 301.132 140.355Z" fill="#262626"/>
<path opacity="0.3" d="M203.861 168.931H161.866C161.581 168.931 161.35 169.156 161.35 169.433V169.434C161.35 169.712 161.581 169.937 161.866 169.937H203.861C204.147 169.937 204.378 169.712 204.378 169.434V169.433C204.378 169.156 204.147 168.931 203.861 168.931Z" fill="#262626"/>
<path d="M317.569 250.398H145.434C142.964 250.398 140.595 249.443 138.849 247.742C137.102 246.04 136.121 243.733 136.121 241.327V142.971L231.502 188.891L326.882 142.971V241.327C326.882 242.518 326.641 243.698 326.173 244.799C325.705 245.899 325.019 246.899 324.155 247.742C323.29 248.584 322.263 249.252 321.133 249.708C320.003 250.164 318.792 250.398 317.569 250.398Z" fill="#FBAF55"/>
<path opacity="0.78" d="M317.569 250.398H145.434C142.964 250.398 140.595 249.443 138.849 247.742C137.102 246.04 136.121 243.733 136.121 241.327V142.971L231.502 188.891L326.882 142.971V241.327C326.882 242.518 326.641 243.698 326.173 244.799C325.705 245.899 325.019 246.899 324.155 247.742C323.29 248.584 322.263 249.252 321.133 249.708C320.003 250.164 318.792 250.398 317.569 250.398Z" fill="white"/>
<path d="M317.567 250.803H145.432C142.852 250.801 140.38 249.801 138.556 248.025C136.732 246.248 135.706 243.84 135.703 241.328V142.971C135.703 142.902 135.721 142.835 135.756 142.774C135.79 142.714 135.839 142.664 135.9 142.627C135.96 142.591 136.028 142.57 136.099 142.567C136.169 142.564 136.24 142.578 136.303 142.609L231.499 188.44L326.696 142.609C326.759 142.578 326.829 142.564 326.9 142.567C326.971 142.57 327.039 142.591 327.099 142.627C327.159 142.664 327.209 142.714 327.243 142.774C327.277 142.835 327.295 142.902 327.295 142.971V241.328C327.292 243.84 326.266 246.248 324.443 248.025C322.619 249.801 320.146 250.801 317.567 250.803ZM136.534 143.623V241.328C136.537 243.625 137.475 245.828 139.143 247.453C140.811 249.078 143.073 249.991 145.432 249.994H317.567C319.926 249.992 322.187 249.078 323.855 247.453C325.524 245.828 326.462 243.625 326.464 241.328V143.623L231.683 189.254C231.626 189.281 231.563 189.296 231.499 189.296C231.435 189.296 231.372 189.281 231.315 189.254L136.534 143.623Z" fill="#292A2E"/>
<path d="M370.406 272.79C370.473 272.79 370.539 272.771 370.597 272.737C370.654 272.702 370.7 272.652 370.729 272.594L380.2 253.668C380.239 253.585 380.243 253.491 380.211 253.405C380.179 253.319 380.114 253.249 380.03 253.209C379.946 253.169 379.85 253.163 379.761 253.191C379.672 253.219 379.598 253.28 379.555 253.361L370.084 272.287C370.057 272.34 370.045 272.399 370.048 272.458C370.051 272.517 370.07 272.575 370.102 272.625C370.134 272.675 370.179 272.717 370.232 272.746C370.285 272.775 370.345 272.79 370.406 272.79V272.79Z" fill="#292A2E"/>
<path d="M354.391 271.692C354.471 271.691 354.548 271.666 354.611 271.619C354.673 271.571 354.718 271.505 354.739 271.43L365.7 230.665C365.712 230.621 365.715 230.575 365.709 230.529C365.703 230.484 365.687 230.44 365.663 230.4C365.639 230.36 365.608 230.326 365.57 230.298C365.533 230.27 365.49 230.25 365.444 230.238C365.399 230.227 365.351 230.224 365.304 230.23C365.258 230.236 365.213 230.251 365.172 230.275C365.131 230.298 365.096 230.328 365.067 230.365C365.039 230.402 365.018 230.443 365.006 230.488L354.043 271.253C354.019 271.343 354.033 271.438 354.081 271.518C354.129 271.598 354.208 271.657 354.3 271.68C354.33 271.688 354.36 271.691 354.391 271.692V271.692Z" fill="#292A2E"/>
<path d="M333.479 273.496C333.538 273.496 333.597 273.482 333.649 273.455C333.701 273.428 333.746 273.388 333.779 273.34C333.812 273.292 333.832 273.237 333.838 273.179C333.843 273.122 333.834 273.064 333.811 273.011L322.478 247.017C322.441 246.932 322.371 246.864 322.282 246.83C322.194 246.795 322.095 246.795 322.008 246.832C321.92 246.868 321.851 246.937 321.815 247.023C321.779 247.109 321.78 247.205 321.817 247.29L333.149 273.285C333.177 273.348 333.223 273.401 333.282 273.439C333.34 273.476 333.409 273.496 333.479 273.496Z" fill="#292A2E"/>
<path d="M353.984 279.519C354.013 279.519 354.042 279.515 354.071 279.509C354.163 279.486 354.243 279.428 354.292 279.349C354.341 279.269 354.355 279.174 354.333 279.084L341.165 227.775C341.153 227.73 341.133 227.688 341.105 227.651C341.077 227.615 341.041 227.583 341.001 227.56C340.96 227.536 340.916 227.521 340.869 227.514C340.822 227.507 340.775 227.509 340.729 227.52C340.683 227.532 340.64 227.551 340.602 227.579C340.564 227.606 340.532 227.641 340.508 227.68C340.484 227.719 340.468 227.763 340.461 227.808C340.454 227.854 340.456 227.9 340.468 227.945L353.635 279.254C353.655 279.33 353.699 279.397 353.763 279.445C353.826 279.493 353.903 279.519 353.984 279.519V279.519Z" fill="#292A2E"/>
<path d="M349.316 238.289C352.889 230.974 350.557 222.622 344.109 219.634C337.66 216.646 329.536 220.154 325.964 227.469C322.391 234.785 324.723 243.137 331.171 246.125C337.62 249.113 345.743 245.605 349.316 238.289Z" fill="#205198"/>
<path opacity="0.4" d="M349.316 238.289C352.889 230.974 350.557 222.622 344.109 219.634C337.66 216.646 329.536 220.154 325.964 227.469C322.391 234.785 324.723 243.137 331.171 246.125C337.62 249.113 345.743 245.605 349.316 238.289Z" fill="white"/>
<path d="M327.167 255.168C329.035 250.663 327.405 245.781 323.526 244.264C319.648 242.746 314.989 245.168 313.121 249.673C311.253 254.178 312.883 259.06 316.762 260.578C320.641 262.095 325.299 259.673 327.167 255.168Z" fill="#205198"/>
<path d="M372.84 249.395C378.6 247.693 381.531 240.733 379.387 233.848C377.243 226.963 370.836 222.761 365.076 224.462C359.317 226.164 356.385 233.125 358.529 240.01C360.673 246.895 367.08 251.097 372.84 249.395Z" fill="#205198"/>
<path d="M382.596 264.046C385.81 263.522 387.802 259.525 387.045 255.119C386.288 250.712 383.068 247.565 379.854 248.089C376.64 248.613 374.648 252.61 375.405 257.016C376.162 261.423 379.381 264.57 382.596 264.046Z" fill="#205198"/>
<path d="M322.909 280H378.843V266.423H322.909V280Z" fill="#292A2E"/>
<path opacity="0.3" d="M322.909 280H378.843V266.423H322.909V280Z" fill="white"/>
<path d="M349.423 263.012C351.697 257.514 349.688 251.546 344.936 249.682C340.184 247.818 334.489 250.764 332.216 256.262C329.942 261.759 331.952 267.727 336.703 269.591C341.455 271.456 347.15 268.51 349.423 263.012Z" fill="#205198"/>
<path d="M361.835 268.228C366.568 268.228 370.404 264.491 370.404 259.881C370.404 255.272 366.568 251.535 361.835 251.535C357.102 251.535 353.266 255.272 353.266 259.881C353.266 264.491 357.102 268.228 361.835 268.228Z" fill="#205198"/>
<path opacity="0.68" d="M327.167 255.168C329.035 250.663 327.405 245.781 323.526 244.264C319.648 242.746 314.989 245.168 313.121 249.673C311.253 254.178 312.883 259.06 316.762 260.578C320.641 262.095 325.299 259.673 327.167 255.168Z" fill="white"/>
<path opacity="0.68" d="M372.84 249.395C378.6 247.693 381.531 240.733 379.387 233.848C377.243 226.963 370.836 222.761 365.076 224.462C359.317 226.164 356.385 233.125 358.529 240.01C360.673 246.895 367.08 251.097 372.84 249.395Z" fill="white"/>
<path opacity="0.68" d="M382.596 264.046C385.81 263.522 387.802 259.525 387.045 255.119C386.288 250.712 383.068 247.565 379.854 248.089C376.64 248.613 374.648 252.61 375.405 257.016C376.162 261.423 379.381 264.57 382.596 264.046Z" fill="white"/>
<path opacity="0.68" d="M349.423 263.012C351.697 257.514 349.688 251.546 344.936 249.682C340.184 247.818 334.489 250.764 332.216 256.262C329.942 261.759 331.952 267.727 336.703 269.591C341.455 271.456 347.15 268.51 349.423 263.012Z" fill="white"/>
<path opacity="0.4" d="M361.835 268.228C366.568 268.228 370.404 264.491 370.404 259.881C370.404 255.272 366.568 251.535 361.835 251.535C357.102 251.535 353.266 255.272 353.266 259.881C353.266 264.491 357.102 268.228 361.835 268.228Z" fill="white"/>
<path d="M334.309 252.855C340.813 254.625 344.236 249.447 344.236 249.447L344.232 249.44C340.764 248.433 336.918 249.85 334.309 252.855Z" fill="#292A2E"/>
<path d="M375.395 254.975C378.597 253.78 381.25 251.503 382.869 248.559C381.992 248.102 380.986 247.937 380.003 248.087C377.295 248.528 375.456 251.434 375.395 254.975Z" fill="#292A2E"/>
<path d="M360.307 251.669C362.802 253.858 365.918 255.259 369.246 255.688C368.36 254.205 367.027 253.024 365.428 252.305C363.829 251.586 362.041 251.364 360.307 251.669V251.669Z" fill="#292A2E"/>
<path d="M399.447 279.875H15.0412C14.8943 279.875 14.7534 279.818 14.6495 279.717C14.5457 279.616 14.4873 279.478 14.4873 279.335C14.4873 279.192 14.5457 279.055 14.6495 278.954C14.7534 278.853 14.8943 278.796 15.0412 278.796H399.447C399.593 278.796 399.734 278.853 399.838 278.954C399.942 279.055 400 279.192 400 279.335C400 279.478 399.942 279.616 399.838 279.717C399.734 279.818 399.593 279.875 399.447 279.875Z" fill="#292A2E"/>
<path d="M220.216 108.497L213.176 122.345L213.291 120.25C213.315 119.572 213.074 118.911 212.616 118.4C212.159 117.89 211.519 117.567 210.826 117.498C210.468 117.475 210.108 117.523 209.77 117.639C209.431 117.755 209.12 117.938 208.856 118.175C208.592 118.412 208.38 118.7 208.234 119.019C208.088 119.339 208.01 119.684 208.005 120.034L207.562 145.978L216.095 146.326C218.745 146.434 221.368 145.769 223.628 144.415C225.888 143.062 227.681 141.082 228.778 138.729L233.727 128.065C233.995 127.516 234.06 126.893 233.911 126.302C233.762 125.711 233.408 125.189 232.909 124.823C232.451 124.503 231.9 124.333 231.337 124.338C230.773 124.344 230.226 124.525 229.775 124.855C229.754 124.819 229.723 124.788 229.685 124.767C229.649 124.749 229.609 124.74 229.569 124.741C229.529 124.741 229.489 124.752 229.454 124.771L230.37 122.806C230.671 122.195 230.722 121.495 230.513 120.849C230.304 120.203 229.852 119.658 229.246 119.324C228.694 119.044 228.059 118.963 227.452 119.095C226.844 119.226 226.304 119.562 225.926 120.044C225.916 120.018 225.901 119.995 225.883 119.974L226.259 119.165C226.527 118.616 226.592 117.993 226.443 117.403C226.294 116.812 225.94 116.29 225.441 115.924C224.886 115.534 224.197 115.369 223.52 115.464C222.842 115.558 222.229 115.904 221.808 116.43C221.791 116.423 221.773 116.418 221.755 116.416L224.687 110.648C224.981 110.071 225.027 109.403 224.815 108.792C224.604 108.182 224.152 107.678 223.559 107.392C222.966 107.106 222.281 107.061 221.654 107.267C221.027 107.473 220.51 107.913 220.216 108.49V108.497Z" fill="#E98862"/>
<path opacity="0.2" d="M221.968 116.687C221.963 116.715 221.955 116.742 221.942 116.767L219.028 122.337C219.013 122.365 218.993 122.391 218.968 122.411C218.943 122.432 218.915 122.448 218.884 122.457C218.853 122.467 218.82 122.471 218.787 122.469C218.755 122.466 218.723 122.457 218.694 122.443C218.665 122.429 218.639 122.409 218.618 122.385C218.597 122.36 218.58 122.332 218.57 122.302C218.56 122.272 218.556 122.24 218.559 122.208C218.561 122.177 218.57 122.146 218.585 122.117L221.499 116.547C221.526 116.497 221.57 116.457 221.623 116.435C221.677 116.413 221.737 116.41 221.793 116.427C221.849 116.443 221.897 116.478 221.929 116.526C221.96 116.574 221.974 116.631 221.967 116.687H221.968Z" fill="#0A0A0A"/>
<path opacity="0.2" d="M225.946 120.156C225.943 120.184 225.934 120.21 225.921 120.235L223.666 124.63C223.653 124.66 223.633 124.688 223.609 124.71C223.584 124.733 223.555 124.751 223.523 124.762C223.492 124.773 223.458 124.778 223.424 124.776C223.39 124.775 223.357 124.766 223.327 124.751C223.297 124.737 223.27 124.716 223.248 124.691C223.226 124.665 223.21 124.636 223.2 124.605C223.191 124.573 223.188 124.54 223.192 124.507C223.195 124.475 223.206 124.443 223.223 124.414L225.478 120.019C225.504 119.968 225.548 119.927 225.602 119.905C225.656 119.882 225.716 119.879 225.772 119.895C225.829 119.912 225.877 119.947 225.909 119.995C225.941 120.043 225.954 120.1 225.947 120.157L225.946 120.156Z" fill="#0A0A0A"/>
<path opacity="0.2" d="M229.815 125.014C229.811 125.043 229.802 125.071 229.788 125.097L228.673 127.147C228.658 127.177 228.638 127.203 228.613 127.224C228.588 127.246 228.558 127.262 228.526 127.272C228.495 127.282 228.461 127.286 228.428 127.283C228.394 127.281 228.362 127.271 228.332 127.256C228.303 127.241 228.277 127.22 228.256 127.195C228.235 127.169 228.219 127.14 228.21 127.109C228.201 127.078 228.198 127.045 228.202 127.012C228.206 126.98 228.217 126.949 228.234 126.921L229.349 124.871C229.376 124.821 229.42 124.782 229.474 124.76C229.528 124.739 229.587 124.737 229.643 124.754C229.698 124.771 229.746 124.806 229.777 124.853C229.808 124.901 229.822 124.958 229.815 125.014V125.014Z" fill="#0A0A0A"/>
<path d="M203.31 128.74L182.436 187.057L148.511 143.845L116.769 169.679L175.413 230.678C177.499 232.999 180.178 234.74 183.179 235.725C186.18 236.71 189.395 236.903 192.498 236.285C195.6 235.667 198.479 234.259 200.841 232.205C203.204 230.152 204.966 227.525 205.948 224.593L234.533 138.72L203.31 128.74Z" fill="#FBAF55"/>
<path d="M18.0568 253.934C15.1474 253.934 12.281 253.249 9.70179 251.938C7.12255 250.627 4.90678 248.728 3.24315 246.403C1.57952 244.078 0.51729 241.397 0.146912 238.586C-0.223467 235.775 0.108971 232.919 1.11592 230.26C2.13779 227.563 26.1918 164.021 30.7523 152.572L64.4229 165.296C61.8591 171.733 52.5704 196.133 45.1044 215.79L57.5042 214.478L61.4077 249.45L20.0108 253.831C19.3618 253.9 18.7095 253.934 18.0568 253.934V253.934Z" fill="#FBAF55"/>
<path d="M39.6974 252.138L34.1909 278.834H141.142L134.982 251.63L39.6974 252.138Z" fill="#262626"/>
<path d="M62.8224 132.832C53.8865 133.479 44.775 136.305 38.065 142.09C27.9455 150.815 28.846 156.269 33.8978 180.431C38.2444 201.221 36.5197 210.306 39.4275 248.67C39.5133 249.803 39.6967 252.137 39.6967 252.137L135.285 251.983C135.285 251.983 144.241 201.084 149.187 177.608C152.947 159.761 162.824 138.095 121.178 133.728C121.068 133.717 87.6668 131.036 62.8224 132.832Z" fill="#FBAF55"/>
<path d="M121.178 133.728C121.067 133.714 118.033 144.835 94.3559 143.105C77.9617 141.909 73.9673 131.041 73.5918 131.041C75.3592 130.675 78.2287 130.295 79.0141 129.887C81.595 128.538 83.4754 126.892 84.4214 123.363C85.1619 120.603 85.5391 109.978 85.5391 104.648L110.762 110.168C110.411 116.182 107.95 130.121 116.574 132.589C118.01 132.998 119.555 133.374 121.178 133.728Z" fill="#E98862"/>
<path d="M109.886 121.992C99.9422 122.756 87.1686 118.667 84.7405 105.745L82.5511 94.0851C80.1252 81.1632 85.1259 69.4464 97.616 67.2194C110.107 64.9941 121.411 73.8064 123.837 86.7284L124.807 91.8906C125.742 96.8505 127.63 120.629 109.886 121.992Z" fill="#E98862"/>
<path d="M119.108 110.128C117.323 101.393 116.505 95.5622 116.6 89.416C119.114 85.1207 118.453 80.191 117.882 78.0606C120.346 79.3699 121.376 79.5129 123.697 79.5129C123.697 79.5129 119.539 63.2602 105.408 58.8867C102.809 57.9017 96.1748 56.6576 87.3652 57.8342C79.872 58.8355 61.402 64.2922 58.7634 84.5462V84.5575C58.6759 85.2291 56.9025 103.891 53.3672 112.844C48.614 124.88 41.9411 128.62 42.1106 142.506C42.3283 160.369 76.0432 162.747 96.3787 161.411C116.714 160.075 128.066 153.562 128.213 140.688C128.374 126.265 122.68 127.605 119.108 110.128Z" fill="#0A0A0A"/>
<path d="M119.114 102.806C115.318 103.482 111.498 100.074 110.806 96.3767C110.114 92.6791 112.806 90.0924 116.602 89.4175L119.114 102.806Z" fill="#E98862"/>
<path d="M144.765 201.09C144.75 201.09 144.735 201.088 144.72 201.085C144.689 201.08 144.66 201.068 144.633 201.051C144.607 201.035 144.584 201.013 144.566 200.988C144.548 200.962 144.536 200.934 144.529 200.903C144.523 200.873 144.522 200.842 144.528 200.812L148.536 176.356C148.55 176.297 148.587 176.246 148.64 176.213C148.692 176.18 148.755 176.168 148.816 176.179C148.877 176.19 148.931 176.224 148.967 176.273C149.003 176.323 149.018 176.384 149.009 176.443L145.003 200.899C144.992 200.953 144.963 201.001 144.92 201.036C144.876 201.071 144.821 201.09 144.765 201.09V201.09Z" fill="#0C0C0C"/>
<path d="M39.6968 252.372C39.6346 252.372 39.5748 252.349 39.53 252.307C39.4852 252.265 39.4588 252.207 39.4564 252.147L36.4611 176.409C36.4586 176.347 36.4815 176.286 36.5248 176.24C36.5681 176.195 36.6283 176.168 36.6921 176.165C36.7551 176.165 36.8157 176.189 36.8619 176.231C36.9081 176.272 36.9366 176.329 36.9419 176.391L39.9377 252.129C39.9401 252.191 39.9171 252.251 39.8737 252.297C39.8303 252.343 39.77 252.37 39.7062 252.372H39.6968Z" fill="#0C0C0C"/>
</svg>
