<svg width="421" height="253" viewBox="0 0 421 253" fill="none" xmlns="http://www.w3.org/2000/svg">
<path d="M394.823 235.083H26.4245C21.816 235.083 18.0801 238.805 18.0801 243.396V243.396C18.0801 247.987 21.816 251.709 26.4245 251.709H394.823C399.432 251.709 403.168 247.987 403.168 243.396V243.396C403.168 238.805 399.432 235.083 394.823 235.083Z" fill="#262626"/>
<path d="M364.99 0H55.0198C48.2321 0 42.7295 5.48167 42.7295 12.2437V225.541C42.7295 232.303 48.2321 237.785 55.0198 237.785H364.99C371.778 237.785 377.281 232.303 377.281 225.541V12.2437C377.281 5.48167 371.778 0 364.99 0Z" fill="#262626"/>
<path d="M364.228 8.35022H55.7845C52.7834 8.35022 50.3506 10.7738 50.3506 13.7635V223.757C50.3506 226.747 52.7834 229.17 55.7845 229.17H364.228C367.229 229.17 369.662 226.747 369.662 223.757V13.7635C369.662 10.7738 367.229 8.35022 364.228 8.35022Z" fill="white"/>
<path d="M204.552 19.0549H61.1411V114.225H204.552V19.0549Z" fill="#F3F5FD"/>
<path d="M78.299 31.0168H66.4043V114.101H78.299V31.0168Z" fill="#C1D8ED"/>
<path d="M78.2984 114.101H117.28L117.28 31.0168H78.2984V114.101Z" fill="#DEE8F5"/>
<g opacity="0.53">
<path opacity="0.53" d="M80.0569 112.369H115.524V83.3425H80.0569V112.369Z" fill="#F3F5FD"/>
</g>
<g opacity="0.53">
<path opacity="0.53" d="M80.0574 47.8826L115.525 47.8826V32.804H80.0574V47.8826Z" fill="white"/>
</g>
<g opacity="0.53">
<path opacity="0.53" d="M80.0569 64.6798H115.524V49.6013H80.0569V64.6798Z" fill="white"/>
</g>
<g opacity="0.53">
<path opacity="0.53" d="M80.0569 81.4772H115.524V66.3987H80.0569V81.4772Z" fill="white"/>
</g>
<path d="M97.0046 112.923H98.5771V82.8408H97.0046V112.923Z" fill="#DEE8F5"/>
<path d="M102.44 108.017C103.324 108.017 104.041 107.303 104.041 106.423C104.041 105.542 103.324 104.828 102.44 104.828C101.557 104.828 100.84 105.542 100.84 106.423C100.84 107.303 101.557 108.017 102.44 108.017Z" fill="white"/>
<path d="M93.1382 108.017C94.022 108.017 94.7384 107.303 94.7384 106.423C94.7384 105.542 94.022 104.828 93.1382 104.828C92.2545 104.828 91.5381 105.542 91.5381 106.423C91.5381 107.303 92.2545 108.017 93.1382 108.017Z" fill="white"/>
<path d="M108.887 52.617V54.9845V64.6801H96.3945V54.9845V52.617H108.887Z" fill="#C1D8ED"/>
<path d="M112.676 54.9841H100.184V64.68H112.676V54.9841Z" fill="#DEE8F5"/>
<path d="M112.676 54.9841H100.184V55.711H112.676V54.9841Z" fill="#C1D8ED"/>
<path d="M100.184 54.9835H112.677V52.6159H100.184V54.9835Z" fill="#DEE8F5"/>
<path d="M105.074 58.3869H107.787C107.961 58.3869 108.103 58.2459 108.103 58.072V57.2451C108.103 57.0712 107.961 56.9302 107.787 56.9302H105.074C104.899 56.9302 104.758 57.0712 104.758 57.2451V58.072C104.758 58.2459 104.899 58.3869 105.074 58.3869Z" fill="white"/>
<path d="M94.8774 54.2579V56.3036V64.6797H84.085V56.3036V54.2579H94.8774Z" fill="#C1D8ED"/>
<path d="M98.4131 56.3045H87.6206V64.681H98.4131V56.3045Z" fill="#DEE8F5"/>
<path d="M98.4131 56.3045H87.6206V56.9327H98.4131V56.3045Z" fill="#C1D8ED"/>
<path d="M87.6221 56.3045H98.4146V54.2582H87.6221V56.3045Z" fill="#DEE8F5"/>
<path d="M91.8453 59.2435H94.189C94.3397 59.2435 94.4619 59.1217 94.4619 58.9715V58.2571C94.4619 58.1069 94.3397 57.9852 94.189 57.9852H91.8453C91.6945 57.9852 91.5724 58.1069 91.5724 58.2571V58.9715C91.5724 59.1217 91.6945 59.2435 91.8453 59.2435Z" fill="white"/>
<path d="M114.706 38.351L113.074 37.9663L111.028 46.5899L112.661 46.9746L114.706 38.351Z" fill="white"/>
<path d="M111.277 37.2971L110.371 37.4644L111.767 45.0347L112.674 44.8674L111.277 37.2971Z" fill="#C1D8ED"/>
<path d="M111.277 37.2948L110.372 37.4671L110.531 38.3024L111.436 38.13L111.277 37.2948Z" fill="#DEE8F5"/>
<path d="M114.082 39.221L111.146 46.6478L111.649 46.8453L114.586 39.4186L114.082 39.221Z" fill="#C1D8ED"/>
<path d="M114.726 42.4701H110.299V48.1065H114.726V42.4701Z" fill="#C1D8ED"/>
<path d="M107.956 38.0776H104.2V47.9978H107.956V38.0776Z" fill="#C1D8ED"/>
<path d="M104.576 36.7117H102.566V47.997H104.576V36.7117Z" fill="#DEE8F5"/>
<path d="M102.568 37.3489H99.4409V47.9973H102.568V37.3489Z" fill="white"/>
<path d="M91.8536 37.3489H90.0264V47.9973H91.8536V37.3489Z" fill="#DEE8F5"/>
<path d="M95.4399 38.1091L91.9902 39.7826L95.99 47.9651L99.4396 46.2917L95.4399 38.1091Z" fill="#DEE8F5"/>
<path d="M90.0405 38.1376H86.2842V48.0578H90.0405V38.1376Z" fill="#C1D8ED"/>
<path d="M86.6596 36.772H84.6499V48.0574H86.6596V36.772Z" fill="#DEE8F5"/>
<path d="M84.6497 37.4091H81.5225V48.0575H84.6497V37.4091Z" fill="#C1D8ED"/>
<path d="M106.008 71.3047L104.262 70.7673L101.109 80.9419L102.854 81.4793L106.008 71.3047Z" fill="#DEE8F5"/>
<path d="M86.8824 71.5574H83.126V81.4776H86.8824V71.5574Z" fill="#C1D8ED"/>
<path d="M88.517 70.1915H86.5073V81.4768H88.517V70.1915Z" fill="white"/>
<path d="M91.6434 70.8293H88.5161V81.4777H91.6434V70.8293Z" fill="#DEE8F5"/>
<path d="M101.056 70.8293H99.229V81.4777H101.056V70.8293Z" fill="#DEE8F5"/>
<path d="M99.092 73.2955L95.6426 71.6215L91.6443 79.8047L95.0937 81.4788L99.092 73.2955Z" fill="white"/>
<path d="M106.93 76.1746C107.006 76.311 107.133 76.4116 107.284 76.4545C107.435 76.4975 107.596 76.4791 107.734 76.4036C107.832 76.3707 107.937 76.363 108.039 76.3812C108.141 76.3995 108.237 76.443 108.318 76.5078C108.584 76.7065 108.77 76.9938 108.842 77.3174H111.955C111.967 77.1305 111.991 76.9445 112.027 76.7608C112.111 76.2592 112.349 75.7957 112.708 75.4338C112.793 75.3411 112.907 75.28 113.032 75.2603C113.102 75.3002 113.18 75.3253 113.26 75.3341C113.341 75.3429 113.422 75.3352 113.499 75.3115C113.577 75.2877 113.648 75.2485 113.71 75.1961C113.771 75.1438 113.821 75.0795 113.857 75.0071C113.892 74.9347 113.913 74.8558 113.917 74.7753C113.92 74.6949 113.908 74.6144 113.879 74.539C113.85 74.4637 113.807 74.3949 113.75 74.337C113.694 74.2791 113.627 74.2333 113.552 74.2024C113.273 74.088 112.965 74.0616 112.671 74.1269C112.376 74.1922 112.109 74.346 111.905 74.5675C111.746 74.7144 111.603 74.878 111.479 75.0553C111.526 74.7547 111.6 74.4588 111.699 74.171C111.819 73.8074 112.037 73.4842 112.331 73.2378C112.45 73.141 112.526 73.0021 112.544 72.8503C112.562 72.6986 112.52 72.5457 112.428 72.4241C112.335 72.3024 112.198 72.2213 112.047 72.1979C111.895 72.1746 111.74 72.2107 111.615 72.2987C111.138 72.681 110.781 73.1923 110.588 73.7713C110.567 73.8299 110.549 73.8893 110.528 73.9495C110.16 73.0356 109.783 72.2622 109.022 71.8168C108.887 71.7444 108.729 71.7268 108.582 71.7679C108.434 71.809 108.308 71.9055 108.231 72.0371C108.153 72.1687 108.129 72.3252 108.165 72.4737C108.201 72.6222 108.293 72.7511 108.422 72.8334C108.886 73.1052 109.164 73.7197 109.478 74.5081C109.132 74.1103 108.717 73.7772 108.254 73.5246C108.185 73.4824 108.109 73.4546 108.029 73.4428C107.95 73.431 107.868 73.4356 107.791 73.4561C107.713 73.4766 107.64 73.5128 107.577 73.5623C107.513 73.6118 107.461 73.6736 107.422 73.744C107.384 73.8145 107.36 73.892 107.352 73.9718C107.345 74.0517 107.354 74.1322 107.379 74.2085C107.404 74.2848 107.444 74.3553 107.497 74.4156C107.55 74.4759 107.615 74.5248 107.687 74.5593C108.048 74.7573 108.368 75.0213 108.63 75.3374C108.398 75.2343 108.145 75.1839 107.891 75.1901C107.637 75.1962 107.387 75.2586 107.16 75.3728C107.023 75.4488 106.922 75.5758 106.878 75.7262C106.835 75.8765 106.854 76.0378 106.93 76.1746V76.1746Z" fill="#8DDBE0"/>
<path d="M113.12 77.3174H107.618V78.9114H113.12V77.3174Z" fill="#DEE8F5"/>
<path d="M107.618 78.9109V80.6577C107.618 80.8749 107.705 81.0833 107.859 81.2369C108.013 81.3905 108.222 81.4768 108.44 81.4768H112.297C112.516 81.4768 112.725 81.3905 112.879 81.2369C113.033 81.0833 113.12 80.875 113.12 80.6577V78.9109H107.618Z" fill="#C1D8ED"/>
<path d="M191.318 38.2182V80.6579H168.587V81.5706H167.562V80.6579H144.831V38.2182H191.318Z" fill="white"/>
<path d="M191.318 27.7034H144.83V80.6574H191.318V27.7034Z" fill="white"/>
<g opacity="0.78">
<path opacity="0.78" d="M158.657 57.4184H147.393V81.5705H158.657V57.4184Z" fill="#C1D8ED"/>
</g>
<g opacity="0.78">
<path opacity="0.78" d="M169.814 52.2467L180.773 48.8704V82.0332H169.814V52.2467Z" fill="#C1D8ED"/>
</g>
<path d="M157.724 61.9887L164.87 57.2855L171.557 61.9887V82.0332H157.724V61.9887Z" fill="#DEE8F5"/>
<path d="M191.306 66.9584H177.757V82.0331H191.306V66.9584Z" fill="#DEE8F5"/>
<path d="M149.738 73.0437H144.83V81.4453H149.738V73.0437Z" fill="#DEE8F5"/>
<path d="M191.319 58.9275H144.831V59.9489H191.319V58.9275Z" fill="#F3F5FD"/>
<path d="M191.319 47.8625H144.831V48.8839H191.319V47.8625Z" fill="#F3F5FD"/>
<path d="M191.319 69.9948H144.831V71.0162H191.319V69.9948Z" fill="#F3F5FD"/>
<path d="M168.587 38.2182H167.562V81.5706H168.587V38.2182Z" fill="#F3F5FD"/>
<path d="M194.597 80.6577H141.551V83.0921H194.597V80.6577Z" fill="#C1D8ED"/>
<path d="M194.598 25.2692H141.552V27.7036H194.598V25.2692Z" fill="#C1D8ED"/>
<path d="M191.318 36.0919H144.83V38.22H191.318V36.0919Z" fill="#DEE8F5"/>
<path d="M191.318 33.2959H144.83V35.424H191.318V33.2959Z" fill="#DEE8F5"/>
<path d="M191.318 30.4999H144.83V32.6281H191.318V30.4999Z" fill="#DEE8F5"/>
<path d="M191.318 27.7034H144.83V29.8316H191.318V27.7034Z" fill="#DEE8F5"/>
<path d="M103.476 42.956C103.389 34.5686 106.717 29.3709 111.229 26.5171C115.68 23.7011 129.64 21.2501 134.933 31.474C138.387 38.1443 137.024 40.5287 138.002 51.2125C138.98 61.8963 142.741 63.0171 146.55 75.9666C149.54 86.1244 132.793 91.5168 118.288 91.0506C103.783 90.5844 94.5907 87.386 93.7491 78.1964C92.5411 65.0066 103.646 59.393 103.476 42.956Z" fill="#0F1011"/>
<path d="M112.118 66.1458C112.118 66.1458 116.475 63.7932 115.388 51.9249L124.419 50.1711C124.419 50.1711 123.501 60.8293 128.108 64.1686L112.118 66.1458Z" fill="#E98862"/>
<g opacity="0.15">
<path opacity="0.15" d="M126.232 61.9592L118.664 56.3004L124.566 56.1855C124.809 58.1628 125.293 60.2829 126.232 61.9592Z" fill="black"/>
</g>
<path d="M110.21 47.3665C110.87 50.9642 112.875 54.3589 116.077 55.4935C119.877 56.8409 122.702 57.2638 127.051 56.8704C136.947 55.9711 134.781 33.5567 130.04 29.2425C125.298 24.9284 111.526 27.8117 109.913 35.1149C109.08 38.8921 109.583 43.9415 110.21 47.3665Z" fill="#E98862"/>
<path d="M124.347 44.4616C124.8 44.4616 125.167 44.0956 125.167 43.6441C125.167 43.1926 124.8 42.8266 124.347 42.8266C123.894 42.8266 123.526 43.1926 123.526 43.6441C123.526 44.0956 123.894 44.4616 124.347 44.4616Z" fill="#0F1011"/>
<path d="M130.814 43.8745C131.267 43.8745 131.634 43.5085 131.634 43.057C131.634 42.6055 131.267 42.2395 130.814 42.2395C130.361 42.2395 129.994 42.6055 129.994 43.057C129.994 43.5085 130.361 43.8745 130.814 43.8745Z" fill="#0F1011"/>
<path d="M132.215 41.3012L130.043 41.2937C129.941 41.2937 129.843 41.2533 129.771 41.1812C129.698 41.1092 129.658 41.0115 129.658 40.9096C129.658 40.8077 129.698 40.71 129.771 40.638C129.843 40.5659 129.941 40.5255 130.043 40.5255V40.5255L132.215 40.5329C132.317 40.5329 132.415 40.5734 132.488 40.6454C132.56 40.7175 132.601 40.8152 132.601 40.9171C132.601 41.019 132.56 41.1167 132.488 41.1887C132.415 41.2607 132.317 41.3012 132.215 41.3012V41.3012Z" fill="#0F1011"/>
<path d="M122.557 42.182C122.463 42.182 122.372 42.1477 122.302 42.0855C122.231 42.0234 122.186 41.9377 122.175 41.8446C122.163 41.7516 122.186 41.6575 122.24 41.5803C122.293 41.503 122.373 41.4478 122.464 41.4251L124.602 40.8914C124.652 40.8781 124.703 40.8747 124.754 40.8815C124.805 40.8883 124.853 40.9051 124.898 40.9309C124.942 40.9567 124.98 40.9911 125.011 41.0319C125.042 41.0727 125.064 41.1193 125.076 41.1688C125.089 41.2183 125.091 41.2697 125.084 41.3202C125.076 41.3706 125.058 41.419 125.031 41.4626C125.005 41.5061 124.97 41.5439 124.928 41.5738C124.887 41.6036 124.84 41.6249 124.79 41.6365L122.651 42.1702C122.621 42.178 122.589 42.1819 122.557 42.182V42.182Z" fill="#0F1011"/>
<path d="M124.783 50.077C124.783 50.077 127.815 50.3677 129.93 49.6093C129.93 49.6093 129.93 51.5964 127.537 51.8123C125.144 52.0283 124.783 50.077 124.783 50.077Z" fill="white"/>
<path d="M116.789 37.9688C117.53 50.7204 114.982 60.4918 114.982 60.4918C114.982 60.4918 107.263 51.2546 106.097 41.3911C105.003 32.146 111.799 26.617 116.415 25.5446C133.957 21.4681 135.176 34.2153 135.176 34.2153C134.041 38.5636 114.891 41.2616 114.891 41.2616" fill="#0F1011"/>
<path d="M120.235 47.2039C120.314 48.1167 120.027 49.0237 119.437 49.7264C118.847 50.4291 118.001 50.8703 117.085 50.9535C116.17 51.0367 115.258 50.7552 114.55 50.1704C113.842 49.5857 113.395 48.7454 113.307 47.8333C113.258 47.3787 113.3 46.9189 113.433 46.4811C113.566 46.0434 113.785 45.6367 114.079 45.2854C114.373 44.934 114.735 44.6451 115.143 44.4359C115.551 44.2267 115.997 44.1014 116.455 44.0676C118.933 43.9649 120.06 45.2982 120.235 47.2039Z" fill="#E98862"/>
<g opacity="0.15">
<path opacity="0.15" d="M128.026 48.1439C127.958 48.1438 127.893 48.1197 127.842 48.0759C127.791 48.0321 127.757 47.9715 127.747 47.9051C127.736 47.8386 127.75 47.7707 127.786 47.7135C127.821 47.6563 127.876 47.6136 127.94 47.5932L129.604 47.0672L128.413 44.4884C128.395 44.4545 128.384 44.4173 128.381 44.3791C128.378 44.3408 128.383 44.3023 128.395 44.266C128.407 44.2296 128.427 44.1962 128.453 44.1676C128.478 44.1391 128.51 44.1161 128.545 44.1C128.58 44.0839 128.618 44.0751 128.656 44.0741C128.695 44.0731 128.733 44.08 128.769 44.0942C128.804 44.1085 128.837 44.1299 128.864 44.1571C128.891 44.1842 128.912 44.2167 128.927 44.2523L130.252 47.1211C130.268 47.1574 130.277 47.1968 130.278 47.2368C130.278 47.2768 130.27 47.3164 130.254 47.353C130.237 47.3896 130.213 47.4223 130.184 47.449C130.154 47.4757 130.118 47.4957 130.08 47.5078L128.111 48.1302C128.083 48.139 128.055 48.1437 128.026 48.1439V48.1439Z" fill="black"/>
</g>
<path d="M171.547 71.0671C171.547 71.0671 172.45 64.3713 177.219 65.3028C180.228 65.8906 194.734 66.9701 194.788 68.3061C194.924 71.6108 181.634 70.8023 180.068 73.675L171.547 71.0671Z" fill="#E98862"/>
<path d="M175.488 65.3126C175.488 65.3126 182.451 63.9494 184.05 64.5383C185.465 65.0596 182.139 67.0561 182.139 67.0561L175.488 65.3126Z" fill="#E98862"/>
<path d="M154.533 109.154C154.443 109.154 154.353 109.154 154.263 109.147C153.308 109.101 152.382 108.809 151.575 108.299C150.768 107.789 150.107 107.08 149.657 106.239L131.938 73.1124L142.291 68.5398L155.056 92.9311L172.05 67.4776L181.248 73.5719L159.131 106.699C158.627 107.454 157.943 108.073 157.141 108.501C156.339 108.93 155.443 109.154 154.533 109.154V109.154Z" fill="#205198"/>
<path d="M143.156 114.226H97.9053C99.105 110.725 99.7665 107.065 99.8676 103.367C99.8755 103.041 99.8794 102.709 99.8794 102.372C99.8531 100.496 99.6356 98.6278 99.2302 96.796C97.7346 89.5663 94.1753 81.7284 94.3779 75.0881C94.4719 71.9235 95.4236 69.0296 97.8571 66.6034C100.438 64.0341 104.892 62.3747 110.324 62.3688C110.73 65.5239 129.963 65.5353 130.109 62.4412C130.844 62.4526 131.415 62.464 131.768 62.4805C138.637 62.7763 141.88 65.8186 143.224 70.3223C145.013 76.3065 143.447 84.8694 142.577 93.0011C142.315 95.4426 142.118 97.8464 142.091 100.128C141.987 104.85 142.343 109.572 143.156 114.226V114.226Z" fill="#205198"/>
<path d="M130.109 62.4403C129.962 65.5337 128.274 70.0842 123.062 70.4265C116.118 70.8824 110.731 65.5219 110.324 62.3663H110.341C117.179 62.3671 126.123 62.3781 130.109 62.4403Z" fill="#E98862"/>
<path d="M120.13 108.918L118.665 114.225H97.9046C97.903 114.231 97.901 114.236 97.8987 114.24L97.845 114.225L88.9911 111.799C88.2783 111.603 87.6121 111.267 87.032 110.811C86.4519 110.354 85.9697 109.786 85.614 109.141C85.2583 108.495 85.0363 107.785 84.9612 107.052C84.8861 106.319 84.9594 105.579 85.1767 104.875L94.3781 75.0868L95.4408 71.6437L105.999 74.8791L99.2303 96.7947L97.4094 102.693L99.8677 103.366L120.13 108.918Z" fill="#205198"/>
<path d="M132.719 109.252C135.296 109.252 137.385 107.171 137.385 104.603C137.385 102.036 135.296 99.955 132.719 99.955C130.142 99.955 128.053 102.036 128.053 104.603C128.053 107.171 130.142 109.252 132.719 109.252Z" fill="#FD5D76"/>
<path d="M135.018 106.038H133.884C133.738 106.038 133.597 105.98 133.493 105.877C133.39 105.774 133.331 105.633 133.331 105.487V104.723C133.331 104.584 133.384 104.45 133.479 104.348C133.23 104.294 132.975 104.269 132.721 104.273C132.452 104.268 132.183 104.297 131.921 104.359C132.025 104.462 132.083 104.602 132.083 104.748V105.487C132.083 105.633 132.024 105.774 131.921 105.877C131.817 105.98 131.676 106.038 131.53 106.038H130.424C130.277 106.038 130.137 105.98 130.033 105.877C129.929 105.774 129.871 105.633 129.871 105.487C129.871 104.058 130.963 103.169 132.722 103.169C134.481 103.169 135.574 104.058 135.574 105.487C135.574 105.56 135.56 105.632 135.532 105.699C135.504 105.766 135.463 105.827 135.411 105.878C135.359 105.929 135.298 105.97 135.23 105.997C135.163 106.025 135.091 106.039 135.018 106.038V106.038Z" fill="white"/>
<path d="M120.254 107.89C122.076 107.89 123.553 106.419 123.553 104.604C123.553 102.788 122.076 101.317 120.254 101.317C118.431 101.317 116.954 102.788 116.954 104.604C116.954 106.419 118.431 107.89 120.254 107.89Z" fill="#8DDBE0"/>
<path d="M120.255 105.66C120.051 105.66 119.857 105.579 119.713 105.436C119.569 105.293 119.488 105.099 119.488 104.896V103.436C119.488 103.233 119.569 103.039 119.712 102.896C119.856 102.753 120.051 102.672 120.255 102.672C120.458 102.672 120.653 102.753 120.797 102.896C120.941 103.039 121.022 103.233 121.022 103.436V104.896C121.021 105.099 120.94 105.293 120.797 105.436C120.653 105.579 120.458 105.66 120.255 105.66Z" fill="white"/>
<path d="M120.254 106.457C120.233 106.457 120.213 106.453 120.194 106.445C120.175 106.438 120.158 106.426 120.144 106.412C120.129 106.397 120.118 106.38 120.11 106.361C120.102 106.343 120.098 106.322 120.098 106.302V104.907C120.098 104.866 120.115 104.826 120.144 104.797C120.173 104.768 120.212 104.752 120.254 104.752C120.295 104.752 120.335 104.768 120.364 104.797C120.393 104.826 120.409 104.866 120.409 104.907V106.302C120.409 106.323 120.405 106.343 120.398 106.362C120.39 106.38 120.378 106.397 120.364 106.412C120.349 106.426 120.332 106.438 120.313 106.446C120.294 106.453 120.274 106.457 120.254 106.457V106.457Z" fill="white"/>
<path d="M120.953 106.536H119.553C119.511 106.536 119.472 106.52 119.443 106.491C119.413 106.462 119.397 106.422 119.397 106.381C119.397 106.339 119.413 106.3 119.443 106.271C119.472 106.241 119.511 106.225 119.553 106.225H120.953C120.994 106.225 121.033 106.241 121.063 106.271C121.092 106.3 121.108 106.339 121.108 106.381C121.108 106.422 121.092 106.462 121.063 106.491C121.033 106.52 120.994 106.536 120.953 106.536Z" fill="white"/>
<path d="M145.182 107.89C147.005 107.89 148.482 106.419 148.482 104.604C148.482 102.788 147.005 101.317 145.182 101.317C143.36 101.317 141.883 102.788 141.883 104.604C141.883 106.419 143.36 107.89 145.182 107.89Z" fill="#205198"/>
<path d="M146.134 103.53H143.474V105.678H146.134V103.53Z" fill="white"/>
<path d="M146.892 105.504L145.949 104.564L146.892 103.624" fill="white"/>
<path d="M358.874 19.0549H215.462V114.224H358.874V19.0549Z" fill="#F3F5FD"/>
<path d="M288.986 67.9296V34.039H247.663V67.9296H288.986Z" fill="#DEE8F5"/>
<path d="M286.135 65.0916V36.8771H250.51V65.0916H286.135Z" fill="white"/>
<path d="M273.958 57.3537V42.265H256.238V57.3537H273.958Z" fill="#C1D8ED"/>
<path d="M274.93 62.0033C277.955 62.0033 280.406 59.5611 280.406 56.5483C280.406 53.5356 277.955 51.0933 274.93 51.0933C271.906 51.0933 269.455 53.5356 269.455 56.5483C269.455 59.5611 271.906 62.0033 274.93 62.0033Z" fill="#DEE8F5"/>
<path d="M266.383 62.0038V49.8093H263.966V62.0038H266.383Z" fill="#F3F5FD"/>
<path d="M265.933 113.939C265.269 113.716 264.671 113.334 264.191 112.826C263.71 112.319 263.363 111.701 263.179 111.028C262.825 109.673 262.871 108.245 263.311 106.915C263.631 105.825 264.116 104.772 264.235 103.643C264.633 99.8833 260.973 96.042 262.695 92.6737C263.252 91.5843 264.33 90.733 264.522 89.5264C264.68 88.5279 264.188 87.5593 263.942 86.5758C263.751 85.9048 263.715 85.1991 263.839 84.5123C263.962 83.8256 264.242 83.176 264.655 82.613C265.534 81.5319 267.196 81.0594 268.407 81.7518C269.992 82.6567 270.129 84.8928 269.721 86.6667C269.314 88.4406 268.56 90.2656 269.057 92.0171C269.531 93.6859 271.075 94.9428 271.352 96.6553C271.581 98.0787 270.884 99.467 270.578 100.876C270.096 103.091 270.586 105.387 270.607 107.653C270.628 109.919 269.987 112.459 265.933 113.939Z" fill="#8DDBE0"/>
<path d="M263.864 113.638C262.266 113.154 260.989 112.261 260.67 110.626C260.408 109.277 260.73 107.763 259.989 106.605C258.985 105.034 257.956 104.857 256.706 103.473C254.785 101.346 254.717 100.405 254.844 96.4636C254.898 94.7972 252.588 92.9167 253.401 91.3159C254.118 89.9051 256.296 89.8996 257.532 90.8906C258.767 91.8816 259.309 93.4741 259.848 94.9616C260.387 96.4491 261.065 98.0223 262.429 98.8296C263.248 99.3135 264.319 99.5377 264.771 100.372C265.134 101.041 264.951 101.86 264.805 102.608C264.438 104.488 264.529 106.781 266.113 107.867C266.828 108.357 267.764 108.525 268.351 109.161C268.932 109.79 269.025 110.721 268.986 111.574" fill="#DEE8F5"/>
<path d="M280.36 90.1946C280.36 92.5748 278.567 93.5976 277.655 94.6756C276.34 96.2363 275.644 98.2215 275.696 100.258C275.759 102.532 276.731 104.951 275.692 106.977C274.93 108.465 273.303 109.259 272.023 110.337C270.801 111.378 269.871 112.717 269.326 114.224H264.994C264.659 113.461 264.512 112.63 264.565 111.799C264.619 110.968 264.872 110.162 265.302 109.448C266.273 107.918 268.078 106.863 268.457 105.093C268.797 103.515 267.857 101.887 268.141 100.301C268.445 98.5743 270.045 97.4412 271.316 96.2295C271.647 95.9351 271.932 95.5929 272.161 95.2145C272.718 94.2113 272.564 92.9839 272.754 91.8509C273.117 89.6872 274.91 87.7634 277.086 87.4054C278.993 87.0907 280.36 88.1843 280.36 90.1946Z" fill="#F3F5FD"/>
<path d="M271.927 111.73H260.423V114.224H271.927V111.73Z" fill="#205198"/>
<path d="M351.173 104.654H319.434L321.587 81.3282C321.638 80.7701 321.897 80.2513 322.313 79.8736C322.728 79.4958 323.271 79.2864 323.833 79.2864H351.043C351.356 79.2864 351.667 79.3515 351.954 79.4777C352.241 79.6038 352.498 79.7882 352.709 80.0191C352.921 80.25 353.082 80.5222 353.181 80.8185C353.281 81.1148 353.318 81.4285 353.289 81.7397L351.173 104.654Z" fill="#C1D8ED"/>
<path d="M322.992 93.7501H301.415V112.977H322.992V93.7501Z" fill="#C1D8ED"/>
<path d="M345.023 104.654H314.455L316.607 81.3282C316.658 80.7702 316.917 80.2514 317.333 79.8737C317.749 79.496 318.291 79.2865 318.853 79.2864H344.891C345.205 79.2864 345.515 79.3515 345.802 79.4777C346.089 79.6038 346.346 79.7882 346.558 80.0191C346.769 80.25 346.93 80.5222 347.03 80.8185C347.13 81.1148 347.166 81.4285 347.138 81.7397L345.023 104.654Z" fill="#DEE8F5"/>
<g opacity="0.48">
<path opacity="0.48" d="M345.023 104.654H314.455L316.607 81.3282C316.658 80.7702 316.917 80.2514 317.333 79.8737C317.749 79.496 318.291 79.2865 318.853 79.2864H344.891C345.205 79.2864 345.515 79.3515 345.802 79.4777C346.089 79.6038 346.346 79.7882 346.558 80.0191C346.769 80.25 346.93 80.5222 347.03 80.8185C347.13 81.1148 347.166 81.4285 347.138 81.7397L345.023 104.654Z" fill="#C1D8ED"/>
</g>
<path d="M355.812 96.9378V113.02C355.813 113.433 355.732 113.842 355.575 114.224H334.234V93.7512H352.613C353.461 93.7512 354.275 94.087 354.875 94.6846C355.475 95.2822 355.812 96.0927 355.812 96.9378V96.9378Z" fill="#C1D8ED"/>
<path d="M337.744 97.2507V112.712C337.744 113.236 337.626 113.754 337.397 114.226H298.245C298.018 113.754 297.9 113.236 297.902 112.712V97.2507C297.932 96.3429 298.316 95.4825 298.971 94.8511C299.627 94.2197 300.503 93.8667 301.415 93.8667C302.326 93.8667 303.202 94.2197 303.858 94.8511C304.513 95.4825 304.897 96.3429 304.927 97.2507V109.214H330.723V97.2507C330.723 96.3231 331.093 95.4336 331.751 94.7777C332.409 94.1218 333.302 93.7533 334.233 93.7533C335.165 93.7533 336.058 94.1218 336.716 94.7777C337.374 95.4336 337.744 96.3231 337.744 97.2507V97.2507Z" fill="#DEE8F5"/>
<path d="M303.087 102.308H330.77V109.79H303.087C302.491 109.79 301.921 109.555 301.5 109.135C301.079 108.716 300.842 108.147 300.842 107.554V104.543C300.842 103.95 301.079 103.382 301.5 102.962C301.921 102.543 302.491 102.308 303.087 102.308V102.308Z" fill="#F3F5FD"/>
<g opacity="0.15">
<path opacity="0.15" d="M303.087 102.308H330.77V109.79H303.087C302.491 109.79 301.921 109.555 301.5 109.135C301.079 108.716 300.842 108.147 300.842 107.554V104.543C300.842 103.95 301.079 103.382 301.5 102.962C301.921 102.543 302.491 102.308 303.087 102.308V102.308Z" fill="#C1D8ED"/>
</g>
<path d="M230.179 111.73H251.757V93.7502H230.179V111.73Z" fill="#C1D8ED"/>
<path d="M238.713 104.653H215.457V79.2856H234.314C234.877 79.2852 235.419 79.4944 235.835 79.8722C236.251 80.2501 236.51 80.7691 236.561 81.3274L238.713 104.653Z" fill="#DEE8F5"/>
<g opacity="0.48">
<path opacity="0.48" d="M238.715 104.653H215.459V79.2856H234.316C234.879 79.2852 235.421 79.4944 235.837 79.8722C236.253 80.2501 236.512 80.7691 236.563 81.3274L238.715 104.653Z" fill="#C1D8ED"/>
</g>
<path d="M218.942 93.7512V114.224H215.463V113.205C215.439 113.041 215.428 112.875 215.428 112.71V97.2506C215.428 97.0847 215.439 96.9191 215.463 96.7549V93.7532L218.942 93.7512Z" fill="#C1D8ED"/>
<path d="M255.267 97.2507V112.712C255.269 113.236 255.151 113.754 254.924 114.226H215.772C215.544 113.754 215.425 113.236 215.425 112.712V97.2507C215.425 97.0848 215.436 96.9192 215.46 96.755C215.592 95.884 216.049 95.0945 216.739 94.5441C217.43 93.9936 218.303 93.7227 219.185 93.7852C220.067 93.8478 220.893 94.2392 221.498 94.8815C222.104 95.5239 222.443 96.3698 222.45 97.2507V109.214H248.246V97.2507C248.246 96.3231 248.616 95.4336 249.274 94.7777C249.932 94.1218 250.825 93.7533 251.756 93.7533C252.688 93.7533 253.581 94.1218 254.239 94.7777C254.897 95.4336 255.267 96.3231 255.267 97.2507V97.2507Z" fill="#DEE8F5"/>
<path d="M250.085 109.79H222.402V102.308H250.085C250.68 102.308 251.251 102.543 251.672 102.962C252.093 103.382 252.329 103.95 252.329 104.543V107.554C252.329 108.147 252.093 108.716 251.672 109.135C251.251 109.555 250.68 109.79 250.085 109.79V109.79Z" fill="#F3F5FD"/>
<g opacity="0.15">
<path opacity="0.15" d="M250.084 109.79H222.401V102.308H250.084C250.679 102.308 251.25 102.543 251.671 102.963C252.092 103.382 252.328 103.95 252.328 104.543V107.555C252.328 108.148 252.092 108.716 251.671 109.136C251.25 109.555 250.679 109.79 250.084 109.79V109.79Z" fill="#C1D8ED"/>
</g>
<path d="M299.653 67.4797C299.653 67.4797 294.858 65.1121 295.561 52.261L285.746 50.7232C285.746 50.7232 287.159 62.1895 282.319 65.9741L299.653 67.4797Z" fill="#E98862"/>
<g opacity="0.15">
<path opacity="0.15" d="M284.256 63.5161L292.2 57.1118L285.826 57.22C285.642 59.3633 285.203 61.6702 284.256 63.5161Z" fill="black"/>
</g>
<path d="M300.966 47.1383C300.397 51.0472 298.368 54.7889 294.957 56.1395C290.909 57.743 287.883 57.9263 283.168 58.055C276.735 58.2304 276.764 51.5405 276.398 44.8097C276.031 38.0517 276.371 30.7827 278.849 28.3569C283.795 23.5149 298.774 26.0874 300.802 33.904C301.851 37.9486 301.508 43.4182 300.966 47.1383Z" fill="#E98862"/>
<path d="M295.203 55.7632C295.424 56.4044 295.573 56.6826 296.149 56.3206C298.407 54.8989 303.494 51.8008 304.949 40.6736C306.252 30.703 299.994 26.7764 295.051 25.4487C290.791 24.3046 280.922 24.3149 276.37 27.219C272.447 29.7227 276.588 35.1844 276.588 35.1844C278.353 35.2174 278.75 36.7187 282.909 36.6038C286.124 36.5161 288.176 35.0274 291.189 35.0695C293.948 35.1088 294.56 36.7678 294.492 37.8411C294.078 44.3677 294.422 53.4956 295.203 55.7632Z" fill="#0F1011"/>
<path d="M285.567 44.5594C286.056 44.5594 286.453 44.1642 286.453 43.6766C286.453 43.189 286.056 42.7938 285.567 42.7938C285.078 42.7938 284.681 43.189 284.681 43.6766C284.681 44.1642 285.078 44.5594 285.567 44.5594Z" fill="#0F1011"/>
<path d="M278.564 44.1798C279.053 44.1798 279.449 43.7845 279.449 43.2969C279.449 42.8094 279.053 42.4141 278.564 42.4141C278.074 42.4141 277.678 42.8094 277.678 43.2969C277.678 43.7845 278.074 44.1798 278.564 44.1798Z" fill="#0F1011"/>
<path d="M276.967 41.4577C276.858 41.4572 276.754 41.4144 276.676 41.3384C276.599 41.2624 276.554 41.1592 276.552 41.0509C276.55 40.9426 276.591 40.8378 276.665 40.7589C276.739 40.6799 276.842 40.6331 276.95 40.6284L279.296 40.5351C279.35 40.5329 279.405 40.5415 279.456 40.5604C279.508 40.5792 279.555 40.6079 279.595 40.6449C279.635 40.6818 279.668 40.7263 279.69 40.7758C279.713 40.8253 279.726 40.8788 279.728 40.9332C279.731 40.9877 279.722 41.042 279.703 41.0932C279.684 41.1443 279.655 41.1912 279.618 41.2313C279.581 41.2713 279.537 41.3037 279.487 41.3265C279.437 41.3494 279.384 41.3622 279.329 41.3644L276.984 41.4573L276.967 41.4577Z" fill="#0F1011"/>
<path d="M287.424 42.0262C287.395 42.0263 287.366 42.0233 287.337 42.0172L285.009 41.5256C284.955 41.5149 284.903 41.4937 284.858 41.463C284.812 41.4324 284.773 41.393 284.742 41.3471C284.712 41.3013 284.691 41.2498 284.681 41.1958C284.67 41.1418 284.671 41.0863 284.682 41.0326C284.694 40.9788 284.716 40.9278 284.747 40.8826C284.779 40.8374 284.819 40.7989 284.865 40.7692C284.912 40.7396 284.963 40.7194 285.018 40.71C285.072 40.7005 285.128 40.7018 285.181 40.714L287.511 41.2056C287.612 41.2269 287.701 41.2845 287.762 41.3673C287.822 41.4502 287.85 41.5524 287.839 41.6543C287.828 41.7562 287.78 41.8506 287.704 41.9192C287.628 41.9879 287.529 42.026 287.426 42.0262H287.424Z" fill="#0F1011"/>
<path d="M290.234 45.7097C290.179 46.7009 290.523 47.673 291.188 48.4121C291.853 49.1512 292.786 49.5967 293.781 49.6507C294.776 49.7047 295.752 49.3627 296.494 48.7C297.235 48.0373 297.683 47.1081 297.737 46.1169C297.85 44.0531 296.265 42.1875 294.191 42.1769C291.51 42.1628 290.347 43.6459 290.234 45.7097Z" fill="#E98862"/>
<g opacity="0.15">
<path opacity="0.15" d="M281.761 48.6775C281.734 48.6775 281.706 48.6738 281.679 48.6665L279.529 48.0725C279.487 48.0609 279.449 48.0406 279.415 48.013C279.382 47.9853 279.355 47.951 279.336 47.9121C279.317 47.8733 279.307 47.8309 279.305 47.7877C279.304 47.7446 279.312 47.7016 279.329 47.6617L280.645 44.5145C280.676 44.44 280.736 44.3808 280.811 44.3501C280.886 44.3193 280.97 44.3194 281.044 44.3504C281.119 44.3814 281.179 44.4407 281.209 44.5153C281.24 44.5899 281.24 44.6737 281.209 44.7482L280.024 47.5779L281.841 48.0799C281.912 48.0998 281.973 48.1447 282.014 48.2061C282.054 48.2676 282.071 48.3415 282.061 48.4143C282.051 48.4872 282.015 48.554 281.96 48.6025C281.905 48.651 281.833 48.6779 281.76 48.6783L281.761 48.6775Z" fill="black"/>
</g>
<path d="M285.349 50.6363C285.349 50.6363 282.089 51.069 279.776 50.3337C279.776 50.3337 279.855 52.4782 282.446 52.619C285.037 52.7599 285.349 50.6363 285.349 50.6363Z" fill="white"/>
<path d="M232.601 68.1603C232.601 68.1603 233.28 63.127 234.133 63.0326C235.554 62.8752 236.795 69.6883 237.404 71.1848L230.724 73.2923" fill="#E98862"/>
<path d="M226.314 57.5681C224.264 58.2106 224.764 64.6522 227.067 70.3146C229.37 75.9769 232.852 79.9181 234.843 79.1143C236.835 78.3106 236.581 73.0676 234.279 67.4037C231.978 61.7398 230.724 56.1857 226.314 57.5681Z" fill="#E98862"/>
<path d="M245.908 111.04C244.649 111.04 243.418 110.661 242.378 109.953C241.338 109.244 240.538 108.239 240.081 107.07L226.315 71.7973L237.969 67.2837L247.909 92.7557L269.353 67.3163L278.929 75.3242L250.695 108.817C250.109 109.513 249.376 110.073 248.549 110.457C247.722 110.841 246.821 111.04 245.908 111.04Z" fill="#262626"/>
<path d="M311.649 103.663C311.64 107.245 312.16 110.809 313.194 114.24H267.945C268.586 109.985 268.866 105.683 268.779 101.382C268.595 85.5343 260.233 63.9629 279.26 63.1494C279.621 63.1317 280.201 63.1199 280.946 63.11C281.094 66.2522 300.624 66.2404 301.038 63.0333C306.553 63.0392 311.08 64.725 313.702 67.3372C314.924 68.5346 315.862 69.9888 316.448 71.5935C318.845 78.1552 315.282 86.5977 313.116 94.6449C312.277 97.7512 311.649 100.805 311.649 103.663Z" fill="#262626"/>
<path d="M280.944 63.1098C281.093 66.2515 282.808 70.8725 288.1 71.221C295.154 71.6837 300.624 66.2401 301.037 63.0354H301.02C294.075 63.0354 284.993 63.0468 280.944 63.1098Z" fill="#E98862"/>
<path d="M332.178 114.241H319.567L318.58 106.901L313.118 94.6441L305.081 76.626L316.449 71.5904L316.509 71.5668L330.37 102.66C330.61 103.2 330.771 103.772 330.849 104.357L332.178 114.241Z" fill="#262626"/>
<path d="M287.044 109.252C289.621 109.252 291.71 107.171 291.71 104.603C291.71 102.036 289.621 99.955 287.044 99.955C284.467 99.955 282.378 102.036 282.378 104.603C282.378 107.171 284.467 109.252 287.044 109.252Z" fill="#FD5D76"/>
<path d="M289.342 106.038H288.21C288.063 106.038 287.923 105.98 287.819 105.877C287.715 105.774 287.657 105.633 287.657 105.487V104.723C287.657 104.584 287.71 104.45 287.805 104.348C287.556 104.295 287.302 104.269 287.047 104.273C286.778 104.268 286.509 104.297 286.247 104.359C286.298 104.41 286.339 104.471 286.367 104.537C286.394 104.604 286.409 104.676 286.409 104.748V105.487C286.409 105.633 286.351 105.774 286.247 105.877C286.143 105.98 286.002 106.038 285.856 106.038H284.75C284.603 106.038 284.463 105.98 284.359 105.877C284.256 105.774 284.197 105.633 284.197 105.487C284.197 104.058 285.29 103.169 287.049 103.169C288.808 103.169 289.9 104.058 289.9 105.487C289.9 105.56 289.886 105.632 289.858 105.699C289.829 105.767 289.788 105.827 289.736 105.879C289.685 105.93 289.623 105.97 289.555 105.998C289.488 106.025 289.415 106.039 289.342 106.038Z" fill="white"/>
<path d="M274.578 107.89C276.4 107.89 277.877 106.419 277.877 104.603C277.877 102.788 276.4 101.316 274.578 101.316C272.756 101.316 271.278 102.788 271.278 104.603C271.278 106.419 272.756 107.89 274.578 107.89Z" fill="#8DDBE0"/>
<path d="M274.582 105.66C274.378 105.66 274.184 105.579 274.04 105.436C273.896 105.293 273.815 105.099 273.814 104.896V103.436C273.814 103.233 273.895 103.039 274.039 102.896C274.183 102.752 274.378 102.672 274.581 102.672C274.785 102.672 274.98 102.752 275.124 102.896C275.267 103.039 275.348 103.233 275.348 103.436V104.896C275.348 105.099 275.267 105.293 275.123 105.436C274.98 105.579 274.785 105.66 274.582 105.66Z" fill="white"/>
<path d="M274.578 106.457C274.558 106.457 274.538 106.453 274.519 106.445C274.5 106.438 274.483 106.426 274.468 106.412C274.454 106.397 274.442 106.38 274.435 106.361C274.427 106.343 274.423 106.322 274.423 106.302V104.907C274.423 104.866 274.439 104.826 274.468 104.797C274.498 104.768 274.537 104.752 274.578 104.752C274.62 104.752 274.659 104.768 274.688 104.797C274.718 104.826 274.734 104.866 274.734 104.907V106.302C274.734 106.343 274.718 106.383 274.688 106.412C274.659 106.441 274.62 106.457 274.578 106.457Z" fill="white"/>
<path d="M275.279 106.536H273.879C273.838 106.536 273.798 106.52 273.769 106.491C273.74 106.461 273.724 106.422 273.724 106.381C273.724 106.339 273.74 106.3 273.769 106.27C273.798 106.241 273.838 106.225 273.879 106.225H275.279C275.32 106.225 275.36 106.241 275.389 106.27C275.418 106.3 275.435 106.339 275.435 106.381C275.435 106.422 275.418 106.461 275.389 106.491C275.36 106.52 275.32 106.536 275.279 106.536Z" fill="white"/>
<path d="M299.506 107.89C301.329 107.89 302.806 106.419 302.806 104.603C302.806 102.788 301.329 101.316 299.506 101.316C297.684 101.316 296.207 102.788 296.207 104.603C296.207 106.419 297.684 107.89 299.506 107.89Z" fill="#205198"/>
<path d="M300.457 103.53H297.797V105.678H300.457V103.53Z" fill="white"/>
<path d="M301.216 105.504L300.272 104.564L301.216 103.624" fill="white"/>
<path d="M358.875 123.56H215.464V218.73H358.875V123.56Z" fill="#F3F5FD"/>
<path d="M224.186 217.49C225.307 217.806 226.398 218.221 227.444 218.73H220.32C220.333 218.64 220.355 218.552 220.387 218.466C220.532 218.135 220.762 217.847 221.054 217.632C221.346 217.417 221.689 217.283 222.05 217.242C222.316 217.204 222.585 217.198 222.852 217.223C222.856 217.223 222.856 217.223 222.856 217.219C223.268 217.261 223.675 217.342 224.072 217.459C224.111 217.471 224.151 217.477 224.186 217.49Z" fill="#8DDBE0"/>
<path d="M253.086 215.476C252.645 216.618 252.081 217.709 251.404 218.73H230.584C230.431 218.493 230.256 218.27 230.063 218.065C229.737 217.724 229.378 217.414 228.993 217.14C228.484 216.77 227.939 216.436 227.405 216.098C225.421 214.838 223.54 213.422 221.782 211.865C220.526 210.751 219.302 209.516 218.706 207.95C218.545 207.599 218.456 207.22 218.444 206.834C218.432 206.448 218.496 206.064 218.634 205.704C219.172 204.559 220.7 204.24 221.948 204.476C224.136 204.893 225.885 206.491 227.437 208.084C228.72 209.41 230.162 210.873 232.01 210.956C232.325 210.985 232.642 210.922 232.922 210.775C233.168 210.589 233.347 210.328 233.432 210.033C233.518 209.737 233.505 209.422 233.396 209.134C233.162 208.565 232.806 208.054 232.354 207.635C229.913 205.027 227.516 202.317 225.932 199.122C224.349 195.928 223.646 192.159 224.748 188.772C225.04 187.765 225.577 186.846 226.312 186.096C226.682 185.725 227.13 185.44 227.623 185.261C228.117 185.082 228.644 185.014 229.167 185.062C230.58 185.247 231.643 186.435 232.362 187.662C234.826 191.876 234.672 197.037 235.367 201.86C235.56 203.214 235.845 204.598 236.65 205.712C236.725 205.819 236.822 205.909 236.935 205.975C237.598 206.357 238.194 205.582 238.447 204.929C238.878 203.796 239.166 202.588 239.498 201.416C239.797 200.234 240.254 199.097 240.856 198.036C241.034 197.751 241.229 197.476 241.44 197.214C242.112 196.4 243.068 195.715 244.126 195.719C245.425 195.731 246.535 196.809 246.91 198.044C247.285 199.279 247.064 200.621 246.657 201.848C245.853 204.113 244.599 206.192 242.969 207.962C242.132 208.91 241.184 209.866 240.931 211.105C240.855 211.526 240.887 211.959 241.025 212.364C241.164 212.768 241.403 213.131 241.721 213.419C241.87 213.548 242.044 213.646 242.232 213.706C242.42 213.767 242.618 213.79 242.815 213.773C243.237 213.702 243.639 213.544 243.996 213.308C244.154 213.218 244.308 213.131 244.465 213.041C245.085 212.691 245.705 212.339 246.325 211.987C247.901 211.09 249.801 210.177 251.444 210.948C251.849 211.154 252.206 211.444 252.489 211.799C252.773 212.154 252.976 212.565 253.086 213.005C253.319 213.813 253.319 214.669 253.086 215.476Z" fill="#8DDBE0"/>
<path d="M327.514 145.302C331.928 145.302 335.507 141.737 335.507 137.34C335.507 132.942 331.928 129.377 327.514 129.377C323.1 129.377 319.521 132.942 319.521 137.34C319.521 141.737 323.1 145.302 327.514 145.302Z" fill="#C1D8ED"/>
<path d="M325.885 145.302C330.299 145.302 333.878 141.737 333.878 137.34C333.878 132.942 330.299 129.377 325.885 129.377C321.47 129.377 317.892 132.942 317.892 137.34C317.892 141.737 321.47 145.302 325.885 145.302Z" fill="#DEE8F5"/>
<path d="M325.885 144.13C329.649 144.13 332.7 141.09 332.7 137.34C332.7 133.591 329.649 130.551 325.885 130.551C322.121 130.551 319.07 133.591 319.07 137.34C319.07 141.09 322.121 144.13 325.885 144.13Z" fill="#F3F5FD"/>
<path d="M325.885 137.966C325.828 137.966 325.771 137.951 325.721 137.921C325.672 137.893 325.631 137.852 325.603 137.803C325.575 137.754 325.56 137.698 325.56 137.641V132.625C325.56 132.539 325.594 132.456 325.655 132.395C325.716 132.334 325.799 132.3 325.885 132.3C325.972 132.3 326.055 132.334 326.116 132.395C326.177 132.456 326.211 132.539 326.211 132.625V137.087L329.015 135.517C329.052 135.495 329.094 135.48 329.137 135.474C329.18 135.468 329.224 135.471 329.266 135.482C329.308 135.493 329.347 135.513 329.382 135.539C329.416 135.566 329.445 135.599 329.466 135.637C329.487 135.675 329.501 135.716 329.506 135.759C329.511 135.802 329.507 135.846 329.494 135.887C329.482 135.929 329.462 135.968 329.434 136.001C329.407 136.035 329.373 136.062 329.334 136.083L326.046 137.924C325.997 137.952 325.942 137.966 325.885 137.966Z" fill="#DEE8F5"/>
<path d="M335.818 204.771L335.447 206.573L332.947 218.729H331.806L334.317 206.573L334.799 204.232L335.818 204.771Z" fill="#C1D8ED"/>
<path d="M351.029 218.73H349.892L347.388 206.574L347.009 204.737L348.032 204.198L348.521 206.574L351.029 218.73Z" fill="#C1D8ED"/>
<path d="M352.019 202.509H330.812C330.275 202.509 329.841 202.942 329.841 203.476V205.606C329.841 206.14 330.275 206.573 330.812 206.573H352.019C352.555 206.573 352.989 206.14 352.989 205.606V203.476C352.989 202.942 352.555 202.509 352.019 202.509Z" fill="#DEE8F5"/>
<path d="M347.611 188.049C346.752 187.769 345.871 188.084 345.028 188.723C346.138 185.929 346.596 183.405 344.698 183.294C343.369 183.215 342.352 184.229 341.578 185.673C341.306 183.135 340.605 181.242 339.034 181.869C337.308 182.558 337.046 184.92 337.307 187.39C336.548 186.128 335.728 185.423 334.986 186.165C332.769 188.374 338.212 194.6 338.212 194.6H339.564L340.335 195.434C340.179 195.763 340.093 195.959 340.093 195.959L341.073 197.945C341.073 197.945 351.174 189.213 347.611 188.049Z" fill="#8DDBE0"/>
<path d="M345.189 202.393H337.538L336.258 193.496H346.47L345.189 202.393Z" fill="#C1D8ED"/>
<path d="M317.998 213.294H279.805L283.004 184.432C283.17 183.484 283.666 182.626 284.405 182.007C285.144 181.388 286.079 181.049 287.044 181.049H316.911C317.509 181.049 318.1 181.179 318.642 181.431C319.184 181.682 319.665 182.049 320.05 182.505C320.435 182.961 320.715 183.496 320.87 184.071C321.026 184.647 321.053 185.249 320.951 185.836L317.998 213.294Z" fill="#C1D8ED"/>
<path d="M312.781 199.704C312.781 199.704 312.591 206.404 312.2 213.293C312.098 215.134 311.979 216.987 311.845 218.73H253.304V204.024C253.303 202.879 253.76 201.781 254.572 200.971C255.384 200.161 256.486 199.705 257.636 199.704H312.781Z" fill="#F3F5FD"/>
<path d="M297.043 199.704V218.73H262.567V204.024C262.567 203.457 262.679 202.895 262.897 202.371C263.115 201.847 263.435 201.371 263.837 200.969C264.24 200.568 264.718 200.25 265.244 200.033C265.77 199.816 266.334 199.704 266.903 199.704H297.043Z" fill="#DEE8F5"/>
<path d="M310.326 213.294H272.133L275.332 184.432C275.498 183.484 275.994 182.626 276.733 182.007C277.472 181.388 278.406 181.049 279.372 181.049H309.24C309.838 181.049 310.429 181.179 310.972 181.431C311.514 181.682 311.994 182.049 312.379 182.505C312.764 182.961 313.044 183.496 313.2 184.071C313.356 184.646 313.383 185.249 313.28 185.836L310.326 213.294Z" fill="#DEE8F5"/>
<path d="M304.793 216.448V218.73H254.817V216.448C254.817 216.033 254.899 215.623 255.058 215.24C255.218 214.858 255.451 214.51 255.745 214.217C256.039 213.924 256.388 213.691 256.772 213.533C257.157 213.374 257.569 213.293 257.985 213.293H301.626C302.042 213.293 302.454 213.374 302.838 213.533C303.222 213.691 303.571 213.924 303.866 214.217C304.16 214.51 304.393 214.858 304.552 215.24C304.711 215.623 304.793 216.033 304.793 216.448V216.448Z" fill="white"/>
<path d="M321.177 199.704V218.73H295.875V204.024C295.875 203.457 295.987 202.895 296.205 202.371C296.423 201.847 296.742 201.371 297.145 200.969C297.548 200.568 298.026 200.25 298.552 200.033C299.078 199.816 299.642 199.704 300.211 199.704H321.177Z" fill="#F3F5FD"/>
<path d="M326.74 203.757V218.73H305.139V204.024C305.139 203.457 305.251 202.895 305.469 202.371C305.687 201.847 306.006 201.371 306.409 200.969C306.811 200.568 307.289 200.25 307.815 200.033C308.341 199.816 308.905 199.704 309.475 199.704H322.673C323.751 199.704 324.786 200.131 325.549 200.891C326.312 201.651 326.74 202.682 326.74 203.757V203.757Z" fill="#DEE8F5"/>
<path d="M244.905 162.447H244.453V173.585H244.905V162.447Z" fill="#C1D8ED"/>
<path d="M244.678 175.063C245.264 175.063 245.739 174.59 245.739 174.006C245.739 173.422 245.264 172.948 244.678 172.948C244.092 172.948 243.617 173.422 243.617 174.006C243.617 174.59 244.092 175.063 244.678 175.063Z" fill="#C1D8ED"/>
<path d="M240.942 155.473L240.914 169.14L240.855 198.036L240.812 218.73H239.461L239.496 201.416L239.564 169.14L239.591 155.473H240.942Z" fill="#C1D8ED"/>
<path d="M250.189 169.14H229.77L233.605 150.073H246.353L250.189 169.14Z" fill="#DEE8F5"/>
<path d="M252.508 217.652C251.57 217.651 250.647 217.424 249.817 216.989C248.987 216.554 248.275 215.925 247.744 215.156C247.212 214.386 246.876 213.5 246.764 212.572C246.652 211.645 246.768 210.704 247.102 209.831L258.498 180.059L266.536 183.112L271.28 176.675L280.611 183.498L257.175 215.297C256.637 216.028 255.934 216.621 255.124 217.03C254.313 217.439 253.417 217.652 252.508 217.652V217.652Z" fill="#FBAF55"/>
<path d="M320.138 217.677C319.49 218.172 318.746 218.531 317.954 218.73H315.004C314.496 218.602 314.008 218.408 313.551 218.154L311.936 217.256C312.118 217.759 312.288 218.247 312.444 218.73H264.872C265.753 214.893 267.332 209.421 267.209 199.056C267.033 183.825 258.995 168.033 277.284 167.249C277.631 167.232 278.188 167.223 278.903 167.21C279.047 170.227 297.819 170.219 298.217 167.136C303.519 167.142 307.867 168.762 310.386 171.271C312.039 172.821 313.166 174.847 313.609 177.065L322.308 211.464C322.594 212.597 322.541 213.79 322.156 214.894C321.77 215.998 321.069 216.965 320.138 217.677V217.677Z" fill="#FBAF55"/>
<path d="M278.903 167.21C279.046 170.23 280.695 174.672 285.782 175.007C292.561 175.452 297.819 170.219 298.216 167.139H298.2C291.525 167.139 282.794 167.15 278.903 167.21Z" fill="#E98862"/>
<path d="M272.206 177.499C272.493 177.883 272.25 178.432 270.702 180.056C269.737 181.072 268.557 182.483 267.686 183.548L259.799 180.55C260.361 178.233 261.26 175.037 262.098 174.312C263.44 173.148 268.42 175.388 268.42 175.388C268.42 175.388 268.96 173.741 269.665 172.039C270.476 170.079 271.506 168.042 272.178 168.377C272.829 168.7 272.349 170.727 271.605 172.901C270.652 175.701 269.257 178.743 269.257 178.743C269.257 178.743 271.5 176.562 272.206 177.499Z" fill="#E98862"/>
<path d="M273.012 194.763L279.693 193.701C279.956 193.659 280.207 193.562 280.43 193.417C280.653 193.272 280.842 193.082 280.986 192.858C281.13 192.635 281.224 192.384 281.264 192.122C281.304 191.86 281.287 191.592 281.216 191.337L277.012 176.309C276.887 175.864 276.603 175.48 276.212 175.23C275.822 174.98 275.353 174.883 274.894 174.956L268.213 176.018C267.951 176.06 267.7 176.156 267.477 176.301C267.254 176.446 267.065 176.637 266.921 176.86C266.777 177.083 266.683 177.334 266.643 177.596C266.604 177.858 266.62 178.126 266.691 178.381L270.895 193.41C271.02 193.855 271.304 194.239 271.695 194.488C272.085 194.738 272.554 194.836 273.012 194.763V194.763Z" fill="#C1D8ED"/>
<path d="M283.771 190.824L279.831 196.15C279.831 196.15 269.239 194.035 268.246 185.907C268.132 184.971 268.231 182.381 269.394 182.729C272.424 183.634 276.198 188.268 278.844 188.884C278.24 187.807 277.504 186.288 277.978 186.009C279.228 185.277 282.587 189.69 283.771 190.824Z" fill="#E98862"/>
<path d="M273.721 136.266C273.721 136.266 269.474 151.428 267.087 159.296C266.974 159.669 266.95 160.062 267.017 160.446C267.085 160.83 267.241 161.192 267.474 161.505C267.707 161.817 268.011 162.071 268.36 162.246C268.71 162.42 269.095 162.511 269.486 162.511H284.392C285.036 162.511 285.655 162.263 286.121 161.821C286.587 161.378 286.864 160.774 286.895 160.133L287.899 139.027L273.721 136.266Z" fill="#0F1011"/>
<path d="M296.566 169.992C296.566 169.992 292.23 167.707 293.187 155.951L284.233 154.306C284.233 154.306 285.249 164.844 280.722 168.193L296.566 169.992Z" fill="#E98862"/>
<g opacity="0.15">
<path opacity="0.15" d="M282.555 165.99L289.989 160.314L284.147 160.258C283.979 162.251 283.44 164.195 282.555 165.99V165.99Z" fill="black"/>
</g>
<path d="M298.266 151.39C297.649 154.957 295.699 158.336 292.539 159.49C289.099 160.855 285.375 161.36 281.693 160.96C271.892 160.169 273.81 137.966 278.46 133.65C283.109 129.333 296.768 132.052 298.435 139.263C299.299 142.993 298.852 147.997 298.266 151.39Z" fill="#E98862"/>
<path d="M284.24 148.656C284.689 148.656 285.052 148.294 285.052 147.847C285.052 147.4 284.689 147.038 284.24 147.038C283.792 147.038 283.428 147.4 283.428 147.847C283.428 148.294 283.792 148.656 284.24 148.656Z" fill="#0F1011"/>
<path d="M277.833 148.139C278.282 148.139 278.645 147.777 278.645 147.33C278.645 146.883 278.282 146.521 277.833 146.521C277.385 146.521 277.021 146.883 277.021 147.33C277.021 147.777 277.385 148.139 277.833 148.139Z" fill="#0F1011"/>
<path d="M276.424 145.607C276.325 145.605 276.23 145.564 276.161 145.493C276.091 145.423 276.052 145.328 276.051 145.229C276.051 145.13 276.089 145.035 276.157 144.964C276.226 144.892 276.319 144.85 276.419 144.846L278.57 144.817H278.576C278.675 144.82 278.769 144.86 278.839 144.931C278.908 145.001 278.947 145.096 278.948 145.195C278.949 145.294 278.911 145.389 278.842 145.461C278.774 145.532 278.68 145.574 278.581 145.578L276.429 145.607H276.424Z" fill="#0F1011"/>
<path d="M285.991 146.381C285.961 146.381 285.931 146.377 285.902 146.37L283.781 145.864C283.731 145.854 283.683 145.833 283.641 145.804C283.599 145.775 283.563 145.738 283.536 145.695C283.509 145.652 283.49 145.604 283.482 145.554C283.473 145.504 283.475 145.452 283.487 145.403C283.499 145.353 283.521 145.306 283.551 145.265C283.581 145.224 283.62 145.19 283.664 145.164C283.708 145.138 283.756 145.121 283.807 145.114C283.858 145.107 283.909 145.111 283.959 145.124L286.08 145.631C286.17 145.652 286.25 145.707 286.303 145.783C286.357 145.859 286.38 145.952 286.369 146.045C286.358 146.137 286.314 146.223 286.244 146.285C286.175 146.346 286.085 146.381 285.991 146.381V146.381Z" fill="#0F1011"/>
<path d="M283.869 154.216C283.869 154.216 280.873 154.534 278.77 153.805C278.77 153.805 278.789 155.772 281.16 155.963C283.532 156.154 283.869 154.216 283.869 154.216Z" fill="white"/>
<g opacity="0.15">
<path opacity="0.15" d="M280.639 152.337C280.706 152.337 280.771 152.313 280.822 152.269C280.873 152.225 280.906 152.165 280.916 152.099C280.926 152.032 280.912 151.965 280.876 151.908C280.84 151.852 280.785 151.81 280.721 151.79L279.069 151.287L280.222 148.722C280.251 148.655 280.252 148.58 280.225 148.512C280.198 148.444 280.145 148.389 280.079 148.36C280.012 148.33 279.936 148.327 279.867 148.353C279.799 148.378 279.743 148.429 279.711 148.495L278.298 151.635L280.556 152.324C280.583 152.333 280.611 152.337 280.639 152.337Z" fill="black"/>
</g>
<path d="M273.211 138.084C273.211 138.084 274.647 126.521 293.245 129.361C297.882 130.069 304.453 133.675 305.518 145.494C306.004 150.916 307.88 156.028 309.312 159.264C309.481 159.643 309.552 160.059 309.519 160.474C309.486 160.888 309.35 161.288 309.123 161.636C308.895 161.985 308.584 162.271 308.218 162.47C307.851 162.668 307.441 162.772 307.024 162.773L293.95 162.777C293.286 162.778 292.65 162.517 292.18 162.05C291.71 161.584 291.445 160.951 291.444 160.29C291.444 160.253 291.444 160.216 291.446 160.179C291.54 157.963 291.614 154.209 291.487 148.473C290.808 145.199 292.618 142.89 289.99 143.643C280.229 146.431 273.944 138.271 273.211 138.084Z" fill="#0F1011"/>
<path d="M288.343 151.329C288.269 152.236 288.56 153.134 289.151 153.827C289.742 154.52 290.586 154.951 291.496 155.024C292.406 155.098 293.308 154.808 294.003 154.219C294.699 153.63 295.131 152.79 295.205 151.883C295.293 150.993 295.022 150.105 294.452 149.414C293.882 148.722 293.06 148.285 292.167 148.198C292.127 148.194 292.09 148.191 292.052 148.189C289.599 148.109 288.497 149.441 288.343 151.329Z" fill="#E98862"/>
<path d="M287.168 213.78C289.745 213.78 291.834 211.699 291.834 209.132C291.834 206.564 289.745 204.483 287.168 204.483C284.591 204.483 282.502 206.564 282.502 209.132C282.502 211.699 284.591 213.78 287.168 213.78Z" fill="#FD5D76"/>
<path d="M289.465 210.566H288.331C288.185 210.566 288.044 210.508 287.94 210.405C287.837 210.302 287.779 210.162 287.779 210.016V209.25C287.778 209.111 287.831 208.977 287.926 208.875C287.677 208.822 287.423 208.796 287.168 208.799C286.899 208.795 286.63 208.824 286.368 208.886C286.472 208.989 286.53 209.129 286.53 209.275V210.015C286.53 210.161 286.472 210.301 286.368 210.404C286.264 210.507 286.124 210.565 285.977 210.565H284.871C284.725 210.565 284.584 210.507 284.48 210.404C284.377 210.301 284.318 210.161 284.318 210.015C284.318 208.585 285.411 207.696 287.17 207.696C288.928 207.696 290.021 208.585 290.021 210.015C290.021 210.087 290.007 210.159 289.979 210.226C289.951 210.294 289.91 210.355 289.858 210.406C289.807 210.457 289.745 210.498 289.678 210.525C289.61 210.553 289.538 210.567 289.465 210.566Z" fill="white"/>
<path d="M274.704 212.419C276.526 212.419 278.003 210.947 278.003 209.132C278.003 207.317 276.526 205.845 274.704 205.845C272.882 205.845 271.404 207.317 271.404 209.132C271.404 210.947 272.882 212.419 274.704 212.419Z" fill="#8DDBE0"/>
<path d="M274.706 210.187C274.503 210.187 274.308 210.107 274.164 209.963C274.021 209.82 273.94 209.626 273.939 209.423V207.963C273.939 207.761 274.02 207.566 274.164 207.423C274.308 207.28 274.503 207.199 274.706 207.199C274.91 207.199 275.105 207.28 275.249 207.423C275.392 207.566 275.473 207.761 275.473 207.963V209.423C275.473 209.626 275.392 209.82 275.248 209.963C275.105 210.107 274.91 210.187 274.706 210.187V210.187Z" fill="white"/>
<path d="M274.705 210.987C274.664 210.987 274.625 210.97 274.596 210.941C274.567 210.912 274.55 210.873 274.549 210.832V209.437C274.549 209.396 274.566 209.356 274.595 209.327C274.624 209.298 274.664 209.282 274.705 209.282C274.746 209.282 274.786 209.298 274.815 209.327C274.844 209.356 274.861 209.396 274.861 209.437V210.832C274.861 210.873 274.844 210.913 274.815 210.942C274.786 210.971 274.746 210.987 274.705 210.987V210.987Z" fill="white"/>
<path d="M275.403 211.065H274.003C273.962 211.065 273.922 211.049 273.893 211.02C273.864 210.99 273.848 210.951 273.848 210.909C273.848 210.868 273.864 210.829 273.893 210.799C273.922 210.77 273.962 210.754 274.003 210.754H275.403C275.444 210.754 275.484 210.77 275.513 210.799C275.542 210.829 275.559 210.868 275.559 210.909C275.559 210.951 275.542 210.99 275.513 211.02C275.484 211.049 275.444 211.065 275.403 211.065Z" fill="white"/>
<path d="M299.633 212.419C301.455 212.419 302.932 210.947 302.932 209.132C302.932 207.317 301.455 205.845 299.633 205.845C297.811 205.845 296.333 207.317 296.333 209.132C296.333 210.947 297.811 212.419 299.633 212.419Z" fill="#205198"/>
<path d="M300.581 208.058H297.921V210.206H300.581V208.058Z" fill="white"/>
<path d="M301.342 210.032L300.398 209.092L301.342 208.152" fill="white"/>
<path d="M204.546 123.56H61.1348V218.729H204.546V123.56Z" fill="#F3F5FD"/>
<path d="M99.079 148.128H78.291V168.837H99.079V148.128Z" fill="#DEE8F5"/>
<path d="M97.6468 149.556H79.7251V167.41H97.6468V149.556Z" fill="white"/>
<path d="M83.3506 153.622V160.395L90.1122 153.659L83.3506 153.622Z" fill="#F3F5FD"/>
<path d="M89.4253 163.343C91.5217 163.343 93.2211 161.65 93.2211 159.562C93.2211 157.474 91.5217 155.781 89.4253 155.781C87.3289 155.781 85.6294 157.474 85.6294 159.562C85.6294 161.65 87.3289 163.343 89.4253 163.343Z" fill="#C1D8ED"/>
<path d="M122.978 131.288H102.744V155.773H122.978V131.288Z" fill="#DEE8F5"/>
<path d="M121.283 132.977H104.437V154.086H121.283V132.977Z" fill="white"/>
<path d="M116.662 136.37H107.654V146.869H116.662V136.37Z" fill="#DEE8F5"/>
<path d="M116.182 144.202H116.181C114.382 144.202 112.924 145.654 112.924 147.446V147.447C112.924 149.239 114.382 150.691 116.181 150.691H116.182C117.98 150.691 119.438 149.239 119.438 147.447V147.446C119.438 145.654 117.98 144.202 116.182 144.202Z" fill="#C1D8ED"/>
<path d="M119.437 140.95H112.157V142.383H119.437V140.95Z" fill="#F3F5FD"/>
<path d="M123.712 160.383H106.74V177.291H123.712V160.383Z" fill="#DEE8F5"/>
<path d="M122.328 161.762H108.123V175.913H122.328V161.762Z" fill="white"/>
<path d="M120.238 163.465H116.623V174.087H120.238V163.465Z" fill="#DEE8F5"/>
<path d="M114.854 163.465L110.047 168.254H119.609L114.854 163.465Z" fill="#C1D8ED"/>
<path d="M118.467 170.3H111.187V171.733H118.467V170.3Z" fill="#F3F5FD"/>
<path d="M192.263 214.521C192.263 214.521 191.591 189.752 185.136 189.339C178.681 188.925 190.428 216.127 190.428 216.127" fill="#DEE8F5"/>
<path d="M192.55 212.829C192.55 212.829 200.595 195.008 195.239 191.397C189.882 187.787 190.152 213.29 190.152 213.29" fill="#C1D8ED"/>
<path d="M194.235 211.294H187V218.729H194.235V211.294Z" fill="#C1D8ED"/>
<path d="M100.007 191.805H65.9775V218.729H100.007V191.805Z" fill="#C1D8ED"/>
<path d="M109.041 191.805H75.0112V218.729H109.041V191.805Z" fill="#DEE8F5"/>
<g opacity="0.53">
<path opacity="0.53" d="M107.211 194.144H76.8438V203.746H107.211V194.144Z" fill="#F3F5FD"/>
</g>
<g opacity="0.53">
<path opacity="0.53" d="M107.211 206.096H76.8438V215.698H107.211V206.096Z" fill="#F3F5FD"/>
</g>
<path d="M92.0293 200.289C92.7741 200.289 93.3779 199.687 93.3779 198.945C93.3779 198.203 92.7741 197.602 92.0293 197.602C91.2845 197.602 90.6807 198.203 90.6807 198.945C90.6807 199.687 91.2845 200.289 92.0293 200.289Z" fill="white"/>
<path d="M92.0293 212.241C92.7741 212.241 93.3779 211.639 93.3779 210.897C93.3779 210.155 92.7741 209.554 92.0293 209.554C91.2845 209.554 90.6807 210.155 90.6807 210.897C90.6807 211.639 91.2845 212.241 92.0293 212.241Z" fill="white"/>
<path d="M122.574 170.609C122.574 170.609 126.868 168.341 125.909 156.693L134.781 155.054C134.781 155.054 133.784 165.498 138.272 168.813L122.574 170.609Z" fill="#E98862"/>
<g opacity="0.15">
<path opacity="0.15" d="M136.456 166.63L129.086 161.013L134.875 160.953C135.096 162.894 135.551 164.978 136.456 166.63Z" fill="black"/>
</g>
<path d="M120.877 152.176C121.491 155.71 123.427 159.057 126.556 160.198C130.271 161.553 133.022 161.645 137.305 161.645C143.15 161.645 142.957 155.573 143.121 149.454C143.286 143.31 142.795 136.72 140.485 134.58C135.874 130.307 122.342 133.013 120.696 140.16C119.845 143.856 120.293 148.812 120.877 152.176Z" fill="#E98862"/>
<path d="M146.252 138.131C146.252 138.131 148.646 137.599 147.99 135.22C147.555 133.643 145.527 133.993 145.527 133.993C145.527 133.993 147.447 133.643 147.447 131.973C147.447 130.92 146.636 129.138 144.187 130.157C141.315 131.352 138.038 131.199 135.547 130.781C134.094 130.538 132.676 130.199 131.267 130.18H131.259C129.604 130.152 127.954 130.371 126.365 130.832C121.911 132.16 115.172 136.138 116.604 145.156C118.204 155.221 122.945 159.07 125.03 160.304C125.154 160.378 125.293 160.424 125.436 160.436C125.58 160.449 125.724 160.429 125.859 160.378C125.993 160.327 126.115 160.247 126.213 160.142C126.312 160.037 126.386 159.912 126.428 159.775C127.021 157.889 128.04 153.142 127.754 143.356C141.443 142.687 145.382 142.484 145.382 142.484C145.382 142.484 148.605 142.604 148.605 140.259C148.605 137.914 146.252 138.131 146.252 138.131Z" fill="#0F1011"/>
<path d="M134.769 149.455C135.214 149.455 135.574 149.096 135.574 148.653C135.574 148.21 135.214 147.851 134.769 147.851C134.325 147.851 133.965 148.21 133.965 148.653C133.965 149.096 134.325 149.455 134.769 149.455Z" fill="#0F1011"/>
<path d="M141.116 148.937C141.561 148.937 141.921 148.578 141.921 148.135C141.921 147.692 141.561 147.333 141.116 147.333C140.672 147.333 140.312 147.692 140.312 148.135C140.312 148.578 140.672 148.937 141.116 148.937Z" fill="#0F1011"/>
<path d="M142.511 146.428H142.506L140.374 146.401C140.273 146.4 140.178 146.359 140.108 146.287C140.038 146.216 139.999 146.12 140.001 146.02C140.002 145.92 140.043 145.825 140.115 145.755C140.186 145.685 140.283 145.647 140.383 145.648L142.516 145.674C142.614 145.678 142.707 145.719 142.775 145.79C142.843 145.861 142.88 145.955 142.88 146.053C142.879 146.151 142.84 146.245 142.772 146.315C142.703 146.385 142.61 146.425 142.511 146.428L142.511 146.428Z" fill="#0F1011"/>
<path d="M133.032 147.203C132.94 147.203 132.85 147.169 132.781 147.108C132.711 147.047 132.667 146.962 132.656 146.87C132.645 146.779 132.668 146.686 132.721 146.61C132.774 146.535 132.854 146.481 132.944 146.46L135.045 145.957C135.094 145.945 135.144 145.943 135.193 145.951C135.242 145.959 135.289 145.976 135.331 146.002C135.374 146.028 135.41 146.062 135.44 146.102C135.469 146.142 135.49 146.187 135.501 146.235C135.513 146.283 135.515 146.333 135.507 146.382C135.5 146.431 135.482 146.478 135.456 146.52C135.43 146.562 135.396 146.599 135.356 146.628C135.316 146.657 135.271 146.678 135.222 146.69L133.121 147.194C133.092 147.2 133.062 147.203 133.032 147.203V147.203Z" fill="#0F1011"/>
<path d="M130.582 150.614C130.656 151.512 130.369 152.403 129.784 153.09C129.198 153.777 128.363 154.204 127.461 154.278C126.56 154.352 125.666 154.066 124.976 153.483C124.286 152.9 123.857 152.067 123.783 151.169C123.739 150.723 123.785 150.273 123.919 149.845C124.053 149.417 124.272 149.02 124.563 148.678C124.854 148.336 125.211 148.056 125.613 147.855C126.015 147.653 126.454 147.534 126.903 147.505C129.335 147.426 130.428 148.743 130.582 150.614Z" fill="#E98862"/>
<g opacity="0.15">
<path opacity="0.15" d="M138.344 153.098C138.276 153.1 138.21 153.077 138.158 153.034C138.106 152.991 138.072 152.93 138.062 152.864C138.052 152.797 138.067 152.729 138.103 152.672C138.14 152.616 138.197 152.575 138.262 152.557L139.898 152.057L138.753 149.517C138.723 149.45 138.721 149.374 138.747 149.306C138.773 149.237 138.826 149.182 138.893 149.152C138.96 149.122 139.036 149.119 139.105 149.145C139.174 149.171 139.23 149.224 139.26 149.291L140.533 152.116C140.55 152.151 140.558 152.19 140.558 152.23C140.558 152.269 140.55 152.308 140.534 152.343C140.517 152.379 140.494 152.411 140.464 152.437C140.434 152.463 140.399 152.482 140.362 152.493L138.425 153.086C138.398 153.094 138.371 153.098 138.344 153.098Z" fill="black"/>
</g>
<path d="M135.142 154.964C135.142 154.964 138.112 155.276 140.193 154.551C140.193 154.551 140.177 156.501 137.827 156.693C135.476 156.885 135.142 154.964 135.142 154.964Z" fill="white"/>
<path d="M191.598 218.731H173.223C168.508 215.029 164.337 211.728 162.924 210.544L152.362 194.818C151.955 197.871 151.71 200.944 151.627 204.023C151.51 208.957 151.927 213.889 152.871 218.733H108.77C110.28 214.718 111.057 210.467 111.064 206.179C111.064 203.477 110.468 200.593 109.678 197.654L104.509 209.244L103.229 218.733H91.291L92.8983 206.84C92.9732 206.285 93.1275 205.743 93.3564 205.231L106.467 175.82L106.534 175.848C107.087 174.327 107.972 172.949 109.125 171.811C111.601 169.345 115.882 167.747 121.103 167.743C121.494 170.777 139.971 170.784 140.114 167.814C140.817 167.826 141.365 167.834 141.705 167.85C146.634 168.062 149.615 169.746 151.349 172.386L151.467 172.307L171.673 202.377L191.598 218.731Z" fill="#9EBCEA"/>
<path d="M140.112 167.81C139.971 170.783 138.349 175.155 133.342 175.484C126.668 175.922 121.494 170.772 121.103 167.74H121.119C127.689 167.74 136.282 167.75 140.112 167.81Z" fill="#E98862"/>
<path d="M167.271 143.804L165.011 145.103L169.438 152.743L171.698 151.443L167.271 143.804Z" fill="#DEE8F5"/>
<path d="M165.58 143.863H162.971V152.685H165.58V143.863Z" fill="#DEE8F5"/>
<path d="M180.778 141.468H178.168V152.685H180.778V141.468Z" fill="#DEE8F5"/>
<path d="M178.094 143.863H175.484V152.685H178.094V143.863Z" fill="#C1D8ED"/>
<path d="M183.387 142.73H180.777V152.685H183.387V142.73Z" fill="#C1D8ED"/>
<path d="M175.443 142.419H171.276V152.685H175.443V142.419Z" fill="white"/>
<path d="M187.566 149.753C187.566 149.753 187.553 145.365 189.766 144.449C191.979 143.533 188.666 149.753 188.666 149.753H187.566Z" fill="#DEE8F5"/>
<path d="M188.667 149.754C188.667 149.754 189.822 141.539 187.461 141.539C185.101 141.539 187.567 149.754 187.567 149.754" fill="#DEE8F5"/>
<path d="M187.959 150.116C187.959 150.116 186.851 142.795 184.875 143.382C182.899 143.97 187.182 150.345 187.182 150.345L187.959 150.116Z" fill="#DEE8F5"/>
<path d="M190.136 147.552H184.983V152.685H190.136V147.552Z" fill="#C1D8ED"/>
<path d="M192.238 152.685H161.666V153.826H192.238V152.685Z" fill="#DEE8F5"/>
<path d="M132.719 213.758C135.296 213.758 137.385 211.677 137.385 209.109C137.385 206.542 135.296 204.461 132.719 204.461C130.142 204.461 128.053 206.542 128.053 209.109C128.053 211.677 130.142 213.758 132.719 213.758Z" fill="#FD5D76"/>
<path d="M135.018 210.544H133.884C133.738 210.544 133.597 210.486 133.493 210.383C133.39 210.279 133.331 210.139 133.331 209.993V209.229C133.331 209.09 133.384 208.956 133.479 208.854C133.23 208.8 132.975 208.775 132.721 208.778C132.452 208.774 132.183 208.803 131.921 208.864C132.025 208.968 132.083 209.108 132.083 209.254V209.993C132.083 210.139 132.024 210.279 131.921 210.383C131.817 210.486 131.676 210.544 131.53 210.544H130.424C130.277 210.544 130.137 210.486 130.033 210.383C129.929 210.279 129.871 210.139 129.871 209.993C129.871 208.563 130.963 207.675 132.722 207.675C134.481 207.675 135.574 208.563 135.574 209.993C135.574 210.066 135.56 210.138 135.532 210.205C135.504 210.272 135.463 210.333 135.411 210.384C135.359 210.435 135.298 210.476 135.23 210.503C135.163 210.531 135.091 210.545 135.018 210.544Z" fill="white"/>
<path d="M120.254 212.396C122.076 212.396 123.553 210.925 123.553 209.109C123.553 207.294 122.076 205.822 120.254 205.822C118.431 205.822 116.954 207.294 116.954 209.109C116.954 210.925 118.431 212.396 120.254 212.396Z" fill="#8DDBE0"/>
<path d="M120.255 210.166C120.051 210.165 119.856 210.085 119.713 209.942C119.569 209.798 119.488 209.604 119.488 209.402V207.942C119.488 207.739 119.569 207.545 119.712 207.401C119.856 207.258 120.051 207.178 120.255 207.178C120.458 207.178 120.653 207.258 120.797 207.401C120.941 207.545 121.022 207.739 121.022 207.942V209.402C121.021 209.604 120.941 209.798 120.797 209.942C120.653 210.085 120.458 210.165 120.255 210.166V210.166Z" fill="white"/>
<path d="M120.254 210.965C120.213 210.964 120.173 210.947 120.144 210.918C120.115 210.89 120.099 210.85 120.098 210.809V209.414C120.098 209.373 120.115 209.334 120.144 209.305C120.173 209.275 120.212 209.259 120.254 209.259C120.295 209.259 120.335 209.275 120.364 209.305C120.393 209.334 120.409 209.373 120.409 209.414V210.809C120.409 210.851 120.393 210.89 120.364 210.919C120.335 210.948 120.295 210.965 120.254 210.965V210.965Z" fill="white"/>
<path d="M120.953 211.042H119.553C119.511 211.042 119.472 211.026 119.443 210.997C119.413 210.967 119.397 210.928 119.397 210.886C119.397 210.845 119.413 210.806 119.443 210.776C119.472 210.747 119.511 210.731 119.553 210.731H120.953C120.994 210.731 121.033 210.747 121.063 210.776C121.092 210.806 121.108 210.845 121.108 210.886C121.108 210.928 121.092 210.967 121.063 210.997C121.033 211.026 120.994 211.042 120.953 211.042Z" fill="white"/>
<path d="M145.182 212.396C147.005 212.396 148.482 210.925 148.482 209.109C148.482 207.294 147.005 205.822 145.182 205.822C143.36 205.822 141.883 207.294 141.883 209.109C141.883 210.925 143.36 212.396 145.182 212.396Z" fill="#205198"/>
<path d="M146.134 208.036H143.474V210.183H146.134V208.036Z" fill="white"/>
<path d="M146.892 210.01L145.949 209.069L146.892 208.13" fill="white"/>
<path d="M420.395 253.001H0.604841C0.444427 253.001 0.290583 252.933 0.177153 252.811C0.0637237 252.69 0 252.526 0 252.355C0 252.184 0.0637237 252.019 0.177153 251.898C0.290583 251.777 0.444427 251.709 0.604841 251.709H420.395C420.556 251.709 420.709 251.777 420.823 251.898C420.936 252.019 421 252.184 421 252.355C421 252.526 420.936 252.69 420.823 252.811C420.709 252.933 420.556 253.001 420.395 253.001Z" fill="#292A2E"/>
</svg>
