<svg width="421" height="331" viewBox="0 0 421 331" fill="none" xmlns="http://www.w3.org/2000/svg">
<path d="M421 330.48H0C4.61292 316.915 13.1346 305.411 25.1414 301.998C42.7087 297.011 61.3 310.724 78.8282 305.568C88.7871 302.642 96.6272 294.115 104.866 287.034C135.948 260.315 178.535 252.422 215.316 266.562C234.54 273.95 252.057 286.87 271.749 292.362C297.214 299.468 323.844 293.575 350.031 292.604C375.534 291.659 412.076 303.641 421 330.48Z" fill="#F3F5FD"/>
<path d="M76.6783 223.943L48.689 329.954L52.6793 331L80.6686 224.989L76.6783 223.943Z" fill="#262626"/>
<path d="M126.278 224.147L122.202 224.783L138.887 330.796L142.963 330.159L126.278 224.147Z" fill="#262626"/>
<path d="M72.9318 122.775C72.9318 122.775 38.8472 120.63 38.8472 150.299C38.8472 179.967 43.8672 221.43 68.9852 226.076C94.1032 230.723 131.207 229.322 139.821 227.868C150.405 226.08 155.019 201.621 140.921 199.984C100.917 195.337 120.291 125.99 72.9318 122.775Z" fill="#C1D8ED"/>
<path d="M145.29 310.512L143.993 327.269" stroke="#E98862" stroke-width="21" stroke-miterlimit="10"/>
<path d="M169.487 330.355C169.858 330.354 170.225 330.279 170.567 330.136C170.909 329.993 171.22 329.785 171.481 329.522C171.742 329.26 171.949 328.949 172.089 328.607C172.23 328.265 172.301 327.899 172.299 327.529C172.299 327.461 172.299 327.392 172.29 327.324C172.249 326.789 172.054 326.278 171.731 325.849C171.407 325.421 170.967 325.094 170.463 324.906L153.654 319.297C153.328 319.19 152.983 319.154 152.642 319.192C152.301 319.229 151.973 319.34 151.679 319.516C149.368 321.113 146.604 321.93 143.793 321.846C141.603 321.691 139.501 320.926 137.727 319.638C137.571 319.51 137.382 319.429 137.182 319.405C136.982 319.381 136.779 319.413 136.596 319.5C136.414 319.586 136.26 319.722 136.153 319.892C136.045 320.062 135.988 320.259 135.989 320.46V328.643C135.989 329.129 136.183 329.596 136.528 329.94C136.874 330.284 137.342 330.477 137.83 330.477H137.838L169.487 330.355Z" fill="#C1D8ED"/>
<path d="M202.575 310.512L205.404 327.269" stroke="#E98862" stroke-width="21" stroke-miterlimit="10"/>
<path d="M217.054 312.989L185.346 191.462C184.638 188.747 183.045 186.342 180.817 184.626C178.589 182.909 175.853 181.978 173.037 181.977H103.549V182.022H64.6201V193.907C64.62 197.333 65.2974 200.726 66.6136 203.892C67.9297 207.058 69.8589 209.935 72.2909 212.358C74.723 214.781 77.6103 216.703 80.7879 218.014C83.9656 219.326 87.3714 220.001 90.8109 220.001H109.798V220.075H142.944L133.817 316.753L159.149 319.126L167.974 225.641L192.428 319.366L217.054 312.989Z" fill="#262626"/>
<path d="M164.109 123.939C164.109 123.939 164.213 115.71 170.116 116.138C173.841 116.408 191.538 115.59 191.801 117.196C192.453 121.17 176.265 122.141 174.797 125.843L164.109 123.939Z" fill="#E98862"/>
<path d="M168.026 116.402C168.026 116.402 176.243 113.73 178.263 114.21C180.051 114.633 176.323 117.532 176.323 117.532L168.026 116.402Z" fill="#E98862"/>
<path d="M147.137 160.045L176.457 126.041L163.822 118.963L140.343 145.275L121.982 112.534C120.245 107.359 116.288 103.893 108.215 103.546C107.782 103.532 107.087 103.512 106.193 103.498C106.014 107.266 82.5852 107.252 82.0901 103.409C75.4747 103.416 70.0421 105.444 66.9063 108.568C56.0754 119.358 69.3681 137.746 69.3681 152.133C69.3681 166.52 62.8352 172.974 63.3166 180.359C64.073 191.965 120.689 189.225 123.571 182.627C125.503 178.207 123.63 174.885 122.157 166.981H147.136L147.137 160.045ZM120.779 149.393C120.808 146.972 120.995 144.44 121.253 141.862L126.961 152.043H120.781C120.773 151.186 120.769 150.31 120.781 149.393H120.779Z" fill="#FBAF55"/>
<path d="M106.194 103.498C106.016 107.266 103.953 112.809 97.6121 113.22C89.1469 113.781 82.5864 107.252 82.0913 103.409H82.1188C90.4397 103.409 101.332 103.423 106.194 103.498Z" fill="#E98862"/>
<path d="M228.837 330.355C229.586 330.352 230.303 330.052 230.831 329.522C231.358 328.991 231.652 328.274 231.649 327.528C231.649 327.459 231.649 327.391 231.64 327.322C231.598 326.788 231.404 326.276 231.08 325.848C230.756 325.42 230.316 325.092 229.812 324.905L213.003 319.296C212.678 319.188 212.332 319.153 211.991 319.19C211.651 319.228 211.322 319.339 211.028 319.515C208.717 321.112 205.953 321.929 203.142 321.844C200.952 321.689 198.85 320.924 197.076 319.636C196.92 319.509 196.731 319.429 196.531 319.404C196.331 319.38 196.128 319.413 195.946 319.499C195.764 319.585 195.61 319.721 195.502 319.891C195.395 320.061 195.338 320.258 195.338 320.458V328.643C195.338 329.129 195.532 329.596 195.878 329.94C196.223 330.284 196.692 330.477 197.18 330.477H197.188L228.837 330.355Z" fill="#C1D8ED"/>
<path d="M31.6806 173.622H25.2227V330.48H31.6806V173.622Z" fill="#C1D8ED"/>
<path d="M343.179 173.622H336.721V330.48H343.179V173.622Z" fill="#DEE8F5"/>
<path d="M104.272 173.622H97.8145V330.48H104.272V173.622Z" fill="#DEE8F5"/>
<path d="M272.212 173.622H265.754V330.48H272.212V173.622Z" fill="#C1D8ED"/>
<path d="M352.108 167.143H16.2944V175.99H352.108V167.143Z" fill="#DEE8F5"/>
<path d="M167.852 161.039C163.911 160.808 156.924 160.163 154.009 158.44C155.487 157.991 157.468 157.257 157.282 156.598C156.793 154.864 149.942 155.942 147.893 155.942L147.146 155.973V164.745C147.146 164.745 160.648 169.789 168.595 163.331C168.797 163.167 168.945 162.945 169.019 162.695C169.092 162.446 169.089 162.18 169.009 161.932C168.928 161.685 168.775 161.467 168.569 161.308C168.362 161.148 168.112 161.055 167.852 161.039V161.039Z" fill="#E98862"/>
<path d="M206.411 127.547L198.061 162.468C197.931 163.011 197.927 163.577 198.048 164.122C198.169 164.667 198.412 165.178 198.76 165.617C199.107 166.055 199.55 166.409 200.054 166.653C200.558 166.896 201.112 167.023 201.672 167.023H250.899C251.712 167.023 252.503 166.757 253.149 166.266C253.796 165.775 254.263 165.085 254.479 164.304L264.1 129.384C264.251 128.835 264.273 128.259 264.164 127.7C264.055 127.141 263.818 126.615 263.472 126.162C263.125 125.71 262.679 125.343 262.167 125.09C261.655 124.838 261.091 124.706 260.52 124.706H210.023C209.188 124.706 208.377 124.987 207.722 125.502C207.066 126.018 206.605 126.738 206.411 127.547V127.547Z" fill="#3662A2"/>
<path d="M180.537 167.023H240.034C240.32 167.023 240.604 166.967 240.868 166.858C241.133 166.749 241.374 166.589 241.576 166.387C241.779 166.185 241.939 165.946 242.049 165.682C242.159 165.418 242.215 165.136 242.215 164.85V164.85C242.215 164.565 242.159 164.282 242.049 164.019C241.939 163.755 241.779 163.515 241.576 163.314C241.374 163.112 241.133 162.952 240.868 162.843C240.604 162.733 240.32 162.677 240.034 162.677H180.537C179.958 162.677 179.403 162.906 178.994 163.314C178.585 163.721 178.355 164.274 178.355 164.85V164.85C178.355 165.427 178.585 165.979 178.994 166.387C179.403 166.794 179.958 167.023 180.537 167.023V167.023Z" fill="#3662A2"/>
<path d="M233.096 151.32C236.312 151.32 238.918 148.723 238.918 145.52C238.918 142.317 236.312 139.72 233.096 139.72C229.881 139.72 227.274 142.317 227.274 145.52C227.274 148.723 229.881 151.32 233.096 151.32Z" fill="white"/>
<path d="M107.199 89.2131C110.839 89.2131 113.789 86.2734 113.789 82.6471C113.789 79.0208 110.839 76.0811 107.199 76.0811C103.559 76.0811 100.608 79.0208 100.608 82.6471C100.608 86.2734 103.559 89.2131 107.199 89.2131Z" fill="#DEE8F5"/>
<path d="M108.346 83.413C108.592 83.3653 108.82 83.2517 109.006 83.0843C109.192 82.917 109.328 82.7023 109.4 82.4634C109.572 81.8948 111.389 68.5141 106.131 60.4518C105.291 59.0644 104.133 57.8958 102.751 57.0424C101.369 56.189 99.803 55.6753 98.1824 55.5438C98.0026 55.5248 97.8207 55.5413 97.6472 55.5925C97.4738 55.6436 97.3122 55.7284 97.1716 55.8418C97.0311 55.9553 96.9144 56.0953 96.8283 56.2537C96.7421 56.4122 96.6882 56.586 96.6696 56.7653C96.5912 57.5189 97.1406 57.5066 97.8964 57.5874C101.562 57.9656 102.118 59.4002 103.839 61.9721C108.479 68.9114 106.802 81.5467 106.765 81.6735C106.696 81.8997 106.688 82.1396 106.74 82.3701C106.792 82.6005 106.903 82.8137 107.062 82.9888C107.221 83.1639 107.423 83.295 107.648 83.3695C107.873 83.4439 108.114 83.4591 108.346 83.4136V83.413Z" fill="#C1D8ED"/>
<path d="M105.497 89.0589C109.137 89.0589 112.088 86.1192 112.088 82.4929C112.088 78.8666 109.137 75.9269 105.497 75.9269C101.857 75.9269 98.9062 78.8666 98.9062 82.4929C98.9062 86.1192 101.857 89.0589 105.497 89.0589Z" fill="#C1D8ED"/>
<path d="M88.4665 94.4692C88.4733 94.2774 88.4734 94.0931 88.4734 93.8944C88.4802 92.6475 88.4259 91.291 88.3014 89.8112L89.7455 89.544L99.2898 87.7826C99.0995 90.2151 99.1366 92.6601 99.4005 95.0858C99.4342 95.3598 99.4693 95.6414 99.5099 95.9223C99.5374 96.1415 99.5724 96.3669 99.613 96.5868C99.6536 96.8067 99.6818 97.0177 99.7299 97.2308C99.8124 97.683 99.9087 98.1352 100.026 98.5798C100.047 98.6866 100.075 98.792 100.108 98.8956C100.11 98.9145 100.115 98.9329 100.122 98.9504C100.177 99.1765 100.246 99.4094 100.321 99.6287C100.397 99.8815 100.479 100.128 100.576 100.375C100.604 100.45 100.631 100.533 100.665 100.608C100.755 100.855 100.858 101.095 100.968 101.327C101.085 101.594 101.215 101.855 101.353 102.108C101.36 102.108 101.36 102.116 101.36 102.116C101.878 103.127 102.608 104.017 103.499 104.725H86.2178C87.2837 102.89 88.3839 99.7314 88.4665 94.4692Z" fill="#E98862"/>
<path opacity="0.15" d="M101.363 102.118L92.2358 95.1604L99.4042 95.0864C99.612 97.5315 100.276 99.9163 101.363 102.118V102.118Z" fill="black"/>
<path d="M82.0698 84.218C82.8304 88.5944 85.2283 92.7393 89.1034 94.1519C93.7032 95.8304 97.1106 95.9442 102.415 95.9442C109.653 95.9442 109.414 88.4238 109.617 80.8459C109.823 73.2372 109.214 65.0756 106.353 62.4243C100.645 57.1325 83.8846 60.4841 81.8463 69.3356C80.7921 73.9141 81.3464 80.0519 82.0698 84.218Z" fill="#E98862"/>
<path d="M114.089 62.3441C112.878 57.9211 109.104 55.7596 102.864 57.3847C98.4254 58.5404 97.8635 57.5011 94.1054 55.6986C91.953 54.6662 84.8906 55.1382 83.1432 59.8997C81.2699 65.0009 75.4742 60.8698 74.9358 69.18C74.486 76.1358 75.838 85.1696 83.5943 91.2492C84.8317 92.4879 86.2375 93.5476 87.7705 94.3972C88.4286 94.7863 88.5882 94.4657 88.8165 93.7415C89.6238 91.1683 91.2564 82.1716 90.5893 74.8506C90.48 73.6462 90.7055 71.7745 93.8056 71.6443C97.1917 71.5025 105.992 72.2609 109.106 70.0371C109.106 70.0337 115.3 66.7644 114.089 62.3441Z" fill="#0F1011"/>
<path d="M99.2748 80.8466C99.8251 80.8466 100.271 80.4022 100.271 79.8539C100.271 79.3057 99.8251 78.8612 99.2748 78.8612C98.7244 78.8612 98.2783 79.3057 98.2783 79.8539C98.2783 80.4022 98.7244 80.8466 99.2748 80.8466Z" fill="#0F1011"/>
<path d="M107.136 80.2047C107.686 80.2047 108.132 79.7602 108.132 79.2119C108.132 78.6637 107.686 78.2192 107.136 78.2192C106.585 78.2192 106.139 78.6637 106.139 79.2119C106.139 79.7602 106.585 80.2047 107.136 80.2047Z" fill="#0F1011"/>
<path d="M108.862 77.0964H108.859L106.219 77.0635C106.098 77.0582 105.984 77.0065 105.9 76.919C105.817 76.8316 105.77 76.7154 105.771 76.5947C105.772 76.474 105.819 76.3583 105.904 76.2718C105.988 76.1854 106.103 76.135 106.224 76.1311H106.231L108.871 76.164C108.992 76.1693 109.106 76.2212 109.189 76.3087C109.273 76.3962 109.319 76.5125 109.318 76.6332C109.317 76.7539 109.27 76.8695 109.185 76.9559C109.1 77.0423 108.985 77.0926 108.864 77.0964H108.862Z" fill="#0F1011"/>
<path d="M97.1234 78.0549C97.0088 78.0546 96.8984 78.0125 96.8129 77.9366C96.7274 77.8607 96.6728 77.7562 96.6595 77.6429C96.6461 77.5296 96.6748 77.4153 96.7403 77.3217C96.8058 77.2281 96.9034 77.1616 97.0147 77.1348L99.6169 76.5107C99.7377 76.4818 99.8651 76.5019 99.9711 76.5666C100.077 76.6313 100.153 76.7353 100.182 76.8556C100.211 76.976 100.191 77.1029 100.126 77.2085C100.061 77.314 99.9564 77.3896 99.8356 77.4184L97.2334 78.0426C97.1973 78.0507 97.1604 78.0548 97.1234 78.0549V78.0549Z" fill="#0F1011"/>
<path d="M94.0911 82.2805C94.1445 82.8356 94.0867 83.3958 93.921 83.9285C93.7552 84.4612 93.4849 84.9557 93.1256 85.3834C92.7663 85.8111 92.3253 86.1634 91.8282 86.4198C91.3311 86.6762 90.7878 86.8316 90.2299 86.877C89.6719 86.9224 89.1105 86.8569 88.5782 86.6842C88.0459 86.5116 87.5534 86.2353 87.1292 85.8713C86.7051 85.5074 86.3578 85.0631 86.1075 84.5643C85.8572 84.0654 85.7089 83.522 85.6712 82.9656C85.6161 82.4129 85.6733 81.8549 85.8392 81.3247C86.0052 80.7945 86.2766 80.303 86.6372 79.8795C86.9978 79.456 87.4403 79.1091 87.9383 78.8595C88.4363 78.6099 88.9796 78.4628 89.5359 78.4268C92.5466 78.335 93.9006 79.9662 94.0911 82.2805Z" fill="#E98862"/>
<g opacity="0.15">
<path opacity="0.15" d="M103.698 85.3635C103.615 85.3635 103.536 85.3341 103.473 85.2806C103.411 85.2271 103.37 85.153 103.357 85.0718C103.345 84.9907 103.363 84.9078 103.406 84.8384C103.45 84.7689 103.518 84.7175 103.596 84.6934L105.623 84.0734L104.206 80.9288C104.17 80.8462 104.168 80.7527 104.2 80.6687C104.233 80.5846 104.298 80.5168 104.38 80.4798C104.463 80.4429 104.556 80.4398 104.641 80.4713C104.726 80.5027 104.795 80.5662 104.833 80.6479L106.41 84.146C106.43 84.1904 106.44 84.2385 106.44 84.2871C106.44 84.3357 106.43 84.3838 106.41 84.4282C106.39 84.4725 106.36 84.5121 106.324 84.5442C106.287 84.5764 106.244 84.6004 106.197 84.6146L103.799 85.3484C103.766 85.3584 103.732 85.3635 103.698 85.3635V85.3635Z" fill="black"/>
</g>
<path d="M99.7354 87.6722C99.7354 87.6722 103.414 88.0586 105.993 87.1611C105.993 87.1611 105.973 89.5741 103.062 89.8118C100.152 90.0495 99.7354 87.6722 99.7354 87.6722Z" fill="#F8FCFF"/>
<path d="M83.2314 82.6272L83.2913 82.6142C83.6458 82.5291 83.9518 82.3072 84.1422 81.9973C84.3325 81.6875 84.3915 81.315 84.3063 80.9618C84.2795 80.8487 81.647 69.6124 86.7503 62.8134C89.1571 59.6072 92.9765 57.8499 98.1107 57.5896C98.8595 57.5546 99.4537 57.5944 99.4172 56.8359C99.3821 56.4792 99.2146 56.1484 98.9475 55.9083C98.6804 55.6681 98.3329 55.536 97.9731 55.5377C93.246 55.1849 87.462 57.2861 84.5422 61.1822C78.668 69.0211 81.5102 81.094 81.6347 81.6044C81.7179 81.9466 81.9302 82.2438 82.2275 82.4343C82.5248 82.6247 82.8843 82.6938 83.2314 82.6272Z" fill="#C1D8ED"/>
<path d="M85.1883 89.4541C88.8283 89.4541 91.779 86.5144 91.779 82.8881C91.779 79.2618 88.8283 76.3221 85.1883 76.3221C81.5484 76.3221 78.5977 79.2618 78.5977 82.8881C78.5977 86.5144 81.5484 89.4541 85.1883 89.4541Z" fill="#C1D8ED"/>
<path d="M83.1639 89.6515C86.8038 89.6515 89.7546 86.7118 89.7546 83.0855C89.7546 79.4592 86.8038 76.5195 83.1639 76.5195C79.524 76.5195 76.5732 79.4592 76.5732 83.0855C76.5732 86.7118 79.524 89.6515 83.1639 89.6515Z" fill="#DEE8F5"/>
<path d="M83.96 86.5508C84.2773 87.989 84.6875 89.4053 85.1881 90.7909C85.9838 92.1022 97.25 91.5102 97.25 91.5102" stroke="#DEE8F5" stroke-width="3" stroke-linecap="round" stroke-linejoin="round"/>
<path d="M97.0093 93.14H98.406C99.2966 93.14 100.019 92.4207 100.019 91.5335C100.019 90.6462 99.2966 89.9269 98.406 89.9269H97.0093C96.1187 89.9269 95.3967 90.6462 95.3967 91.5335C95.3967 92.4207 96.1187 93.14 97.0093 93.14Z" fill="#C1D8ED"/>
<path d="M378.852 0H224.687V98.6565H378.852V0Z" fill="#DEE8F5"/>
<path d="M378.852 0H224.687V16.1512H378.852V0Z" fill="#292A2E"/>
<path d="M261.978 26.4463H235.597V52.7281H261.978V26.4463Z" fill="white"/>
<path d="M297.461 26.4463H271.081V52.7281H297.461V26.4463Z" fill="white"/>
<path d="M332.945 26.4463H306.564V52.7281H332.945V26.4463Z" fill="white"/>
<path d="M261.978 61.4755H235.597V87.7573H261.978V61.4755Z" fill="white"/>
<path d="M297.461 61.4755H271.081V87.7573H297.461V61.4755Z" fill="white"/>
<path d="M332.945 61.4755H306.564V87.7573H332.945V61.4755Z" fill="white"/>
<path d="M368.631 26.4463H342.25V52.7281H368.631V26.4463Z" fill="white"/>
<path d="M355.441 47.4013C359.773 47.4013 363.284 43.9028 363.284 39.5871C363.284 35.2714 359.773 31.7728 355.441 31.7728C351.109 31.7728 347.597 35.2714 347.597 39.5871C347.597 43.9028 351.109 47.4013 355.441 47.4013Z" fill="#0CBC8B"/>
<path d="M353.928 43.7779C353.751 43.7778 353.582 43.7107 353.453 43.5902L350.101 40.4387C350.035 40.3767 349.982 40.3023 349.945 40.2198C349.908 40.1374 349.888 40.0484 349.885 39.9581C349.882 39.8678 349.898 39.7778 349.93 39.6933C349.962 39.6089 350.011 39.5316 350.073 39.4659C350.135 39.4001 350.21 39.3473 350.293 39.3103C350.376 39.2733 350.465 39.2529 350.556 39.2503C350.646 39.2477 350.737 39.2629 350.821 39.2951C350.906 39.3273 350.984 39.3757 351.05 39.4378L353.889 42.1097L359.791 35.6252C359.915 35.4901 360.087 35.4093 360.269 35.4005C360.452 35.3917 360.631 35.4556 360.767 35.5783C360.903 35.7009 360.984 35.8722 360.993 36.0545C361.001 36.2367 360.937 36.415 360.814 36.5501L354.437 43.5518C354.375 43.6197 354.3 43.6747 354.217 43.7134C354.134 43.7521 354.044 43.7738 353.952 43.7772L353.928 43.7779Z" fill="white"/>
<path d="M319.89 47.4013C324.222 47.4013 327.734 43.9028 327.734 39.5871C327.734 35.2714 324.222 31.7728 319.89 31.7728C315.558 31.7728 312.046 35.2714 312.046 39.5871C312.046 43.9028 315.558 47.4013 319.89 47.4013Z" fill="#0CBC8B"/>
<path d="M318.377 43.7778C318.2 43.7777 318.031 43.7106 317.902 43.5901L314.551 40.4386C314.485 40.3766 314.432 40.3022 314.394 40.2197C314.357 40.1373 314.337 40.0483 314.334 39.958C314.332 39.8677 314.347 39.7777 314.379 39.6932C314.411 39.6088 314.46 39.5315 314.522 39.4658C314.585 39.4 314.659 39.3472 314.742 39.3102C314.825 39.2732 314.914 39.2528 315.005 39.2502C315.095 39.2476 315.186 39.2628 315.271 39.295C315.355 39.3272 315.433 39.3756 315.499 39.4377L318.338 42.1096L324.243 35.6251C324.366 35.4899 324.538 35.409 324.721 35.4001C324.904 35.3912 325.083 35.4552 325.219 35.5778C325.354 35.7005 325.435 35.8718 325.444 36.0541C325.453 36.2364 325.389 36.4148 325.266 36.55L318.888 43.5517C318.827 43.6192 318.753 43.6739 318.67 43.7126C318.587 43.7513 318.498 43.7732 318.406 43.7771L318.377 43.7778Z" fill="white"/>
<path d="M248.788 47.4013C253.12 47.4013 256.632 43.9028 256.632 39.5871C256.632 35.2714 253.12 31.7728 248.788 31.7728C244.456 31.7728 240.944 35.2714 240.944 39.5871C240.944 43.9028 244.456 47.4013 248.788 47.4013Z" fill="#0CBC8B"/>
<path d="M247.275 43.7778C247.099 43.778 246.929 43.7108 246.801 43.5901L243.45 40.4386C243.316 40.3134 243.239 40.1406 243.233 39.9582C243.228 39.7759 243.295 39.5988 243.421 39.4661C243.547 39.3334 243.72 39.2558 243.903 39.2505C244.086 39.2451 244.264 39.3125 244.397 39.4377L247.237 42.1096L253.142 35.6251C253.265 35.4899 253.437 35.409 253.62 35.4001C253.803 35.3912 253.982 35.4552 254.118 35.5778C254.253 35.7005 254.334 35.8718 254.343 36.0541C254.352 36.2364 254.288 36.4148 254.165 36.55L247.787 43.5517C247.726 43.6192 247.652 43.6739 247.569 43.7126C247.486 43.7513 247.397 43.7732 247.305 43.7771L247.275 43.7778Z" fill="white"/>
<path d="M284.339 47.4013C288.671 47.4013 292.183 43.9028 292.183 39.5871C292.183 35.2714 288.671 31.7728 284.339 31.7728C280.007 31.7728 276.496 35.2714 276.496 39.5871C276.496 43.9028 280.007 47.4013 284.339 47.4013Z" fill="#0CBC8B"/>
<path d="M282.825 43.7778C282.649 43.778 282.479 43.7108 282.352 43.5901L279 40.4386C278.934 40.3766 278.881 40.3022 278.844 40.2197C278.807 40.1373 278.786 40.0483 278.783 39.958C278.781 39.8677 278.796 39.7777 278.828 39.6932C278.861 39.6088 278.909 39.5315 278.972 39.4658C279.034 39.4 279.109 39.3472 279.191 39.3102C279.274 39.2732 279.363 39.2528 279.454 39.2502C279.545 39.2476 279.635 39.2628 279.72 39.295C279.805 39.3271 279.882 39.3756 279.948 39.4377L282.788 42.1096L288.692 35.6251C288.753 35.5581 288.826 35.5038 288.908 35.4652C288.991 35.4266 289.079 35.4045 289.17 35.4001C289.261 35.3957 289.351 35.4091 289.437 35.4396C289.522 35.4701 289.601 35.5171 289.668 35.5778C289.735 35.6385 289.789 35.7119 289.828 35.7936C289.867 35.8753 289.889 35.9638 289.894 36.0541C289.898 36.1444 289.884 36.2346 289.854 36.3197C289.823 36.4048 289.776 36.483 289.715 36.55L283.337 43.5517C283.276 43.6192 283.202 43.6739 283.119 43.7126C283.036 43.7513 282.947 43.7732 282.856 43.7771L282.825 43.7778Z" fill="white"/>
<path d="M319.89 82.4305C324.222 82.4305 327.734 78.932 327.734 74.6163C327.734 70.3006 324.222 66.802 319.89 66.802C315.558 66.802 312.046 70.3006 312.046 74.6163C312.046 78.932 315.558 82.4305 319.89 82.4305Z" fill="#0CBC8B"/>
<path d="M318.377 78.8056C318.2 78.8056 318.031 78.7384 317.902 78.6179L314.551 75.4665C314.485 75.4044 314.432 75.3301 314.394 75.2476C314.357 75.1651 314.337 75.0762 314.334 74.9859C314.332 74.8955 314.347 74.8055 314.379 74.7211C314.411 74.6366 314.46 74.5593 314.522 74.4936C314.585 74.4279 314.659 74.375 314.742 74.338C314.825 74.3011 314.914 74.2807 315.005 74.2781C315.095 74.2755 315.186 74.2907 315.271 74.3228C315.355 74.355 315.433 74.4035 315.499 74.4655L318.338 77.1374L324.243 70.655C324.366 70.5198 324.538 70.4389 324.721 70.43C324.904 70.4211 325.083 70.4851 325.219 70.6077C325.354 70.7304 325.435 70.9017 325.444 71.084C325.453 71.2663 325.389 71.4447 325.266 71.5799L318.888 78.5816C318.827 78.6491 318.753 78.7039 318.67 78.7426C318.587 78.7813 318.498 78.8032 318.406 78.807L318.377 78.8056Z" fill="white"/>
<path d="M248.788 82.4305C253.12 82.4305 256.632 78.932 256.632 74.6163C256.632 70.3006 253.12 66.802 248.788 66.802C244.456 66.802 240.944 70.3006 240.944 74.6163C240.944 78.932 244.456 82.4305 248.788 82.4305Z" fill="#0CBC8B"/>
<path d="M247.275 78.8056C247.099 78.8059 246.929 78.7387 246.801 78.6179L243.45 75.4665C243.316 75.3413 243.239 75.1685 243.233 74.9861C243.228 74.8037 243.295 74.6267 243.421 74.494C243.547 74.3612 243.72 74.2837 243.903 74.2783C244.086 74.273 244.264 74.3403 244.397 74.4655L247.237 77.1374L253.142 70.655C253.203 70.5881 253.276 70.5337 253.358 70.4951C253.44 70.4565 253.529 70.4344 253.62 70.43C253.71 70.4256 253.801 70.4391 253.886 70.4695C253.972 70.5 254.05 70.547 254.118 70.6077C254.185 70.6684 254.239 70.7418 254.278 70.8235C254.317 70.9052 254.339 70.9937 254.343 71.084C254.348 71.1743 254.334 71.2645 254.304 71.3496C254.273 71.4347 254.226 71.5129 254.165 71.5799L247.787 78.5816C247.726 78.6491 247.652 78.7039 247.569 78.7426C247.486 78.7813 247.397 78.8032 247.305 78.807L247.275 78.8056Z" fill="white"/>
<path d="M284.339 82.4305C288.671 82.4305 292.183 78.932 292.183 74.6163C292.183 70.3006 288.671 66.802 284.339 66.802C280.007 66.802 276.496 70.3006 276.496 74.6163C276.496 78.932 280.007 82.4305 284.339 82.4305Z" fill="#0CBC8B"/>
<path d="M282.825 78.8056C282.649 78.8059 282.479 78.7387 282.352 78.6179L279 75.4665C278.934 75.4044 278.881 75.3301 278.844 75.2476C278.807 75.1651 278.786 75.0762 278.783 74.9859C278.781 74.8955 278.796 74.8055 278.828 74.7211C278.861 74.6366 278.909 74.5593 278.972 74.4936C279.034 74.4279 279.109 74.375 279.191 74.338C279.274 74.3011 279.363 74.2807 279.454 74.2781C279.545 74.2755 279.635 74.2907 279.72 74.3228C279.805 74.355 279.882 74.4035 279.948 74.4655L282.788 77.1374L288.692 70.655C288.753 70.5881 288.826 70.5337 288.908 70.4951C288.991 70.4565 289.079 70.4344 289.17 70.43C289.261 70.4256 289.351 70.4391 289.437 70.4695C289.522 70.5 289.601 70.547 289.668 70.6077C289.735 70.6684 289.789 70.7418 289.828 70.8235C289.867 70.9052 289.889 70.9937 289.894 71.084C289.898 71.1743 289.884 71.2645 289.854 71.3496C289.823 71.4347 289.776 71.5129 289.715 71.5799L283.337 78.5816C283.276 78.6491 283.202 78.7039 283.119 78.7426C283.036 78.7813 282.947 78.8032 282.856 78.807L282.825 78.8056Z" fill="white"/>
<path d="M331.013 215.387L326.207 216.519L332.232 241.906L337.037 240.774L331.013 215.387Z" fill="#F0F6FF"/>
<path d="M336.299 213.42L332.173 235.702L334.841 236.192L338.967 213.91L336.299 213.42Z" fill="#C1D8ED"/>
<path d="M336.301 213.412L335.832 215.87L338.497 216.376L338.966 213.918L336.301 213.412Z" fill="#DEE8F5"/>
<path d="M328.04 219.079L326.559 219.66L335.204 241.523L336.685 240.942L328.04 219.079Z" fill="#0CBC8B"/>
<path d="M339.178 228.648H326.146V245.241H339.178V228.648Z" fill="#C1D8ED"/>
<path d="M310.714 278.148H305.375V330.48H310.714V278.148Z" fill="#C1D8ED"/>
<path d="M306.32 278.148H300.98V330.48H306.32V278.148Z" fill="#DEE8F5"/>
<path d="M377.224 278.148H371.884V330.48H377.224V278.148Z" fill="#C1D8ED"/>
<path d="M372.829 278.148H367.489V330.48H372.829V278.148Z" fill="#DEE8F5"/>
<path d="M325.36 278.148H320.02V330.48H325.36V278.148Z" fill="#C1D8ED"/>
<path d="M320.965 278.148H315.625V330.48H320.965V278.148Z" fill="#DEE8F5"/>
<path d="M391.869 278.148H386.529V330.48H391.869V278.148Z" fill="#C1D8ED"/>
<path d="M387.474 278.148H382.134V330.48H387.474V278.148Z" fill="#DEE8F5"/>
<path d="M391.868 244.651H320.053V279.404H391.868V244.651Z" fill="#C1D8ED"/>
<path d="M372.795 244.651H300.98V279.404H372.795V244.651Z" fill="#DEE8F5"/>
<g opacity="0.53">
<path opacity="0.53" d="M368.932 249.591H304.844V274.31H368.932V249.591Z" fill="#F3F5FD"/>
</g>
<path d="M336.887 264.786C338.459 264.786 339.734 263.516 339.734 261.95C339.734 260.384 338.459 259.114 336.887 259.114C335.315 259.114 334.041 260.384 334.041 261.95C334.041 263.516 335.315 264.786 336.887 264.786Z" fill="white"/>
<path d="M377.109 117.103C393.377 117.103 406.565 103.965 406.565 87.7571C406.565 71.5497 393.377 58.4109 377.109 58.4109C360.84 58.4109 347.652 71.5497 347.652 87.7571C347.652 103.965 360.84 117.103 377.109 117.103Z" fill="#C1D8ED"/>
<path d="M377.108 112.782C390.981 112.782 402.227 101.578 402.227 87.7572C402.227 73.9365 390.981 62.7325 377.108 62.7325C363.236 62.7325 351.99 73.9365 351.99 87.7572C351.99 101.578 363.236 112.782 377.108 112.782Z" fill="#262626"/>
<path d="M389.692 83.7418L377.945 90.3188C377.685 90.4621 377.392 90.5359 377.095 90.5332C376.797 90.5304 376.506 90.4511 376.248 90.303C375.991 90.1537 375.777 89.9398 375.628 89.6825C375.479 89.4253 375.401 89.1338 375.4 88.8369V70.9167C375.409 70.4712 375.593 70.047 375.913 69.735C376.232 69.4231 376.662 69.2484 377.109 69.2484C377.556 69.2484 377.986 69.4231 378.305 69.735C378.625 70.047 378.808 70.4712 378.817 70.9167V85.9287L388.016 80.774C388.211 80.6643 388.427 80.5941 388.65 80.5673C388.872 80.5406 389.098 80.5578 389.315 80.6181C389.531 80.6783 389.733 80.7804 389.909 80.9184C390.086 81.0565 390.234 81.2279 390.344 81.4228C390.454 81.6176 390.524 81.8322 390.551 82.0542C390.578 82.2762 390.561 82.5013 390.5 82.7167C390.44 82.932 390.337 83.1334 390.199 83.3093C390.06 83.4852 389.888 83.6321 389.692 83.7418V83.7418Z" fill="#DEE8F5"/>
<path d="M389.692 83.7418L377.945 90.3188C377.685 90.4621 377.392 90.5359 377.095 90.5332C376.797 90.5304 376.506 90.4511 376.248 90.303C375.991 90.1537 375.777 89.9398 375.628 89.6825C375.479 89.4253 375.401 89.1338 375.4 88.8369V70.9167C375.409 70.4712 375.593 70.047 375.913 69.735C376.232 69.4231 376.662 69.2484 377.109 69.2484C377.556 69.2484 377.986 69.4231 378.305 69.735C378.625 70.047 378.808 70.4712 378.817 70.9167V85.9287L388.016 80.774C388.211 80.6643 388.427 80.5941 388.65 80.5673C388.872 80.5406 389.098 80.5578 389.315 80.6181C389.531 80.6783 389.733 80.7804 389.909 80.9184C390.086 81.0565 390.234 81.2279 390.344 81.4228C390.454 81.6176 390.524 81.8322 390.551 82.0542C390.578 82.2762 390.561 82.5013 390.5 82.7167C390.44 82.932 390.337 83.1334 390.199 83.3093C390.06 83.4852 389.888 83.6321 389.692 83.7418V83.7418Z" fill="#C1D8ED"/>
</svg>
